<svg xmlns="http://www.w3.org/2000/svg" viewBox="0 0 3000 1500"><style>.st0{fill:#fff}.st1{fill:#dd1c24}.st2{fill-rule:evenodd;clip-rule:evenodd;fill:#fff}</style><path d="M0 0h3000v1500H0z" class="st0"/><path d="M600 0h300v1500H600z" class="st1"/><path d="M0 600h3000v300H0z" class="st1"/><path d="M750.042 452.973c-45.267 0-83.306 4.858-120.041 9.598-31.284 4.03-60.909 7.821-93.378 8.651-5.214.119-9.48 4.266-9.717 9.599-.948 21.211-3.792 52.614-6.992 74.655-.71 4.74 2.015 9.243 6.518 10.783 16.827 6.043 26.9 25.122 26.9 51.074 0 26.78-10.428 45.74-27.966 50.955-4.266 1.303-7.11 5.095-7.229 9.598-.237 61.028-2.607 112.694-3.081 122.41 0 .593 0 1.185.118 1.896a272.805 272.805 0 0 0 6.636 32.825c2.844 10.546 6.281 20.974 10.428 31.047 3.911 9.598 8.532 19.078 13.628 28.084 4.858 8.651 10.31 17.183 16.116 25.36 18.249 25.477 45.86 51.073 82.002 76.076 12.561 8.651 26.07 16.827 40.053 24.293 11.139 5.925 22.752 11.376 34.246 16.235 13.746 5.806 23.937 9.242 28.914 10.783.948.355 2.015.474 2.963.474 1.066 0 2.014-.119 2.962-.474 4.859-1.54 15.168-4.977 28.914-10.784 11.495-4.858 23.108-10.309 34.247-16.234 13.983-7.466 27.492-15.642 40.053-24.293 36.142-25.003 63.753-50.599 82.002-76.077 5.925-8.176 11.257-16.708 16.116-25.359 5.095-9.124 9.598-18.604 13.627-28.084 4.148-10.073 7.584-20.5 10.428-31.047a272.805 272.805 0 0 0 6.636-32.825c.119-.592.119-1.185.119-1.896-.474-9.717-2.844-61.383-3.081-122.41 0-4.385-2.963-8.295-7.229-9.598-17.538-5.096-27.966-24.174-27.966-50.955 0-25.952 10.073-45.03 26.9-51.074 4.503-1.54 7.228-6.162 6.517-10.784-3.08-22.04-6.043-53.443-6.991-74.655-.237-5.213-4.503-9.48-9.717-9.598-32.469-.711-61.976-4.503-93.26-8.65-37.09-4.74-75.128-9.599-120.395-9.599z" class="st0"/><path d="M799.219 987.764c12.798-6.755 25.004-14.22 36.498-22.16 32.706-22.634 57.354-45.267 73.233-67.427 5.096-7.11 9.836-14.457 13.983-21.922 4.385-7.821 8.295-15.998 11.732-24.174 3.555-8.65 6.517-17.657 9.006-26.663 2.251-8.413 4.028-17.182 5.332-26.07-.593-12.916-2.37-54.747-2.844-105.465-19.197-12.916-35.313-37.564-35.313-76.669 0-32.469 11.494-58.895 31.521-74.418-1.422-11.85-2.607-24.648-3.555-36.735-25.004-1.659-48.585-4.622-73.233-7.821-35.669-4.622-72.522-9.362-115.538-9.362-43.015 0-79.869 4.74-115.537 9.362-24.648 3.2-48.23 6.162-73.233 7.821-.948 11.968-2.133 24.885-3.555 36.735 20.026 15.523 31.521 41.949 31.521 74.418 0 39.105-16.116 63.753-35.313 76.67-.474 50.599-2.252 92.43-2.844 105.464 1.303 8.888 3.081 17.657 5.332 26.07 2.37 9.006 5.451 18.012 9.006 26.663 3.318 8.177 7.347 16.353 11.732 24.174 4.147 7.466 8.887 14.813 13.983 21.922 15.879 22.16 40.527 44.793 73.233 67.427 11.376 7.94 23.7 15.287 36.498 22.16a358.047 358.047 0 0 0 31.284 14.812c7.228 2.963 13.272 5.333 17.893 6.992 4.622-1.66 10.784-3.911 17.894-6.992a358.047 358.047 0 0 0 31.284-14.813z" class="st1"/><path d="M750.042 475.014c43.845 0 81.172 4.858 117.315 9.48 28.321 3.674 55.22 7.11 84.49 8.413 1.067 17.657 3.081 39.106 5.333 56.88-20.501 11.732-32.47 36.261-32.47 67.545 0 33.062 13.035 58.065 35.313 68.73.356 55.814 2.489 102.385 2.963 113.998a256.984 256.984 0 0 1-5.925 29.032c-2.607 9.599-5.807 19.079-9.48 28.322-3.555 8.769-7.703 17.419-12.443 25.714a219.394 219.394 0 0 1-14.812 23.226c-16.827 23.463-42.66 47.282-76.67 70.745-11.85 8.176-24.647 15.879-37.801 22.989-10.665 5.688-21.567 10.783-32.469 15.405a339.246 339.246 0 0 1-23.345 8.887 339.246 339.246 0 0 1-23.344-8.888c-10.902-4.621-21.923-9.716-32.469-15.404-13.272-6.992-25.952-14.694-37.802-22.99-34.009-23.581-59.842-47.281-76.669-70.744a246.557 246.557 0 0 1-14.813-23.226c-4.621-8.295-8.769-16.946-12.442-25.715-3.792-9.124-6.992-18.723-9.599-28.321a256.984 256.984 0 0 1-5.925-29.033c.593-11.613 2.607-58.183 2.963-113.997 22.278-10.783 35.313-35.787 35.313-68.73 0-31.284-11.969-55.813-32.469-67.545 2.251-17.775 4.266-39.223 5.332-56.88 29.27-1.303 56.17-4.74 84.491-8.413 36.143-4.74 73.47-9.48 117.434-9.48m0-12.087c-44.675 0-82.358 4.858-118.856 9.598-31.521 4.03-61.383 7.94-94.444 8.651-.948 21.449-3.911 53.206-7.11 75.603 17.893 6.399 33.535 25.833 33.535 60.435 0 35.668-16.235 54.984-35.194 60.553-.237 61.739-2.726 114.471-3.081 122.766 1.422 10.784 3.555 21.33 6.399 31.521 2.725 10.073 6.043 20.145 10.072 29.744 3.792 9.243 8.177 18.249 13.035 27.018 4.622 8.295 9.836 16.471 15.524 24.411 17.656 24.53 44.437 49.296 79.513 73.707 12.206 8.413 25.359 16.471 38.987 23.7a409.112 409.112 0 0 0 33.417 15.879c13.153 5.57 22.989 8.888 27.966 10.428 4.977-1.54 14.812-4.858 27.966-10.428a409.112 409.112 0 0 0 33.417-15.879c13.627-7.229 26.78-15.168 38.986-23.7 35.195-24.293 61.976-49.059 79.632-73.707 5.688-7.94 10.902-16.116 15.524-24.411 4.858-8.769 9.243-17.775 13.035-27.018 3.91-9.717 7.347-19.671 10.072-29.744 2.725-10.19 4.858-20.856 6.399-31.639-.355-8.414-2.844-61.146-3.081-122.766-18.96-5.57-35.194-24.885-35.194-60.554 0-34.602 15.642-54.036 33.535-60.435-3.2-22.396-6.162-54.154-7.11-75.603-32.943-.71-62.924-4.621-94.326-8.65-36.261-4.621-73.944-9.48-118.618-9.48z" class="st1"/><g transform="translate(452.725 375) scale(1.185)"><path d="m221 394.4-17.4-18c-.6-.6-.9-1.4-.9-2.2-.1-1.6-.8-3.2-2-4.5-2.8-3-7.6-3.2-10.7-.4-3.2 2.9-3.3 7.8-.3 10.9 1.3 1.3 2.9 2.1 4.5 2.3.8.1 1.6.4 2.1 1l17.4 18c.6.7.6 1.7 0 2.4l-15.4 14.9c-.3.3 0 .8.4.7l12.6-2.3c.7-.1 1.3-.4 1.7-.9l3.5-3.4c.7-.6 1.7-.6 2.4 0l77.2 79.9c.5.5 1.2.9 1.9 1l13.3 2.3c.6.1 1.1-.4 1-.9l-1.8-13.3c-.1-.7-.4-1.4-.9-1.9l-77.4-80c-.6-.7-.6-1.7 0-2.4l3.5-3.4c.5-.5.8-1.1 1-1.7l2.7-12.5c.1-.4-.4-.7-.7-.4l-15.4 14.9c-.6.6-1.7.6-2.3-.1z" class="st0"/><path d="m288 401.4 17.4-18c.6-.6 1.3-.9 2.1-1 1.6-.2 3.2-.9 4.5-2.2 2.9-2.9 2.9-7.7 0-10.7-3-3.1-7.9-3-10.9 0-1.3 1.3-2 2.9-2.1 4.6-.1.8-.4 1.6-.9 2.2l-17.4 18c-.6.7-1.7.7-2.4 0L263 379.6c-.3-.3-.8 0-.7.4l2.7 12.5c.1.7.5 1.2 1 1.7l3.5 3.4c.7.6.7 1.7 0 2.4l-77.2 79.9c-.5.5-.8 1.2-.9 1.9l-1.8 13.3c-.1.6.4 1 1 .9l13.2-2.3c.7-.1 1.4-.5 1.9-1l77.2-79.9c.6-.7 1.7-.7 2.4 0l3.5 3.4c.5.5 1.1.8 1.7.9l12.6 2.3c.4.1.7-.4.4-.7l-15.4-14.9c-.7-.6-.7-1.7-.1-2.4z" class="st0"/><g id="Венок"><g id="_x31__1_"><path id="path1872_1_" d="M298.7 444.4c11-6.5 17.7 2.1 23.6 11.5-10 1.5-20.2 1.2-23.6-11.5z" class="st2"/><path id="path2784_1_" d="M302.2 437.7c3-14.4 13-16.4 23.1-17.1-5.6 10.7-12.5 20.6-23.1 17.1z" class="st2"/><path id="path2790_1_" d="M316.9 440.9c10.6-7.6 17.9.2 24.5 9-9.9 2.5-20.2 3.2-24.5-9z" class="st2"/><path id="path2796_1_" d="M326.5 435.5c-3.4-13.7 4.8-21.6 13.5-28.5-.5 12.2-2.6 24.7-13.5 28.5z" class="st2"/><path id="path2802_1_" d="M333.8 436.5c8.7-10.7 17.7-5.8 26 .2-9.1 5.7-19 9.9-26-.2z" class="st2"/><path id="path2808_1_" d="M345 427.5c-6.8-11.3-1-21.9 5.7-31.7 2.7 11.6 4 23.9-5.7 31.7z" class="st2"/><path id="path2814_1_" d="M349.8 427.1c7-12.4 16.7-9.8 26-5.9-8.3 7.7-17.5 14.1-26 5.9z" class="st2"/><path id="path2820_1_" d="M359.9 415.7c-8.5-9.4-4.3-21 .9-32 4.4 10.6 7.5 22.2-.9 32z" class="st2"/><path id="path2826_1_" d="M363.6 414.5c5.1-13.7 15.1-13.3 24.9-11.8-6.9 9.4-15.1 17.7-24.9 11.8z" class="st2"/><path id="path2832_1_" d="M370.2 394.3c-9.4-8.1-6.3-20-2.1-31.6 5.4 9.7 9.7 20.8 2.1 31.6z" class="st2"/><path id="path2838_1_" d="M371.3 398.6c3.7-14.2 13.8-15.3 23.8-15.2-6.1 10.2-13.5 19.6-23.8 15.2z" class="st2"/><path id="path2844_1_" d="M378.8 371.5c-10.8-5.1-9.9-17.5-7.9-29.7 7.2 7.8 13.4 17.3 7.9 29.7z" class="st2"/><path id="path2850_1_" d="M379.2 382.5c-.8-14.5 8.4-20.2 18-24.8-2.7 12-6.8 23.9-18 24.8z" class="st2"/><path id="path2856_1_" d="M379.1 343.4c-11.8-1.3-13.5-13.3-14.2-25.5 8.8 5.1 17 12 14.2 25.5z" class="st2"/><path id="path2862_1_" d="M383.9 360.3c-5-12.8 2.3-22 10.2-30.3.9 12.1.3 24.7-10.2 30.3z" class="st2"/><path id="path2868_1_" d="M377.7 322c-11.5-2.9-12.1-15.1-11.8-27.4 8.2 6.2 15.7 14.2 11.8 27.4z" class="st2"/><path id="path2874_1_" d="M382.9 335.7c-7.1-11.1-1.4-21.8 5.1-31.8 2.9 11.5 4.4 23.8-5.1 31.8z" class="st2"/></g><g id="_x31_"><path id="path1872" d="M203.1 444.4c-11-6.5-17.7 2.1-23.6 11.5 9.9 1.5 20.2 1.2 23.6-11.5z" class="st2"/><path id="path2784" d="M199.5 437.7c-3-14.4-13-16.4-23.1-17.1 5.6 10.7 12.5 20.6 23.1 17.1z" class="st2"/><path id="path2790" d="M184.8 440.9c-10.6-7.6-17.9.2-24.5 9 9.9 2.5 20.2 3.2 24.5-9z" class="st2"/><path id="path2796" d="M175.2 435.5c3.4-13.7-4.8-21.6-13.5-28.5.5 12.2 2.6 24.7 13.5 28.5z" class="st2"/><path id="path2802" d="M167.9 436.5c-8.7-10.7-17.7-5.8-26 .2 9.1 5.7 19.1 9.9 26-.2z" class="st2"/><path id="path2808" d="M156.7 427.5c6.8-11.3 1-21.9-5.7-31.7-2.7 11.6-4 23.9 5.7 31.7z" class="st2"/><path id="path2814" d="M151.9 427.1c-7-12.4-16.7-9.8-26-5.9 8.3 7.7 17.5 14.1 26 5.9z" class="st2"/><path id="path2820" d="M141.9 415.7c8.5-9.4 4.3-21-.9-32-4.4 10.6-7.6 22.2.9 32z" class="st2"/><path id="path2826" d="M138.1 414.5c-5.1-13.7-15.1-13.3-24.9-11.8 7 9.4 15.2 17.7 24.9 11.8z" class="st2"/><path id="path2832" d="M131.5 394.3c9.4-8.1 6.3-20 2.1-31.6-5.4 9.7-9.6 20.8-2.1 31.6z" class="st2"/><path id="path2838" d="M130.5 398.6c-3.7-14.2-13.8-15.3-23.8-15.2 6 10.2 13.4 19.6 23.8 15.2z" class="st2"/><path id="path2844" d="M122.9 371.5c10.8-5.1 9.9-17.5 7.9-29.7-7.2 7.8-13.4 17.3-7.9 29.7z" class="st2"/><path id="path2850" d="M122.6 382.5c.8-14.5-8.4-20.2-18-24.8 2.6 12 6.8 23.9 18 24.8z" class="st2"/><path id="path2856" d="M122.6 343.4c11.8-1.3 13.5-13.3 14.2-25.5-8.8 5.1-16.9 12-14.2 25.5z" class="st2"/><path id="path2862" d="M117.8 360.3c5-12.8-2.3-22-10.2-30.3-.9 12.1-.3 24.7 10.2 30.3z" class="st2"/><path id="path2868" d="M124 322c11.5-2.9 12.1-15.1 11.8-27.4-8.2 6.2-15.6 14.2-11.8 27.4z" class="st2"/><path id="path2874" d="M118.8 335.7c7.1-11.1 1.4-21.8-5.1-31.8-2.9 11.5-4.4 23.8 5.1 31.8z" class="st2"/></g></g><path d="M374.3 244.2c-1.8-4-10.3-11.7-14.6-14.2-4.3-2.6-48.8-20.3-51.4-20.4-2.6-.1-32.4 16.8-38.2 19.3-5.8 2.5-4.6 2.7-5.9-1.4-1.4-4.1 1.4-16.6 2.1-33.5.7-16.9-10.8-30.4-22-30.6-11.2-.2-18.7 8.9-21.5 11.2-2.7 2.3-11.6 7.5-13.3 8.4-1.6.9-1.7 3.6-1.6 5.6.2 2 5.8.4 24-1.6s14.1 17.3 12.2 25.6c-1.8 8.3-9.3 17.1-9.3 17.1-1.1 1.4-1.8.4-3.4-.5-5.5-3.2-35.5-19.7-38-19.6-2.6.1-47.1 17.8-51.4 20.4-4.3 2.6-12.8 10.2-14.6 14.2-1.8 4-11.4 23.1-9.1 24.9 2.3 1.8 13.4-22.1 14.6-21.4 1.2.7-8.9 20.7-9 27.5-.1 6.8.9 10.9 2.9 12.5 2.1 1.6 2.1 2.9 3-1.2 1-4.1 14.8-38.8 17.2-35.9 2.3 2.9-5.1 6.1-7.2 17.5-2.1 11.4-1.9 18.7-1.9 20.3 0 1.6.4 5.4 1.6-.9 1.2-6.2 10.9-36 13.6-34.4 2.7 1.6-8 19.3-5.4 26 2.7 6.7 8.5 8.6 8.6 6.7.1-1.9 4.3-19.8 6.1-23.7 1.8-3.9 5.5-12.8 6.7-11.4 1.2 1.3-3.2 10-4.1 16.1-1 6.1-2.2 12.5-.4 15 1.8 2.4 3.3-9.9 5.2-14.7 1.9-4.9 7.3-19.6 9.7-17.3 2.4 2.3-2.6 7.7-4.1 13.1-1.6 5.5-1.1 12.5.6 14.1 1.7 1.6 1.8 1.5 2.3-2.3.5-3.8 1.6-13.5 3.4-17 1.8-3.5 4.4-7.5 5.7-6.6 1.3 1 .5 2.8-.9 5.1-1.3 2.3-6.7 18.1-5.2 21.2 1.5 3 2.7 7.7 3 2.3.4-5.4 6.7-15.7 10-18.2 3.3-2.6 9.5-9.2 10.6-6.9 1.1 2.3-6.8 6.6-10 11.1s-7.1 14-6.2 18.2.4 1.7 4.5-4.1 18.9-23.1 20.3-19.8c1.5 3.3-17.5 26.3-18.6 27.3-1.1 1-5.1 4.9 1 1.2 6.1-3.6 12.8-9.5 15.3-13.4 2.6-3.9 6.3-11.9 7.3-11.6 1 .4-11 22.3-14.2 25.6-3.2 3.4-6.3 6.5-4.4 6.9s8.7 3.1 17.8-9.2c9.1-12.3 7.8-16 9.7-15 1.8 1-7.3 16.3-8.1 18.2-.8 1.8-1.6 5.4 2.1 2.6 3.6-2.8 7.2-12.5 7.8-11.5.6 1-2.6 16.5-2.6 19.1 0 2.6.7 6.7 1.1 7.9.4 1.2 1.4 2.3 1.5 3.5 0 1.2-.2 5.2-.6 5.7-.4.4-6.2 9.5-8 13.2-1.8 3.6-3.6 9.4-3.9 10.8-.3 1.4-1.2 3.9-.3 4.2 1 .4 2.8-2 6.3-.2 3.6 1.8 3.3 3.7 3.4 4.6.1.9 1.3 2.4 2.5.2 1.1-2.1 1.6-3.3 3.8-3.3 2.2 0 3.7 3.8 5.2 3.6 1.5-.1 1.2-2.6 1.4-4s0-14.2-1.6-19c-1.6-4.8-4.2-8.7-4.2-9.9.1-1.1 7.5-18 8.7-18.1 1.2 0 7.3 15.1 8.9 15.1 1.6 0 7.7-15.1 8.9-15.1s8.6 16.9 8.7 18.1c.1 1.1-2.6 5-4.2 9.9-1.6 4.8-1.7 17.6-1.6 19 .1 1.3-.1 3.8 1.4 4 1.5.1 3-3.6 5.2-3.6s2.6 1.1 3.8 3.3c1.1 2.1 2.3.6 2.5-.2.1-.9-.1-2.8 3.4-4.6 3.6-1.8 5.4.6 6.3.2 1-.4 0-2.9-.3-4.2-.3-1.4-2.1-7.1-3.9-10.8-1.8-3.6-7.6-12.8-8-13.2-.4-.4-.7-4.5-.6-5.7s1.1-2.2 1.5-3.5c.4-1.2 1.1-5.3 1.1-7.9 0-2.6-3.3-18.1-2.6-19.1.6-1 4.2 8.7 7.8 11.5 3.6 2.8 2.9-.7 2.1-2.6-.8-1.8-9.9-17.2-8.1-18.2 1.8-1 .5 2.6 9.7 15 9.1 12.3 15.9 9.7 17.8 9.2 1.9-.5-1.2-3.6-4.4-6.9-3.2-3.4-15.2-25.3-14.2-25.6 1-.4 4.7 7.7 7.3 11.6 2.6 3.9 9.2 9.7 15.3 13.4 6.1 3.6 2.1-.2 1-1.2s-20.1-24-18.6-27.3c1.5-3.3 16.2 14 20.3 19.8 4.1 5.8 3.6 8.4 4.5 4.1.9-4.3-3-13.7-6.2-18.2s-11.1-8.8-10-11.1 7.3 4.4 10.6 6.9c3.3 2.6 9.6 12.9 10 18.2.4 5.4 1.6.7 3-2.3 1.5-3-3.9-18.9-5.2-21.2-1.3-2.3-2.2-4.1-.9-5.1 1.3-1 3.9 3 5.7 6.6 1.8 3.5 2.9 13.3 3.4 17 .5 3.8.6 3.9 2.3 2.3 1.7-1.6 2.2-8.6.6-14.1s-6.6-10.8-4.1-13.1c2.4-2.3 7.8 12.4 9.7 17.3 1.9 4.9 3.4 17.2 5.2 14.7 1.8-2.4.6-8.9-.4-15s-5.4-14.7-4.1-16.1c1.2-1.3 4.9 7.5 6.7 11.4 1.8 3.9 6 21.8 6.1 23.7.1 1.9 6 0 8.6-6.7 2.7-6.7-8-24.5-5.4-26 2.7-1.6 12.4 28.2 13.6 34.4 1.2 6.2 1.6 2.4 1.6.9s.1-8.9-1.9-20.3c-2.1-11.4-9.5-14.6-7.2-17.5 2.3-2.9 16.2 31.8 17.2 35.9 1 4.1 1 2.8 3 1.2 2.1-1.6 3-5.7 2.9-12.5-.1-6.8-10.2-26.8-9-27.5 1.2-.7 12.3 23.2 14.6 21.4s-7.2-20.9-9-24.9zm-239.4-91.3-6.5 2.6c-.2.1-.5.1-.7 0-.2-.1-.4-.3-.5-.5l-8.2-20.3c-.1-.2-.1-.5 0-.7.1-.2.3-.4.5-.5l17.1-6.9c.2-.1.5-.1.7 0 .2.1.4.3.5.5l2 5.1c.1.2.1.5 0 .7-.1.2-.3.4-.5.5l-9.8 3.9 5.8 14.4c.1.2.1.5 0 .7 0 .3-.2.4-.4.5zm20.6-5.5-5.9 1.6c-.2.1-.5 0-.7-.1-.2-.1-.4-.3-.4-.6l-1.4-5.2c-.1-.2 0-.5.1-.7.1-.2.3-.4.6-.4l4.6-1.2c1.2-.3 1.9-.6 2-.8l-11-12.8c0-.1-.1-.1-.1-.2-.1-.5.2-.9.6-1l7.2-1.9c.5-.1.9 0 1.3.5l6 7.6.9-9.5c.1-.6.4-.9.9-1.1l6.8-1.8c.2-.1.4 0 .6.1.2.1.3.2.4.4 0 .2.1.3.1.3l-1.8 12.8c-.3 2.5-.6 4.3-.9 5.4-.3 1.1-.7 2.3-1.5 3.6-.7 1.3-1.7 2.3-3 3-1.5.8-3.2 1.5-5.4 2zm26.8-19.8.6 5.4c.1.9.5 1.6 1.2 2 .7.4 1.5.6 2.5.5 1-.1 1.7-.3 2.1-.7.4-.4.7-.9 1-1.5.2-.6.6-1 1.1-1l7.3-.8c.2 0 .4 0 .5.2.2.1.3.3.3.5.2 2.1-.6 4.1-2.4 6.1-.9 1-2.1 1.8-3.7 2.5s-3.5 1.2-5.7 1.4c-2.2.2-4.3.1-6.2-.4-1.9-.5-3.5-1.5-4.8-2.9-1.3-1.4-2.1-3.3-2.3-5.6l-.4-4c-.2-2.3.1-4.3 1.1-6 1.8-3.2 5.3-5 10.4-5.6 2-.2 3.9-.2 5.6.2 1.7.4 3.1.9 4.2 1.7 2.2 1.5 3.4 3.3 3.6 5.4 0 .2 0 .4-.2.5-.1.2-.3.3-.5.3l-7.3.8c-.5.1-.9-.2-1.3-.8-.4-.6-.8-1-1.3-1.3-.5-.3-1.2-.3-2.2-.2-1 .1-1.8.4-2.4 1-.7.7-.9 1.4-.8 2.3zm23.4 13.1c-.2 0-.5-.1-.7-.2-.2-.2-.3-.4-.3-.6l-.2-5.4c0-.2.1-.5.2-.7.2-.2.4-.3.6-.3.9 0 1.6-.3 1.9-.7.3-.4.5-1.1.5-2l-.6-13.3c0-.2.1-.5.2-.7.2-.2.4-.3.6-.3l19.3-.9c.2 0 .5.1.7.2.2.2.3.4.3.6l1 21.9c0 .2-.1.5-.2.7-.2.2-.4.3-.6.3l-6.3.3c-.2 0-.5-.1-.7-.2-.2-.2-.3-.4-.3-.6l-.7-15.5-4.8.2.3 6.8c.2 3.3-.7 5.9-2.5 7.6-1.8 1.7-4.4 2.7-7.7 2.8zm30-17.7c.1-2.5 1-4.5 2.9-5.9 1.8-1.4 4.3-2.1 7.4-2l13.2.3c.2 0 .5.1.6.3.2.2.3.4.3.7l-.5 21.9c0 .2-.1.5-.3.6-.2.2-.4.3-.7.3l-7.3-.2c-.2 0-.5-.1-.6-.3-.2-.2-.3-.4-.3-.7l.2-6.7-2.9-.1-3.2 6.6c-.3.6-.8.8-1.4.8l-7.7-.2c-.2 0-.4-.1-.5-.2-.1-.2-.2-.3-.2-.5s0-.3.1-.4l4.4-7.7c-2.5-1.3-3.6-3.5-3.5-6.6zm10.7 2 4.2.1.1-3.6-4.2-.1c-.5 0-.9.2-1.2.5-.3.4-.4.8-.4 1.3s.1.9.4 1.2c.3.4.6.6 1.1.6zm36.8-8.2 7 .5c.2 0 .5.1.6.3.2.2.2.4.2.7l-1.7 21.9c0 .2-.1.5-.3.6-.2.2-.4.2-.7.2l-7-.5c-.2 0-.5-.1-.6-.3-.2-.2-.2-.4-.2-.7l.5-7.2-6.8-.5-.5 7.2c0 .2-.1.5-.3.6-.2.2-.4.2-.7.2l-7-.5c-.2 0-.5-.1-.6-.3-.2-.2-.2-.4-.2-.7l1.7-21.9c0-.2.1-.5.3-.6.2-.2.4-.2.7-.2l7 .5c.2 0 .5.1.6.3.2.2.2.4.2.7l-.5 6.9 6.8.5.5-6.9c0-.2.1-.5.3-.6.2-.1.5-.2.7-.2zm18.2 1.2 17.8 2.4c.2 0 .4.2.6.4.2.2.2.4.2.7l-2 15.4 1.7.2c.2 0 .4.2.6.4.2.2.2.4.2.7l-1.3 9.6c0 .2-.2.4-.4.6-.2.2-.4.2-.7.2l-5.5-.7c-.2 0-.4-.2-.6-.4-.2-.2-.2-.4-.2-.7l.4-3.3-11.5-1.5-.4 3.3c0 .2-.2.4-.4.6-.2.2-.4.2-.7.2l-5.4-.7c-.2 0-.4-.1-.6-.3-.2-.2-.2.3-.2 0l1.3-10.3c0-.2.2-.4.4-.6.2-.2.4-.2.7-.2l.5.1c.5.1 1.1-.1 1.7-.5.6-.4.9-1 1-1.8l1.7-12.8c0-.2.2-.4.4-.6.2-.4.4-.5.7-.4zm8.4 17.7 1.3-9.4-3.4-.5-.9 6.9c-.2 1.3-.4 2.1-.6 2.5l3.6.5zm21-12.4 6.1 1.5c.2.1.4.2.6.4.1.2.2.4.1.7l-2.4 9.7 9.6-8.1c.4-.4.9-.5 1.4-.3l5.3 1.3c.2.1.4.2.6.4.1.2.2.4.1.7l-5.3 21.3c-.1.2-.2.4-.4.6-.2.1-.4.2-.7.1l-6.1-1.5c-.2-.1-.4-.2-.6-.4-.1-.2-.2-.4-.1-.7l2.2-9-9.5 7.4c-.5.4-1 .5-1.5.4l-5.3-1.3c-.2-.1-.4-.2-.6-.4-.1-.2-.2-.4-.1-.7l5.3-21.3c.1-.2.2-.4.4-.6.5-.2.7-.2.9-.2zm26.7 15.6c1-2.3 2.6-3.8 4.8-4.5 2.2-.7 4.8-.4 7.6.8l12.2 5.1c.2.1.4.3.5.5.1.2.1.5 0 .7l-8.4 20.2c-.1.2-.3.4-.5.5-.2.1-.5.1-.7 0l-6.8-2.8c-.2-.1-.4-.3-.5-.5-.1-.2-.1-.5 0-.7l2.6-6.1-2.6-1.1-5.3 5.1c-.5.4-1 .5-1.6.2l-7.1-2.3c-.2-.1-.3-.2-.4-.4-.1-.2-.1-.4 0-.5.1-.1.1-.3.2-.3l6.9-6.3c-1.8-2.2-2-4.7-.9-7.6zm9.4 5.7 3.9 1.6 1.4-3.3-3.9-1.6c-.5-.2-.9-.2-1.3.1-.4.2-.7.6-.9 1.1-.2.5-.2.9-.1 1.3s.4.7.9.8z" class="st0"/></g></svg>