<svg xmlns="http://www.w3.org/2000/svg" viewBox="0 0 600 600"><style>.st1{fill:#fff}.st2{fill:#dd1c24}.st3{fill-rule:evenodd;clip-rule:evenodd;fill:#fff}</style><path d="m87.034 98.303 27.492 36.498 4.029 45.267-15.76 38.038-19.79 11.613v143.74l35.55 78.329 64.227 65.649 93.615 56.999 23.582 6.161 70.626-29.98 85.082-64.701 53.681-84.49 9.717-67.427V236.71l-29.151-26.662-9.717-54.984 18.723-42.068 13.983-8.294-7.584-65.768-204.294-20.619L95.092 38.934z" class="st1"/><path d="M349.274 537.819c12.798-6.755 25.004-14.22 36.498-22.16 32.588-22.633 57.236-45.267 73.115-67.426 5.096-7.11 9.836-14.457 13.983-21.922 4.385-7.821 8.295-15.998 11.732-24.174 3.555-8.651 6.517-17.657 9.006-26.663 2.251-8.413 4.028-17.183 5.332-26.07-.593-12.917-2.37-54.747-2.844-105.465-19.197-12.917-35.313-37.565-35.313-76.67 0-32.469 11.494-58.894 31.521-74.418-1.422-11.85-2.607-24.648-3.555-36.735-25.004-1.659-48.585-4.621-73.233-7.82-35.669-4.622-72.522-9.362-115.538-9.362-43.015 0-79.869 4.74-115.537 9.361-24.648 3.2-48.23 6.162-73.233 7.821-.948 11.969-2.133 24.885-3.555 36.735 20.026 15.524 31.521 41.95 31.521 74.418 0 39.105-16.116 63.753-35.313 76.67-.474 50.6-2.252 92.43-2.844 105.465 1.303 8.888 3.081 17.657 5.332 26.07 2.37 9.006 5.451 18.012 9.006 26.663 3.318 8.176 7.347 16.353 11.732 24.174 4.147 7.465 8.887 14.812 13.983 21.922 15.879 22.16 40.527 44.793 73.233 67.427 11.376 7.939 23.7 15.286 36.498 22.159a358.047 358.047 0 0 0 31.284 14.813c7.228 2.962 13.272 5.332 17.893 6.991 4.622-1.659 10.784-3.91 17.894-6.992a377.264 377.264 0 0 0 31.402-14.812z" class="st2"/><path d="M299.978 24.951c43.845 0 81.173 4.859 117.316 9.48 28.321 3.674 55.22 7.11 84.49 8.414 1.067 17.656 3.081 39.105 5.333 56.88-20.501 11.731-32.47 36.26-32.47 67.545 0 33.061 13.035 58.065 35.313 68.73.356 55.813 2.489 102.384 2.963 113.997a256.984 256.984 0 0 1-5.925 29.032c-2.607 9.599-5.807 19.079-9.48 28.322-3.555 8.769-7.703 17.419-12.443 25.714a219.394 219.394 0 0 1-14.812 23.226c-16.827 23.463-42.66 47.282-76.67 70.745-11.85 8.176-24.648 15.879-37.801 22.989-10.665 5.688-21.567 10.783-32.469 15.405a339.246 339.246 0 0 1-23.345 8.887 339.246 339.246 0 0 1-23.344-8.887c-10.902-4.622-21.922-9.717-32.469-15.405-13.272-6.992-25.951-14.694-37.801-22.99-34.01-23.581-59.843-47.281-76.67-70.744a246.557 246.557 0 0 1-14.812-23.226c-4.622-8.295-8.77-16.945-12.443-25.714-3.792-9.125-6.991-18.723-9.598-28.322a256.984 256.984 0 0 1-5.925-29.032c.592-11.613 2.607-58.184 2.962-113.998 22.278-10.783 35.313-35.786 35.313-68.73 0-31.284-11.968-55.813-32.469-67.545 2.252-17.775 4.266-39.223 5.333-56.88 29.269-1.303 56.169-4.74 84.49-8.413 36.261-4.622 73.589-9.48 117.434-9.48m0-11.969c-44.675 0-82.358 4.859-118.856 9.599-31.521 4.029-61.383 7.94-94.445 8.65-.948 21.449-3.91 53.207-7.11 75.603 17.894 6.4 33.536 25.833 33.536 60.435 0 35.669-16.235 54.984-35.195 60.554-.237 61.738-2.725 114.471-3.08 122.766 1.421 10.784 3.554 21.33 6.398 31.521 2.726 10.072 6.044 20.145 10.073 29.744 3.792 9.243 8.176 18.249 13.035 27.018 4.621 8.294 9.835 16.471 15.523 24.41 17.657 24.53 44.438 49.296 79.514 73.707 12.205 8.414 25.359 16.472 38.986 23.7a409.112 409.112 0 0 0 33.417 15.88c13.154 5.569 22.99 8.887 27.966 10.428 4.977-1.541 14.813-4.859 27.966-10.428a409.112 409.112 0 0 0 33.417-15.88c13.628-7.228 26.781-15.167 38.987-23.7 35.194-24.292 61.975-49.059 79.632-73.707 5.925-7.702 11.139-15.997 15.879-24.292 4.858-8.769 9.243-17.775 13.035-27.018 3.91-9.717 7.347-19.671 10.073-29.744 2.725-10.19 4.858-20.856 6.399-31.639-.356-8.413-2.844-61.146-3.081-122.766-18.96-5.57-35.195-24.885-35.195-60.554 0-34.602 15.642-54.036 33.535-60.435-3.199-22.396-6.162-54.154-7.11-75.603-32.943-.71-62.923-4.621-94.326-8.65-36.616-4.74-74.299-9.599-118.974-9.599z" class="st2"/><g transform="translate(452.725 375) scale(1.185)"><path d="m-158.8 12.4-17.4-18c-.6-.6-.9-1.4-.9-2.2-.1-1.6-.8-3.2-2-4.5-2.8-3-7.6-3.2-10.7-.4-3.2 2.9-3.3 7.8-.3 10.9 1.3 1.3 2.9 2.1 4.5 2.3.8.1 1.6.4 2.1 1l17.4 18c.6.7.6 1.7 0 2.4l-15.4 14.9c-.3.3 0 .8.4.7l12.6-2.3c.7-.1 1.3-.4 1.7-.9l3.5-3.4c.7-.6 1.7-.6 2.4 0l77.2 79.9c.5.5 1.2.9 1.9 1l13.3 2.3c.6.1 1.1-.4 1-.9l-1.8-13.3c-.1-.7-.4-1.4-.9-1.9l-77.3-80c-.6-.7-.6-1.7 0-2.4l3.5-3.4c.5-.5.8-1.1 1-1.7l2.7-12.5c.1-.4-.4-.7-.7-.4l-15.4 14.9c-.6.6-1.7.6-2.4-.1z" class="st1"/><path d="m-91.7 19.5 17.4-18c.6-.6 1.3-.9 2.1-1 1.6-.2 3.2-.9 4.5-2.2 2.9-2.9 2.9-7.7 0-10.7-3-3.1-7.9-3-10.9 0-1.3 1.3-2 2.9-2.1 4.6 0 .8-.3 1.6-.9 2.2l-17.4 18c-.6.7-1.7.7-2.4 0l-15.4-14.9c-.3-.3-.8 0-.7.4l2.7 12.5c.1.7.5 1.2 1 1.7l3.5 3.4c.7.6.7 1.7 0 2.4l-77.2 79.9c-.5.5-.8 1.2-.9 1.9l-1.8 13.3c-.1.6.4 1 1 .9l13.2-2.3c.7-.1 1.4-.5 1.9-1l77.2-79.9c.6-.7 1.7-.7 2.4 0l3.5 3.4c.5.5 1.1.8 1.7.9l12.6 2.3c.4.1.7-.4.4-.7l-15.4-14.9c-.6-.5-.7-1.6 0-2.2z" class="st1"/><g id="Венок"><g id="_x31__1_"><path id="path1872_1_" d="M-81.1 64.6c11-6.5 17.7 2.1 23.6 11.5-10 1.6-20.2 1.2-23.6-11.5z" class="st3"/><path id="path2784_1_" d="M-77.5 58c3-14.4 13-16.4 23.1-17.1C-60 51.5-66.9 61.5-77.5 58z" class="st3"/><path id="path2790_1_" d="M-62.8 61.1c10.6-7.6 17.9.2 24.5 9-10 2.5-20.2 3.3-24.5-9z" class="st3"/><path id="path2796_1_" d="M-53.3 55.7c-3.4-13.7 4.8-21.6 13.5-28.5-.5 12.2-2.5 24.7-13.5 28.5z" class="st3"/><path id="path2802_1_" d="M-45.9 56.7c8.7-10.7 17.7-5.8 26 .2-9.1 5.7-19.1 9.9-26-.2z" class="st3"/><path id="path2808_1_" d="M-34.7 47.8c-6.8-11.3-1-21.9 5.7-31.7 2.7 11.5 3.9 23.9-5.7 31.7z" class="st3"/><path id="path2814_1_" d="M-29.9 47.4c7-12.4 16.7-9.8 26-5.9-8.3 7.6-17.5 14-26 5.9z" class="st3"/><path id="path2820_1_" d="M-19.9 35.9c-8.5-9.4-4.3-21 .9-32 4.4 10.6 7.6 22.3-.9 32z" class="st3"/><path id="path2826_1_" d="M-16.1 34.8C-11 21.1-1 21.4 8.8 23c-7 9.4-15.2 17.7-24.9 11.8z" class="st3"/><path id="path2832_1_" d="M-9.5 14.5c-9.4-8.1-6.3-20-2.1-31.6C-6.2-7.3-2 3.7-9.5 14.5z" class="st3"/><path id="path2838_1_" d="M-8.5 18.9C-4.7 4.7 5.4 3.6 15.4 3.7 9.3 13.9 1.8 23.3-8.5 18.9z" class="st3"/><path id="path2844_1_" d="M-.9-8.3c-10.8-5.1-9.9-17.5-7.9-29.7C-1.7-30.1 4.6-20.7-.9-8.3z" class="st3"/><path id="path2850_1_" d="M-.6 2.7c-.8-14.5 8.4-20.2 18-24.8C14.8-10 10.6 1.8-.6 2.7z" class="st3"/><path id="path2856_1_" d="M-.6-36.3c-11.8-1.3-13.5-13.3-14.2-25.5C-6-56.7 2.1-49.8-.6-36.3z" class="st3"/><path id="path2862_1_" d="M4.1-19.4c-5-12.8 2.3-22 10.2-30.3 1 12.1.4 24.7-10.2 30.3z" class="st3"/><path id="path2868_1_" d="M-2.1-57.8c-11.5-2.9-12.1-15.1-11.8-27.4C-5.6-79 1.8-71-2.1-57.8z" class="st3"/><path id="path2874_1_" d="M3.2-44c-7.1-11.1-1.4-21.8 5.1-31.8 2.9 11.5 4.4 23.7-5.1 31.8z" class="st3"/></g><g id="_x31_"><path id="path1872" d="M-176.7 64.6c-11-6.5-17.7 2.1-23.6 11.5 10 1.6 20.2 1.2 23.6-11.5z" class="st3"/><path id="path2784" d="M-180.2 58c-3-14.4-13-16.4-23.1-17.1 5.6 10.6 12.5 20.6 23.1 17.1z" class="st3"/><path id="path2790" d="M-194.9 61.1c-10.6-7.6-17.9.2-24.5 9 9.9 2.5 20.2 3.3 24.5-9z" class="st3"/><path id="path2796" d="M-204.5 55.7c3.4-13.7-4.8-21.6-13.5-28.5.5 12.2 2.5 24.7 13.5 28.5z" class="st3"/><path id="path2802" d="M-211.8 56.7c-8.7-10.7-17.7-5.8-26 .2 9.1 5.7 19 9.9 26-.2z" class="st3"/><path id="path2808" d="M-223.1 47.8c6.8-11.3 1-21.9-5.7-31.7-2.6 11.5-3.9 23.9 5.7 31.7z" class="st3"/><path id="path2814" d="M-227.8 47.4c-7-12.4-16.7-9.8-26-5.9 8.2 7.6 17.5 14 26 5.9z" class="st3"/><path id="path2820" d="M-237.9 35.9c8.5-9.4 4.3-21-.9-32-4.4 10.6-7.5 22.3.9 32z" class="st3"/><path id="path2826" d="M-241.7 34.8c-5.1-13.7-15.1-13.3-24.9-11.8 7 9.4 15.2 17.7 24.9 11.8z" class="st3"/><path id="path2832" d="M-248.2 14.5c9.4-8.1 6.3-20 2.1-31.6-5.4 9.8-9.7 20.8-2.1 31.6z" class="st3"/><path id="path2838" d="M-249.3 18.9C-253 4.7-263.1 3.6-273.1 3.7c6.1 10.2 13.5 19.6 23.8 15.2z" class="st3"/><path id="path2844" d="M-256.8-8.3c10.8-5.1 9.9-17.5 7.9-29.7-7.2 7.9-13.4 17.3-7.9 29.7z" class="st3"/><path id="path2850" d="M-257.2 2.7c.8-14.5-8.4-20.2-18-24.8 2.7 12.1 6.8 23.9 18 24.8z" class="st3"/><path id="path2856" d="M-257.2-36.3c11.8-1.3 13.5-13.3 14.2-25.5-8.7 5.1-16.9 12-14.2 25.5z" class="st3"/><path id="path2862" d="M-261.9-19.4c5-12.8-2.3-22-10.2-30.3-.9 12.1-.3 24.7 10.2 30.3z" class="st3"/><path id="path2868" d="M-255.7-57.8c11.5-2.9 12.1-15.1 11.8-27.4-8.2 6.2-15.7 14.2-11.8 27.4z" class="st3"/><path id="path2874" d="M-260.9-44c7.1-11.1 1.4-21.8-5.1-31.8-3 11.5-4.4 23.7 5.1 31.8z" class="st3"/></g></g><path d="M-5.5-135.6c-1.8-4-10.3-11.7-14.6-14.2-4.3-2.6-48.8-20.3-51.4-20.4-2.6-.1-32.4 16.8-38.2 19.3-5.8 2.5-4.6 2.7-5.9-1.4-1.4-4.1 1.4-16.6 2.1-33.5s-10.8-30.4-22-30.6c-11.2-.2-18.7 8.9-21.5 11.2-2.7 2.3-11.6 7.5-13.3 8.4-1.6.9-1.7 3.6-1.6 5.6.2 2 5.8.4 24-1.6s14.1 17.3 12.2 25.6c-1.8 8.3-9.3 17.1-9.3 17.1-1.1 1.4-1.8.4-3.4-.5-5.5-3.2-35.5-19.7-38-19.6-2.6.1-47.1 17.8-51.4 20.4-4.3 2.6-12.8 10.2-14.6 14.2-1.8 4-11.4 23.1-9.1 24.9s13.4-22.1 14.6-21.4c1.2.7-8.9 20.7-9 27.5-.1 6.8.9 10.9 2.9 12.5s2.1 2.9 3-1.2c1-4.1 14.8-38.8 17.2-35.9 2.3 2.9-5.1 6.1-7.2 17.5s-1.9 18.7-1.9 20.3c0 1.6.4 5.4 1.6-.9 1.2-6.2 10.9-36 13.6-34.4 2.7 1.6-8 19.3-5.4 26 2.7 6.7 8.5 8.6 8.6 6.7.1-1.9 4.3-19.8 6.1-23.7 1.8-3.9 5.5-12.8 6.7-11.4 1.2 1.3-3.2 10-4.1 16.1-1 6.1-2.2 12.5-.4 15 1.8 2.4 3.3-9.9 5.2-14.7 1.9-4.9 7.3-19.6 9.7-17.3 2.4 2.3-2.6 7.7-4.1 13.1s-1.1 12.5.6 14.1 1.8 1.5 2.3-2.3c.5-3.8 1.6-13.5 3.4-17 1.8-3.5 4.4-7.5 5.7-6.6 1.3 1 .5 2.8-.9 5.1-1.3 2.3-6.7 18.1-5.2 21.2 1.5 3 2.7 7.7 3 2.3.4-5.4 6.7-15.7 10-18.2 3.3-2.6 9.5-9.2 10.6-6.9 1.1 2.3-6.8 6.6-10 11.1s-7.1 14-6.2 18.2c.9 4.3.4 1.7 4.5-4.1s18.9-23.1 20.3-19.8c1.5 3.3-17.5 26.3-18.6 27.3-1.1 1-5.1 4.9 1 1.2 6.1-3.6 12.8-9.5 15.3-13.4 2.6-3.9 6.3-11.9 7.3-11.6 1 .4-11 22.3-14.2 25.6-3.2 3.4-6.3 6.5-4.4 6.9 1.9.5 8.7 3.1 17.8-9.2s7.8-16 9.7-15c1.8 1-7.3 16.3-8.1 18.2-.8 1.8-1.6 5.4 2.1 2.6 3.6-2.8 7.2-12.5 7.8-11.5.6 1-2.6 16.5-2.6 19.1 0 2.6.7 6.7 1.1 7.9.4 1.2 1.4 2.3 1.5 3.5 0 1.2-.2 5.2-.6 5.7s-6.2 9.5-8 13.2c-1.8 3.6-3.6 9.4-3.9 10.8-.3 1.4-1.2 3.9-.3 4.2 1 .4 2.8-2 6.3-.2 3.6 1.8 3.3 3.7 3.4 4.6.1.9 1.3 2.4 2.5.2s1.6-3.3 3.8-3.3c2.2 0 3.7 3.8 5.2 3.6 1.5-.1 1.2-2.6 1.4-4 .1-1.3 0-14.2-1.6-19-1.6-4.8-4.2-8.7-4.2-9.9.1-1.1 7.5-18 8.7-18.1 1.2 0 7.3 15.1 8.9 15.1s7.7-15.1 8.9-15.1c1.2 0 8.6 16.9 8.7 18.1.1 1.1-2.6 5-4.2 9.9s-1.7 17.6-1.6 19c.1 1.3-.1 3.8 1.4 4s3-3.6 5.2-3.6 2.6 1.1 3.8 3.3c1.1 2.1 2.3.6 2.5-.2.1-.9-.1-2.8 3.4-4.6 3.6-1.8 5.4.6 6.3.2 1-.4 0-2.9-.3-4.2-.3-1.4-2.1-7.1-3.9-10.8-1.8-3.6-7.6-12.8-8-13.2-.4-.4-.7-4.5-.6-5.7 0-1.2 1.1-2.2 1.5-3.5.4-1.2 1.1-5.3 1.1-7.9s-3.3-18.1-2.6-19.1c.6-1 4.2 8.7 7.8 11.5 3.6 2.8 2.9-.7 2.1-2.6-.8-1.8-9.9-17.2-8.1-18.2 1.8-1 .5 2.6 9.7 15 9.1 12.3 15.9 9.7 17.8 9.2s-1.2-3.6-4.4-6.9c-3.2-3.4-15.2-25.3-14.2-25.6 1-.4 4.7 7.7 7.3 11.6 2.6 3.9 9.2 9.7 15.3 13.4 6.1 3.6 2.1-.2 1-1.2s-20.1-24-18.6-27.3 16.2 14 20.3 19.8c4.1 5.8 3.6 8.4 4.5 4.1.9-4.3-3-13.7-6.2-18.2s-11.1-8.8-10-11.1c1.1-2.3 7.3 4.4 10.6 6.9 3.3 2.6 9.6 12.9 10 18.2.4 5.4 1.6.7 3-2.3 1.5-3-3.9-18.9-5.2-21.2-1.3-2.3-2.2-4.1-.9-5.1 1.3-1 3.9 3 5.7 6.6 1.8 3.5 2.9 13.3 3.4 17 .5 3.8.6 3.9 2.3 2.3 1.7-1.6 2.2-8.6.6-14.1s-6.6-10.8-4.1-13.1c2.4-2.3 7.8 12.4 9.7 17.3 1.9 4.9 3.4 17.2 5.2 14.7 1.8-2.4.6-8.9-.4-15s-5.4-14.7-4.1-16.1c1.2-1.3 4.9 7.5 6.7 11.4 1.8 3.9 6 21.8 6.1 23.7.1 1.9 6 0 8.6-6.7 2.7-6.7-8-24.5-5.4-26 2.7-1.6 12.4 28.2 13.6 34.4 1.2 6.2 1.6 2.4 1.6.9 0-1.6.1-8.9-1.9-20.3-2.1-11.4-9.5-14.6-7.2-17.5C-22.9-132.1-9-97.4-8-93.3c1 4.1 1 2.8 3 1.2s3-5.7 2.9-12.5-10.2-26.8-9-27.5c1.2-.7 12.3 23.2 14.6 21.4 2.5-1.8-7.2-20.9-9-24.9zm-239.3-91.2-6.5 2.6c-.2.1-.5.1-.7 0-.2-.1-.4-.3-.5-.5l-8.2-20.3c-.1-.2-.1-.5 0-.7.1-.2.3-.4.5-.5l17.1-6.9c.2-.1.5-.1.7 0 .2.1.4.3.5.5l2 5.1c.1.2.1.5 0 .7-.1.2-.3.4-.5.5l-9.8 3.9 5.8 14.4c.1.2.1.5 0 .7 0 .2-.2.4-.4.5zm20.6-5.5-5.9 1.6c-.2.1-.5 0-.7-.1-.2-.1-.4-.3-.4-.6l-1.4-5.2c-.1-.2 0-.5.1-.7.1-.2.3-.4.6-.4l4.6-1.2c1.2-.3 1.9-.6 2-.8l-11-12.8c0-.1-.1-.1-.1-.2-.1-.5.2-.9.6-1l7.2-1.9c.5-.1.9 0 1.3.5l6 7.6.9-9.5c.1-.6.4-.9.9-1.1l6.8-1.8c.2-.1.4 0 .6.1.2.1.3.2.4.4 0 .2.1.3.1.3l-1.8 12.8c-.3 2.5-.6 4.3-.9 5.4-.3 1.1-.7 2.3-1.5 3.6-.7 1.3-1.7 2.3-3 3-1.6.8-3.3 1.4-5.4 2zm26.7-19.8.6 5.4c.1.9.5 1.6 1.2 2 .7.4 1.5.6 2.5.5 1-.1 1.7-.3 2.1-.7.4-.4.7-.9 1-1.5.2-.6.6-1 1.1-1l7.3-.8c.2 0 .4 0 .5.2.2.1.3.3.3.5.2 2.1-.6 4.1-2.4 6.1-.9 1-2.1 1.8-3.7 2.5s-3.5 1.2-5.7 1.4c-2.2.2-4.3.1-6.2-.4-1.9-.5-3.5-1.5-4.8-2.9-1.3-1.4-2.1-3.3-2.3-5.6l-.4-4c-.2-2.3.1-4.3 1.1-6 1.8-3.2 5.3-5 10.4-5.6 2-.2 3.9-.2 5.6.2 1.7.4 3.1.9 4.2 1.7 2.2 1.5 3.4 3.3 3.6 5.4 0 .2 0 .4-.2.5-.1.2-.3.3-.5.3l-7.3.8c-.5.1-.9-.2-1.3-.8-.4-.6-.8-1-1.3-1.3-.5-.3-1.2-.3-2.2-.2-1 .1-1.8.4-2.4 1-.6.6-.9 1.4-.8 2.3zm23.4 13.1c-.2 0-.5-.1-.7-.2-.2-.2-.3-.4-.3-.6l-.2-5.4c0-.2.1-.5.2-.7.2-.2.4-.3.6-.3.9 0 1.6-.3 1.9-.7.3-.4.5-1.1.5-2l-.6-13.3c0-.2.1-.5.2-.7.2-.2.4-.3.6-.3l19.3-.9c.2 0 .5.1.7.2.2.2.3.4.3.6l1 21.9c0 .2-.1.5-.2.7-.2.2-.4.3-.6.3l-6.3.3c-.2 0-.5-.1-.7-.2-.2-.2-.3-.4-.3-.6l-.7-15.5-4.8.2.3 6.8c.2 3.3-.7 5.9-2.5 7.6-1.8 1.7-4.3 2.6-7.7 2.8zm30-17.7c.1-2.5 1-4.5 2.9-5.9 1.8-1.4 4.3-2.1 7.4-2l13.2.3c.2 0 .5.1.6.3.2.2.3.4.3.7l-.5 21.9c0 .2-.1.5-.3.6-.2.2-.4.3-.7.3l-7.3-.2c-.2 0-.5-.1-.6-.3-.2-.2-.3-.4-.3-.7l.2-6.7-2.9-.1-3.2 6.6c-.3.6-.8.8-1.4.8l-7.7-.2c-.2 0-.4-.1-.5-.2-.1-.2-.2-.3-.2-.5s0-.3.1-.4l4.4-7.7c-2.4-1.3-3.5-3.6-3.5-6.6zm10.8 1.9 4.2.1.1-3.6-4.2-.1c-.5 0-.9.2-1.2.5-.3.4-.4.8-.4 1.3s.1.9.4 1.2c.2.4.6.6 1.1.6zm36.8-8.1 7 .5c.2 0 .5.1.6.3.2.2.2.4.2.7l-1.7 21.9c0 .2-.1.5-.3.6-.2.2-.4.2-.7.2l-7-.5c-.2 0-.5-.1-.6-.3-.2-.2-.2-.4-.2-.7l.5-7.2-6.8-.5-.5 7.2c0 .2-.1.5-.3.6-.2.2-.4.2-.7.2l-7-.5c-.2 0-.5-.1-.6-.3-.2-.2-.2-.4-.2-.7l1.7-21.9c0-.2.1-.5.3-.6.2-.2.4-.2.7-.2l7 .5c.2 0 .5.1.6.3.2.2.2.4.2.7l-.5 6.9 6.8.5.5-6.9c0-.2.1-.5.3-.6.2-.2.4-.2.7-.2zm18.1 1.1 17.8 2.4c.2 0 .4.2.6.4.2.2.2.4.2.7l-2 15.4 1.7.2c.2 0 .4.2.6.4.2.2.2.4.2.7l-1.3 9.6c0 .2-.2.4-.4.6-.2.2-.4.2-.7.2l-5.5-.7c-.2 0-.4-.2-.6-.4-.2-.2-.2-.4-.2-.7l.4-3.3-11.5-1.5-.4 3.3c0 .2-.2.4-.4.6-.2.2-.4.2-.7.2l-5.4-.7c-.2 0-.4-.1-.6-.3-.2-.2-.2.3-.2 0l1.3-10.3c0-.2.2-.4.4-.6.2-.2.4-.2.7-.2l.5.1c.5.1 1.1-.1 1.7-.5.6-.4.9-1 1-1.8l1.7-12.8c0-.2.2-.4.4-.6.3-.3.5-.4.7-.4zm8.5 17.8 1.3-9.4-3.4-.5-1 6.9c-.2 1.3-.4 2.1-.6 2.5l3.7.5zm21-12.4 6.1 1.5c.2.1.4.2.6.4.1.2.2.4.1.7l-2.4 9.7 9.6-8.1c.4-.4.9-.5 1.4-.3l5.3 1.3c.2.1.4.2.6.4.1.2.2.4.1.7l-5.3 21.3c-.1.2-.2.4-.4.6-.2.1-.4.2-.7.1l-6.1-1.5c-.2-.1-.4-.2-.6-.4-.1-.2-.2-.4-.1-.7l2.2-9-9.5 7.4c-.5.4-1 .5-1.5.4l-5.3-1.3c-.2-.1-.4-.2-.6-.4-.1-.2-.2-.4-.1-.7l5.3-21.3c.1-.2.2-.4.4-.6.4-.2.7-.3.9-.2zm26.7 15.6c1-2.3 2.6-3.8 4.8-4.5 2.2-.7 4.8-.4 7.6.8l12.2 5.1c.2.1.4.3.5.5.1.2.1.5 0 .7L-5.5-218c-.1.2-.3.4-.5.5-.2.1-.5.1-.7 0l-6.8-2.8c-.2-.1-.4-.3-.5-.5-.1-.2-.1-.5 0-.7l2.6-6.1-2.6-1.1-5.3 5.1c-.5.4-1 .5-1.6.2l-7.1-2.3c-.2-.1-.3-.2-.4-.4-.1-.2-.1-.4 0-.5.1-.1.1-.3.2-.3l6.9-6.3c-1.8-2.3-2.1-4.8-.9-7.6zm9.3 5.7 3.9 1.6 1.4-3.3-3.9-1.6c-.5-.2-.9-.2-1.3.1-.4.2-.7.6-.9 1.1-.2.5-.2.9-.1 1.3.2.3.5.6.9.8z" class="st1"/></g></svg>