<svg xmlns="http://www.w3.org/2000/svg" xmlns:xlink="http://www.w3.org/1999/xlink" viewBox="0 0 3000 1500"><style><![CDATA[.W{clip-path:url(#B)}.X{clip-path:url(#D)}.Y{fill:#750787}.Z{fill:#004dff}.a{fill:#008026}.b{fill:#ffed00}.c{fill:#ff8c00}.d{fill:#e40303}.e{stroke-miterlimit:10}]]></style><path d="M0 0h3000v1500H0z" fill="#fff"/><g fill="#dd1c24"><path d="M600 0h300v1500H600z"/><path d="M0 600h3000v300H0z"/></g><path d="M0 600h3000v300H0z" class="Y"/><path d="M0 600h3000v250H0z" class="Z"/><path d="M0 600h3000v200H0z" class="a"/><path d="M0 600h3000v150H0z" class="b"/><path d="M0 600h3000v100H0z" class="c"/><path d="M0 600h3000v50H0z" class="d"/><path d="M600 0h300v1500H600z" class="Y"/><path d="M600 0h250v1500H600z" class="Z"/><path d="M600 0h200v1500H600z" class="a"/><path d="M600 0h150v1500H600z" class="b"/><path d="M600 0h100v1500H600z" class="c"/><path d="M600 0h50v1500h-50z" class="d"/><g transform="matrix(1.185 0 0 1.185 452.725 375)"><path d="M250.9 65.4c-38.2 0-70.3 4.1-101.3 8.1-26.4 3.4-51.4 6.6-78.8 7.3-4.4.1-8 3.6-8.2 8.1-.8 17.9-3.2 44.5-5.9 63.1-.6 4 1.7 7.8 5.5 9.1 14.2 5.1 22.7 21.2 22.7 43.1 0 22.6-8.8 38.7-23.6 43.1-3.6 1.1-6 4.3-6.1 8.1-.2 51.6-2.2 95.2-2.6 103.4 0 .5 0 1 .1 1.6 1.3 9.4 3.2 18.8 5.6 27.7s5.3 17.7 8.8 26.2c3.3 8.1 7.2 16.1 11.5 23.8 4.1 7.3 8.7 14.5 13.6 21.4 15.4 21.6 38.7 43.2 69.2 64.3 10.6 7.3 22 14.3 33.8 20.5 9.4 5 19.2 9.6 28.9 13.7 11.6 4.9 20.2 7.8 24.4 9.1.8.3 1.7.4 2.5.4.9 0 1.7-.1 2.5-.4 4.1-1.3 12.8-4.2 24.4-9.1 9.7-4.1 19.5-8.7 28.9-13.7 11.8-6.3 23.2-13.2 33.8-20.5 30.5-21.1 53.8-42.7 69.2-64.3 5-6.9 9.5-14.1 13.6-21.4 4.3-7.7 8.1-15.7 11.5-23.8 3.5-8.5 6.4-17.3 8.8-26.2 2.4-9 4.3-18.3 5.6-27.7.1-.5.1-1 .1-1.6-.4-8.2-2.4-51.9-2.6-103.4 0-3.7-2.5-7-6.1-8.1-14.8-4.3-23.6-20.4-23.6-43.1 0-21.9 8.5-38 22.7-43.1 3.8-1.3 6.1-5.2 5.5-9.1-2.6-18.6-5.1-45.2-5.9-63.1-.2-4.4-3.8-8-8.2-8.1-27.4-.6-52.3-3.9-78.7-7.3-31.3-4-63.4-8.1-101.6-8.1z" fill="#fff"/><defs><path id="A" d="M250.9 84c37 0 68.5 4.1 99 8 23.9 3.1 46.6 6 71.3 7.1.9 14.9 2.6 33.1 4.5 48.1-17.3 10-27.4 30.7-27.4 57.1 0 27.9 11 49 29.8 58.1.3 47.2 2.1 86.6 2.5 96.4-1.2 8.4-2.9 16.6-5 24.5-2.2 8.1-4.9 16.2-8 23.9-3 7.4-6.5 14.7-10.5 21.7-3.7 6.7-7.9 13.3-12.5 19.7-14.2 19.8-36 39.9-64.7 59.8-10 6.9-20.8 13.5-31.9 19.4-9 4.8-18.2 9.1-27.4 13-8.5 3.6-15.3 6-19.7 7.5-4.4-1.5-11.2-3.9-19.7-7.5-9.2-3.9-18.5-8.3-27.4-13-11.2-5.9-21.9-12.5-31.9-19.4-28.7-19.9-50.5-40-64.7-59.8-4.6-6.4-8.8-13-12.5-19.7-3.9-7-7.4-14.3-10.5-21.7-3.2-7.8-5.9-15.8-8.1-24-2.1-7.9-3.8-16.2-5-24.5.5-9.8 2.2-49.2 2.5-96.4 18.8-9.1 29.8-30.2 29.8-58.1 0-26.5-10.1-47.2-27.4-57.1A781.54 781.54 0 0 0 80.5 99c24.7-1.1 47.4-4 71.3-7.1 30.5-3.8 62-7.9 99.1-7.9m0-10.1c-37.7 0-69.5 4.1-100.3 8.1-26.6 3.4-51.8 6.7-79.7 7.3-.8 18.1-3.3 45-6 63.9 15.1 5.4 28.3 21.9 28.3 51.1 0 30.1-13.7 46.5-29.7 51.2-.2 52.2-2.3 96.8-2.6 103.8 1.2 9.1 3 18.1 5.4 26.7 2.3 8.6 5.1 17 8.5 25.2 3.2 7.8 6.9 15.5 11 22.8 3.9 7 8.3 14 13.1 20.6 14.9 20.8 37.5 41.7 67.1 62.3 10.3 7.2 21.4 13.9 32.9 20 9.2 4.9 18.7 9.4 28.2 13.4 11.1 4.7 19.4 7.5 23.6 8.8 4.2-1.3 12.5-4.1 23.6-8.8 9.5-4 19-8.5 28.2-13.4 11.5-6.1 22.6-12.9 32.9-20 29.7-20.5 52.3-41.5 67.2-62.3 4.8-6.7 9.2-13.6 13.1-20.6 4.1-7.4 7.8-15.1 11-22.8 3.3-8.2 6.2-16.6 8.5-25.2s4.1-17.6 5.4-26.7c-.3-7.1-2.4-51.7-2.6-103.8-16-4.7-29.7-21-29.7-51.2 0-29.2 13.2-45.7 28.3-51.1-2.7-18.9-5.2-45.8-6-63.9-27.8-.6-53.1-3.9-79.6-7.3-30.6-4-62.4-8.1-100.1-8.1h0z"/></defs><clipPath id="B"><use xlink:href="#A"/></clipPath><path d="M52.6 65.4h396.6v502.1H52.6z" class="W Y"/><path d="M52.6 65.4h396.6v418.4H52.6z" class="W Z"/><path d="M52.6 65.4h396.6v334.7H52.6z" class="W a"/><path d="M52.6 65.4h396.6v251.1H52.6z" class="W b"/><path d="M52.6 65.4h396.6v167.4H52.6z" class="W c"/><path d="M52.6 65.4h396.6v83.7H52.6z" class="W d"/><use xlink:href="#A" fill="none" stroke="#000" class="e"/><defs><path id="C" d="M292.4 517.4c10.8-5.7 21.1-12 30.8-18.7 27.6-19.1 48.4-38.3 61.8-57 4.3-6 8.3-12.2 11.8-18.5 3.7-6.6 7-13.5 9.9-20.4 3-7.3 5.5-14.9 7.6-22.5 1.9-7.1 3.4-14.6 4.5-22.1-.5-10.9-2-46.3-2.4-89.1-16.2-10.9-29.8-31.8-29.8-64.8 0-27.5 9.7-49.8 26.6-62.9-1.2-10-2.2-20.9-3-31-21.1-1.4-41-3.9-61.8-6.6-30.1-3.9-61.2-7.9-97.5-7.9s-67.4 4-97.5 7.9c-20.8 2.7-40.7 5.3-61.8 6.6-.8 10.2-1.8 21-3 31 16.9 13.1 26.6 35.4 26.6 62.9 0 33.1-13.6 53.9-29.8 64.8-.4 42.8-1.9 78.2-2.4 89.1 1.1 7.5 2.6 14.9 4.5 22 2 7.7 4.6 15.2 7.6 22.5 2.8 6.9 6.2 13.8 9.9 20.4 3.5 6.3 7.5 12.5 11.8 18.5 13.4 18.7 34.2 37.9 61.8 57 9.6 6.7 20 13 30.8 18.7 8.6 4.6 17.5 8.8 26.4 12.6 6.1 2.5 11.2 4.5 15.1 5.9 3.9-1.4 9.1-3.3 15.1-5.9 8.9-3.6 17.8-7.9 26.4-12.5z"/></defs><clipPath id="D"><use xlink:href="#C"/></clipPath><path d="M52.6 65.4h396.6v502.1H52.6z" class="X Y"/><path d="M52.6 65.4h396.6v418.4H52.6z" class="X Z"/><path d="M52.6 65.4h396.6v334.7H52.6z" class="X a"/><path d="M52.6 65.4h396.6v251.1H52.6z" class="X b"/><path d="M52.6 65.4h396.6v167.4H52.6z" class="X c"/><path d="M52.6 65.4h396.6v83.7H52.6z" class="X d"/><g stroke="#000" class="e"><use xlink:href="#C" fill="none"/><g fill="#fff"><path d="M310.4 482c-.1-.7-.4-1.4-.9-1.9l-45.7-47.3 19.1-19.8c.6-.7 1.7-.7 2.4 0l3.5 3.4c.5.5 1.1.8 1.7.9l12.6 2.3c.4.1.7-.4.4-.7L288.1 404c-.7-.6-.7-1.7 0-2.4l17.4-18c.6-.6 1.3-.9 2.1-1a7.67 7.67 0 0 0 4.5-2.2c2.9-2.9 2.9-7.7 0-10.7-3-3.1-7.9-3-10.9 0-1.3 1.3-2 2.9-2.1 4.6-.1.8-.4 1.6-.9 2.2l-17.4 18c-.6.7-1.7.7-2.4 0L263 379.8c-.3-.3-.8 0-.7.4l2.7 12.5c.1.7.5 1.2 1 1.7l3.5 3.4c.7.6.7 1.7 0 2.4l-18.6 19.3-18.6-19.3c-.6-.7-.6-1.7 0-2.4l3.5-3.4c.5-.5.8-1.1 1-1.7l2.7-12.5c.1-.4-.4-.7-.7-.4l-15.4 14.9c-.7.6-1.7.6-2.4 0l-17.4-18c-.6-.6-.9-1.4-.9-2.2-.1-1.6-.8-3.2-2-4.5-2.8-3-7.6-3.2-10.7-.4-3.2 2.9-3.3 7.8-.3 10.9 1.3 1.3 2.9 2.1 4.5 2.3.8.1 1.6.4 2.1 1l17.4 18c.6.7.6 1.7 0 2.4l-15.4 14.9c-.3.3 0 .8.4.7l12.6-2.3c.7-.1 1.3-.4 1.7-.9l3.5-3.4c.7-.6 1.7-.6 2.4 0L238 433l-45.7 47.3c-.5.5-.8 1.2-.9 1.9l-1.8 13.3c-.1.6.4 1 1 .9l13.2-2.3c.7-.1 1.4-.5 1.9-1l45.2-46.8 45.2 46.8c.5.5 1.2.9 1.9 1l13.3 2.3c.6.1 1.1-.4 1-.9l-1.9-13.5z"/><path d="M298.7 444.6c11-6.5 17.7 2.1 23.6 11.5-10 1.5-20.2 1.2-23.6-11.5zm3.5-6.7c3-14.4 13-16.4 23.1-17.1-5.6 10.7-12.5 20.6-23.1 17.1zm14.7 3.2c10.6-7.6 17.9.2 24.5 9-9.9 2.5-20.2 3.2-24.5-9zm9.6-5.4c-3.4-13.7 4.8-21.7 13.5-28.6-.5 12.2-2.6 24.7-13.5 28.6zm7.3 1c8.7-10.8 17.7-5.8 26 .2-9.1 5.7-19 9.9-26-.2zm11.2-9c-6.8-11.3-1-21.9 5.7-31.7 2.7 11.5 4 23.9-5.7 31.7zm4.8-.4c7-12.4 16.7-9.8 26-5.9-8.3 7.7-17.5 14-26 5.9zm10.1-11.5c-8.5-9.4-4.3-21 .9-32 4.4 10.6 7.5 22.3-.9 32zm3.7-1.1c5.1-13.7 15.1-13.4 24.9-11.8-6.9 9.3-15.1 17.7-24.9 11.8zm6.6-20.3c-9.4-8.1-6.3-20.1-2.1-31.7 5.4 9.8 9.7 20.9 2.1 31.7zm1.1 4.4c3.7-14.2 13.8-15.4 23.8-15.2-6.1 10.2-13.5 19.5-23.8 15.2zm7.5-27.2c-10.8-5.1-9.9-17.5-7.9-29.7 7.2 7.8 13.4 17.2 7.9 29.7zm.4 11c-.8-14.5 8.4-20.2 18-24.8-2.7 12-6.8 23.9-18 24.8zm-.1-39.1c-11.8-1.3-13.5-13.3-14.2-25.5 8.8 5 17 11.9 14.2 25.5zm4.8 16.9c-5-12.8 2.3-22.1 10.2-30.3.9 12 .3 24.7-10.2 30.3zm-6.2-38.4c-11.5-2.9-12.1-15.1-11.8-27.5 8.2 6.3 15.7 14.2 11.8 27.5zm5.2 13.8c-7.1-11.1-1.4-21.8 5.1-31.8 2.9 11.4 4.4 23.7-5.1 31.8zM203.1 444.6c-11-6.5-17.7 2.1-23.6 11.5 9.9 1.5 20.2 1.2 23.6-11.5zm-3.6-6.7c-3-14.4-13-16.4-23.1-17.1 5.6 10.7 12.5 20.6 23.1 17.1zm-14.7 3.2c-10.6-7.6-17.9.2-24.5 9 9.9 2.5 20.2 3.2 24.5-9zm-9.6-5.4c3.4-13.7-4.8-21.7-13.5-28.6.5 12.2 2.6 24.7 13.5 28.6zm-7.3 1c-8.7-10.8-17.7-5.8-26 .2 9.1 5.7 19.1 9.9 26-.2zm-11.2-9c6.8-11.3 1-21.9-5.7-31.7-2.7 11.5-4 23.9 5.7 31.7zm-4.8-.4c-7-12.4-16.7-9.8-26-5.9 8.3 7.7 17.5 14 26 5.9zm-10-11.5c8.5-9.4 4.3-21-.9-32-4.4 10.6-7.6 22.3.9 32zm-3.8-1.1c-5.1-13.7-15.1-13.4-24.9-11.8 7 9.3 15.2 17.7 24.9 11.8zm-6.6-20.3c9.4-8.1 6.3-20.1 2.1-31.7-5.4 9.8-9.6 20.9-2.1 31.7zm-1 4.4c-3.7-14.2-13.8-15.4-23.8-15.2 6 10.2 13.4 19.5 23.8 15.2zm-7.6-27.2c10.8-5.1 9.9-17.5 7.9-29.7-7.2 7.8-13.4 17.2-7.9 29.7zm-.3 11c.8-14.5-8.4-20.2-18-24.8 2.6 12 6.8 23.9 18 24.8zm0-39.1c11.8-1.3 13.5-13.3 14.2-25.5-8.8 5-16.9 11.9-14.2 25.5zm-4.8 16.9c5-12.8-2.3-22.1-10.2-30.3-.9 12-.3 24.7 10.2 30.3zM124 322c11.5-2.9 12.1-15.1 11.8-27.5-8.2 6.3-15.6 14.2-11.8 27.5zm-5.2 13.8c7.1-11.1 1.4-21.8-5.1-31.8-2.9 11.4-4.4 23.7 5.1 31.8z" fill-rule="evenodd"/><path d="M374.3 244.1c-1.8-4-10.3-11.7-14.6-14.3s-48.8-20.3-51.4-20.4-32.4 16.8-38.2 19.3-4.6 2.7-5.9-1.4c-1.4-4.1 1.4-16.6 2.1-33.6.7-16.9-10.8-30.5-22-30.6-11.2-.2-18.7 8.9-21.5 11.2-2.7 2.3-11.6 7.6-13.3 8.4-1.6.9-1.7 3.6-1.6 5.6.2 2 5.8.4 24-1.6 18.2-1.9 14.1 17.4 12.2 25.7-1.8 8.3-9.3 17.2-9.3 17.2-1.1 1.4-1.8.4-3.4-.5-5.5-3.2-35.5-19.8-38-19.7-2.6.1-47.1 17.9-51.4 20.4-4.3 2.6-12.8 10.2-14.6 14.3-1.8 4-11.4 23.2-9.1 25s13.4-22.2 14.6-21.4c1.2.7-8.9 20.7-9 27.5s.9 11 2.9 12.6c2.1 1.6 2.1 2.9 3-1.2 1-4.1 14.8-38.9 17.2-35.9 2.3 2.9-5.1 6.1-7.2 17.5-2.1 11.5-1.9 18.8-1.9 20.3s.4 5.4 1.6-.9c1.2-6.2 10.9-36.1 13.6-34.5s-8 19.4-5.4 26.1c2.7 6.7 8.5 8.7 8.6 6.7.1-1.9 4.3-19.9 6.1-23.8s5.5-12.8 6.7-11.5-3.2 10-4.1 16.1c-1 6.1-2.2 12.6-.4 15s3.3-9.9 5.2-14.7c1.9-4.9 7.3-19.6 9.7-17.3s-2.6 7.7-4.1 13.2-1.1 12.6.6 14.1c1.7 1.6 1.8 1.5 2.3-2.3s1.6-13.5 3.4-17.1c1.8-3.5 4.4-7.6 5.7-6.6s.5 2.8-.9 5.1c-1.3 2.3-6.7 18.2-5.2 21.2s2.7 7.7 3 2.3c.4-5.4 6.7-15.7 10-18.3s9.5-9.3 10.6-6.9c1.1 2.3-6.8 6.6-10 11.1s-7.1 14-6.2 18.3.4 1.7 4.5-4.1 18.9-23.2 20.3-19.9c1.5 3.3-17.5 26.3-18.6 27.3s-5.1 4.9 1 1.2 12.8-9.5 15.3-13.4c2.6-3.9 6.3-11.9 7.3-11.6 1 .4-11 22.3-14.2 25.7s-6.3 6.5-4.4 6.9 8.7 3.1 17.8-9.2 7.8-16 9.7-15c1.8 1-7.3 16.4-8.1 18.2s-1.6 5.4 2.1 2.6c3.6-2.8 7.2-12.5 7.8-11.5s-2.6 16.5-2.6 19.1.7 6.7 1.1 7.9 1.4 2.3 1.5 3.5-.2 5.3-.6 5.7-6.2 9.5-8 13.2-3.6 9.4-3.9 10.8-1.2 3.9-.3 4.2c1 .4 2.8-2 6.3-.2 3.6 1.8 3.3 3.7 3.4 4.6s1.3 2.4 2.5.2c1.1-2.1 1.6-3.3 3.8-3.3s3.7 3.8 5.2 3.7 1.2-2.6 1.4-4c.1-1.3 0-14.2-1.6-19s-4.2-8.7-4.2-9.9c.1-1.1 7.5-18 8.7-18.1s7.3 15.1 8.9 15.1 7.7-15.1 8.9-15.1 8.6 17 8.7 18.1-2.6 5.1-4.2 9.9-1.7 17.7-1.6 19-.1 3.8 1.4 4c1.5.1 3-3.7 5.2-3.7s2.6 1.1 3.8 3.3c1.1 2.1 2.3.6 2.5-.2.1-.9-.1-2.8 3.4-4.6 3.6-1.8 5.4.6 6.3.2 1-.4 0-2.9-.3-4.2s-2.1-7.1-3.9-10.8-7.6-12.8-8-13.2-.7-4.5-.6-5.7c0-1.2 1.1-2.2 1.5-3.5.4-1.2 1.1-5.3 1.1-7.9s-3.3-18.1-2.6-19.1c.6-1 4.2 8.7 7.8 11.5s2.9-.7 2.1-2.6c-.8-1.8-9.9-17.2-8.1-18.2s.5 2.7 9.7 15c9.1 12.3 15.9 9.7 17.8 9.2s-1.2-3.6-4.4-6.9c-3.2-3.4-15.2-25.3-14.2-25.7s4.7 7.7 7.3 11.6 9.2 9.7 15.3 13.4 2.1-.2 1-1.2-20.1-24-18.6-27.3 16.2 14 20.3 19.9c4.1 5.8 3.6 8.4 4.5 4.1s-3-13.8-6.2-18.3-11.1-8.8-10-11.1 7.3 4.4 10.6 6.9c3.3 2.6 9.6 12.9 10 18.3s1.6.7 3-2.3-3.9-18.9-5.2-21.2-2.2-4.1-.9-5.1 3.9 3 5.7 6.6c1.8 3.5 2.9 13.3 3.4 17.1s.6 3.9 2.3 2.3 2.2-8.7.6-14.1c-1.6-5.5-6.6-10.8-4.1-13.2 2.4-2.3 7.8 12.4 9.7 17.3s3.4 17.2 5.2 14.7c1.8-2.4.6-8.9-.4-15s-5.4-14.7-4.1-16.1c1.2-1.3 4.9 7.6 6.7 11.5s6 21.8 6.1 23.8c.1 1.9 6 0 8.6-6.7 2.7-6.7-8-24.5-5.4-26.1 2.7-1.6 12.4 28.3 13.6 34.5s1.6 2.4 1.6.9.1-8.9-1.9-20.3c-2.1-11.5-9.5-14.6-7.2-17.5s16.2 31.8 17.2 35.9 1 2.8 3 1.2 3-5.7 2.9-12.6-10.2-26.8-9-27.5 12.3 23.3 14.6 21.4c2.4-1.9-7.2-21-9-25zm-239.4-91.4h0l-6.5 2.6h0c-.2.1-.5.1-.7 0h0 0c-.2-.1-.4-.3-.5-.5h0l-8.2-20.4h0c-.1-.2-.1-.5 0-.7h0 0c.1-.2.3-.4.5-.5h0l17.1-6.9h0c.2-.1.5-.1.7 0h0 0c.2.1.4.3.5.5h0l2 5.1h0c.1.2.1.5 0 .7h0 0c-.1.2-.3.4-.5.5h0l-9.8 4 5.8 14.4h0c.1.2.1.5 0 .7h0 0c0 .2-.2.4-.4.5zm20.6-5.5h0l-5.9 1.6h0c-.2.1-.5 0-.7-.1h0 0c-.2-.1-.4-.3-.4-.6h0l-1.4-5.3h0c-.1-.2 0-.5.1-.7h0 0c.1-.2.3-.4.6-.4h0l4.6-1.2h0c1.2-.3 1.9-.6 2-.8h0l-11-12.8h0c0-.1-.1-.1-.1-.2h0 0c-.1-.5.2-.9.6-1h0l7.2-1.9h0c.5-.1.9 0 1.3.5h0l6 7.6.9-9.5h0c.1-.6.4-.9.9-1.1h0l6.8-1.8h0c.2-.1.4 0 .6.1h0 0a.78.78 0 0 1 .4.4h0 0c0 .2.1.3.1.3h0l-1.8 12.8h0l-.9 5.4h0 0c-.3 1.1-.7 2.3-1.5 3.6h0 0a7.23 7.23 0 0 1-3 3h0 0c-1.5.9-3.2 1.5-5.4 2.1zm26.8-19.9h0l.6 5.4h0c.1.9.5 1.6 1.2 2h0 0c.7.4 1.5.6 2.5.5h0 0c1-.1 1.7-.3 2.1-.7h0 0c.4-.4.7-.9 1-1.5h0 0c.2-.6.6-1 1.1-1h0l7.3-.8h0c.2 0 .4 0 .5.2h0 0a.55.55 0 0 1 .3.5h0 0c.2 2.1-.6 4.1-2.4 6.1h0 0c-.9 1-2.1 1.8-3.7 2.5h0 0c-1.6.7-3.5 1.2-5.7 1.4h0 0c-2.2.2-4.3.1-6.2-.4h0 0c-1.9-.5-3.5-1.5-4.8-2.9h0 0c-1.3-1.4-2.1-3.3-2.3-5.6h0l-.4-4h0c-.2-2.3.1-4.3 1.1-6h0 0c1.8-3.2 5.3-5 10.4-5.6h0 0c2-.2 3.9-.2 5.6.2h0 0c1.7.4 3.1.9 4.2 1.7h0 0c2.2 1.5 3.4 3.3 3.6 5.4h0 0c0 .2 0 .4-.2.5h0 0a.55.55 0 0 1-.5.3h0l-7.3.8h0c-.5.1-.9-.2-1.3-.8h0 0c-.4-.6-.8-1-1.3-1.3h0 0c-.5-.3-1.2-.3-2.2-.2h0 0c-1 .1-1.8.4-2.4 1h0 0c-.7.7-.9 1.4-.8 2.3zm23.4 13.2h0 0c-.2 0-.5-.1-.7-.2h0 0c-.2-.2-.3-.4-.3-.6h0l-.2-5.4h0c0-.2.1-.5.2-.7h0 0c.2-.2.4-.3.6-.3h0 0c.9 0 1.6-.3 1.9-.7h0 0c.3-.4.5-1.1.5-2h0l-.6-13.3h0c0-.2.1-.5.2-.7h0 0c.2-.2.4-.3.6-.3h0l19.3-.9h0c.2 0 .5.1.7.2h0 0c.2.2.3.4.3.6h0l1 21.9h0c0 .2-.1.5-.2.7h0 0c-.2.2-.4.3-.6.3h0l-6.3.3h0c-.2 0-.5-.1-.7-.2h0 0c-.2-.2-.3-.4-.3-.6h0l-.7-15.6-4.8.2.3 6.8h0c.2 3.4-.7 5.9-2.5 7.6h0 0c-1.8 1.8-4.4 2.7-7.7 2.9zm30-17.8h0 0c.1-2.5 1-4.5 2.9-5.9h0 0c1.8-1.4 4.3-2.1 7.4-2h0l13.2.3h0c.2 0 .5.1.6.3h0 0c.2.2.3.4.3.7h0l-.5 22h0c0 .2-.1.5-.3.6h0 0c-.2.2-.4.3-.7.3h0l-7.3-.2h0c-.2 0-.5-.1-.6-.3h0 0c-.2-.2-.3-.4-.3-.7h0l.2-6.7-2.9-.1-3.2 6.7h0c-.3.6-.8.8-1.4.8h0l-7.7-.2h0c-.2 0-.4-.1-.5-.2h0 0c-.1-.2-.2-.3-.2-.5h0 0c0-.2 0-.3.1-.4h0l4.4-7.7h0c-2.5-1.5-3.6-3.7-3.5-6.8zm10.7 2l4.2.1.1-3.6-4.2-.1h0c-.5 0-.9.2-1.2.5h0 0c-.3.4-.4.8-.4 1.3h0 0c0 .5.1.9.4 1.3h0 0c.3.3.6.5 1.1.5h0zm36.8-8.2h0l7 .5h0c.2 0 .5.1.6.3h0 0c.2.2.2.4.2.7h0l-1.7 21.9h0c0 .2-.1.5-.3.6h0 0c-.2.2-.4.2-.7.2h0l-7-.5h0c-.2 0-.5-.1-.6-.3h0 0c-.2-.2-.2-.4-.2-.7h0l.5-7.2-6.8-.5-.5 7.2h0c0 .2-.1.5-.3.6h0 0c-.2.2-.4.2-.7.2h0l-7-.5h0c-.2 0-.5-.1-.6-.3h0 0c-.2-.2-.2-.4-.2-.7h0l1.7-21.9h0c0-.2.1-.5.3-.6h0 0c.2-.2.4-.2.7-.2h0l7 .5h0c.2 0 .5.1.6.3h0 0c.2.2.2.4.2.7h0l-.5 7 6.8.5.5-7h0c0-.2.1-.5.3-.6h0 0c.2-.1.5-.2.7-.2zm18.2 1.2h0l17.8 2.4h0c.2 0 .4.2.6.4h0 0c.2.2.2.4.2.7h0l-2 15.4 1.7.2h0c.2 0 .4.2.6.4h0 0c.2.2.2.4.2.7h0l-1.3 9.6h0c0 .2-.2.4-.4.6h0 0c-.2.2-.4.2-.7.2h0l-5.5-.7h0c-.2 0-.4-.2-.6-.4h0 0c-.2-.2-.2-.4-.2-.7h0l.4-3.3-11.5-1.5-.4 3.3h0c0 .2-.2.4-.4.6h0 0c-.2.2-.4.2-.7.2h0l-5.4-.7h0c-.2 0-.4-.1-.6-.3h0 0c-.2-.2-.2.3-.2 0h0l1.3-10.3h0c0-.2.2-.4.4-.6h0 0c.2-.2.4-.2.7-.2h0l.5.1h0c.5.1 1.1-.1 1.7-.5h0 0c.6-.4.9-1 1-1.8h0l1.7-12.8h0c0-.2.2-.4.4-.6h0 0c.2-.4.4-.5.7-.4zm8.4 17.7l1.3-9.4-3.4-.5-.9 6.9h0c-.2 1.3-.4 2.1-.6 2.5h0l3.6.5zm21-12.4h0l6.1 1.5h0c.2.1.4.2.6.4h0 0c.1.2.2.5.1.7h0l-2.4 9.7 9.6-8.2h0c.4-.4.9-.5 1.4-.3h0l5.3 1.3h0c.2.1.4.2.6.4h0 0c.1.2.2.5.1.7h0l-5.3 21.3h0c-.1.2-.2.4-.4.6h0 0c-.2.1-.4.2-.7.1h0l-6.1-1.5h0c-.2-.1-.4-.2-.6-.4h0 0c-.1-.2-.2-.5-.1-.7h0l2.2-9-9.5 7.4h0c-.5.4-1 .5-1.5.4h0l-5.3-1.3h0c-.2-.1-.4-.2-.6-.4h0 0c-.1-.2-.2-.5-.1-.7h0l5.3-21.3h0c.1-.2.2-.4.4-.6h0 0c.5-.1.7-.1.9-.1zm26.7 15.7h0 0c1-2.3 2.6-3.8 4.8-4.5h0 0c2.2-.7 4.8-.4 7.6.8h0l12.2 5.1h0c.2.1.4.3.5.5h0 0c.1.2.1.5 0 .7h0l-8.4 20.3h0c-.1.2-.3.4-.5.5h0 0c-.2.1-.5.1-.7 0h0l-6.8-2.8h0c-.2-.1-.4-.3-.5-.5h0 0c-.1-.2-.1-.5 0-.7h0l2.6-6.2-2.6-1.1-5.3 5.1h0c-.5.4-1 .5-1.6.2h0l-7.1-2.3h0a.78.78 0 0 1-.4-.4h0 0c-.1-.2-.1-.4 0-.5h0 0c.1-.1.1-.3.2-.3h0l6.9-6.3h0c-1.8-2.3-2-4.8-.9-7.6zm9.4 5.7l3.9 1.6 1.4-3.3-3.9-1.6h0c-.5-.2-.9-.2-1.3.1h0 0c-.4.2-.7.6-.9 1.1h0 0c-.2.5-.2.9-.1 1.3h0 0c.1.3.4.6.9.8h0z"/></g></g></g></svg>