<svg class="osis" xmlns="http://www.w3.org/2000/svg" x="0px" y="0px" viewBox="0 0 800 300">
    <symbol id="osis" viewBox="0 0 800 300">
        <polygon points="512.5,275 662.5,275 662.5,125"/>
        <polygon points="762.5,25 612.5,25 612.5,175"/>
        <polygon points="457.5,100 507.5,100 457.5,275"/>
        <polygon points="457.5,75 507.5,75 507.5,25"/>
        <polygon points="197.5,275 347.5,275 347.5,125"/>
        <polygon points="447.5,25 297.5,25 297.5,175"/>
        <polygon points="37.5,25 237.5,25 137.5,275"/>
    </symbol>
    <symbol id="copy" viewBox="0 0 128 128">
        <g transform="translate(0 -925) matrix(1 0 0 1 -100 571)">
            <path d="m134.94 354c-3.324 0-6 2.676-6 6v96c0 3.324 2.676 6 6 6h82c3.324 0 6-2.676 6-6v-62h-40c-3.324 0-6-2.676-6-6v-34h-42z"/>
            <path d="m113.66 374.22c-3.324 0-6 2.676-6 6v96c0 3.324 2.676 6 6 6h82c3.324 0 6-2.676 6-6v-7h-73c-3.324 0-6-2.676-6-6v-89h-9z"/>
            <path d="m180.94 354v30c0 3.324 2.676 6 6 6h36z"/>
        </g>
    </symbol>
</svg>