<?xml version="1.0" encoding="utf-8"?>
<svg version="1.1" id="Слой_2" xmlns="http://www.w3.org/2000/svg" xmlns:xlink="http://www.w3.org/1999/xlink" x="0px" y="0px"
	 viewBox="0 0 1000 1000" style="enable-background:new 0 0 1000 1000;" xml:space="preserve">
<style type="text/css">
	.st0{fill:#FECE84;}
	.st1{fill:#CE8E34;}
	.st2{fill:#FF9D14;}
	.st3{fill:#FBAD40;}
	.st4{fill:#3BA8E3;}
</style>
<g>
	<circle class="st0" cx="485" cy="510" r="325"/>
	<circle cx="291.6" cy="523.8" r="42.5"/>
	<circle cx="652.6" cy="539.1" r="42.5"/>
	<path class="st1" d="M249.8,386.1c0,0-0.1-20.4,27-23.6c25.7-3,57.1,24.9,45.5,45.2C310.7,428,248.2,432.3,249.8,386.1z"/>
	<path class="st1" d="M690,410.2c-4.8-11.6-15.9-24.1-41.3-20.2c-25.6,3.9-37.3,23.4-26.3,44C640.6,468.2,696.8,434.5,690,410.2z"/>
	<path class="st1" d="M560.6,577c-8.3,6.9-27.9,26.3-85.6,24.3s-79.5-34.4-83.1-39c-3.6-4.7-5.7-8.5,3.6-8.5s173.9-11.7,174.3-2
		C570.3,561.4,567.6,571.1,560.6,577z"/>
	<path class="st2" d="M443.3,506.2c-10.4,5.6-39.2,22.2-45.9,29.7c-6.7,7.5-16.6,17.3-7.7,23.1c8.9,5.8,177.7,10.1,180.2-3.5
		c2.6-13.6-19.3-23.1-25.1-26.3s-49.8-26.7-56.2-27.7C482.1,500.5,457.1,498.8,443.3,506.2z"/>
	<path class="st3" d="M445.7,470c12.3,4.3,30.9-20.2,17.8-29.5c-13.1-9.3-25.3,1.8-26.1,10.3S435.8,466.5,445.7,470z"/>
	<path class="st3" d="M495.5,467.5c4.7,5.9,2,22.4-7.9,22.2c-9.9-0.2-21.8-10.9-11.7-22.2C486,456.2,495.5,467.5,495.5,467.5z"/>
	<path class="st3" d="M190.5,567.7c-23.1,81.7,65.6,192.4,150.3,204.8c2.7-11.9,4.1-24.2,4.1-36.9
		C345,647.4,278.1,575.2,190.5,567.7z"/>
	<path class="st3" d="M777.6,576.1c-6.4-0.7-12.8-1.1-19.4-1.1c-94,0-170.2,75.9-170.2,169.5c0,15.5,2.1,30.5,6,44.7
		C694.8,800.7,784.8,682.5,777.6,576.1z"/>
</g>
<g>
	<circle class="st4" cx="891.4" cy="257.7" r="47.5"/>
	<circle class="st4" cx="235.5" cy="933.6" r="57.5"/>
	<path class="st4" d="M487.7,85.7c-230.9,0-418,187.1-418,418s187.1,418,418,418s418-187.1,418-418S718.5,85.7,487.7,85.7z M485,810
		c-165.7,0-300-134.3-300-300s134.3-300,300-300s300,134.3,300,300S650.7,810,485,810z"/>
</g>
<g>
	<path class="st0" d="M404.3,121.4c0,0-46-63.7-67.3-53.4c-20.6,10-45.7,42.1,3.6,82.9s61.9,53,74.4,48.1s12.1-26.3,10.1-35.8
		C423.5,155.1,417.8,140.6,404.3,121.4z"/>
	<path class="st0" d="M511.1,156.6c2.7-12.5,14.6-50,35.6-75.9c21.2-26.1,72.3-45.8,96.5-44.8c24.3,1.1,46.4,17.7,38.8,49.8
		c-7.6,32.1-122.7,85.5-130,90.4c-7.3,4.9-24.5,15.6-32.9,11.1C509.7,182.1,508,171.2,511.1,156.6z"/>
</g>
</svg>
