<svg xmlns="http://www.w3.org/2000/svg" viewBox="0 0 1000 1000"><style><![CDATA[.E{stroke:#000}.F{stroke-width:4}.G{stroke-miterlimit:10}]]></style><path d="M463.6 822.8s-3.8 16.7-15.6 24.3c-11.9 7.6-27.6 16.2-32.5 19.4s-63.7 20.4-68.2 23.1-21.6 10.5-34.4 11.9c-12.7 1.4-24.5 5.7-25.3 10.9s58.2.2 50.2 16.6-16.4 22.2-5.9 20 53.6-22.2 89.6-22.2 70.8-4.4 75.6-8.5-12.2-6.3-12.2-12 17.3-41.6 20.7-48c3.4-6.5 6.5-28.1 6.5-28.1l-48.5-7.4zm121.9 22.6s7 19.4 0 33.4-38.8 42.3-55.6 51.8c-16.7 9.4-25.1 17.8-12.9 15.6 12.1-2.2 45.6-5.5 54.5.3 8.9 5.9 28.3 27.4 33.7 28.8 5.4 1.3 36.1-31.6 40.4-34s24.5-15.1 39.9-14.3 49.6 10 57.7 10.5 14.6.8 8.1-4.6-103.3-49.9-107.6-55-9.4-12.7-9.4-18.9-4.9-17.8-10.8-16.2c-5.9 1.8-38 2.6-38 2.6z" fill="#ff7f00" class="E F G"/><path d="M377.1 903.1c8.7 3.5 18.1 5.3 27.5 5.2 1.9 0 1.9-3 0-3-9.2.1-18.2-1.6-26.7-5.1-1.8-.7-2.6 2.2-.8 2.9h0zm225.6 11.6l25.6-3.7c7.7-1.1 16.1-1.5 23-5.6 1.7-1 .2-3.6-1.5-2.6-3.3 1.9-7 2.9-10.7 3.6-4 .7-8 1.2-12 1.8l-25.1 3.6c-2 .2-1.2 3.1.7 2.9h0z"/><path d="M573.7 86.4c-.1 0-.1-.1 0 0-1.1-1.1-19.5-18.7-25.1-27-5.3-7.7-24.5-23.5-58-22.7-33.4.8-66.8 34.7-72.8 55.3-2.4 8.2-3 26-3.1 28.6 0 .2 0 .4.2.6 3.4 5.9 56.9 99.6 54.7 106.2-2.3 6.8-96.5 244.3-105.7 293.9l-9.3 48.4c-.1.4-.4.7-.8.9-3.7 1.2-22.7 7.9-33 22.5-11.3 16.2-24.7 50.6-15.4 72.8 8.4 20.1 18.1 26.3 19.9 27.3.2.1 1.2 11.2 6.1 25 8.9 25.3 64.2 111.7 191.5 132.7C654 872.4 689 814.7 711.2 795.3c22.1-19.4 83.6-71.5 80.4-103.3s-11.1-31.3-11.3-49.1c-.3-17.8-11.2-23.2-11.2-28s20.2-33.2 18.6-55.8c-1.6-22.7-11.5-33.4-16-37.5-3.9-3.5-17.4-3.8-21.1-3.8-.6 0-1.1-.4-1.2-1-1.3-6.3-8.9-41.1-21.7-46.2-14-5.7-26.4-23.5-46.7 2.7-14.6 18.9-19 28.1-20.2 31.7-.3.8-1.3 1.1-2 .5-3.1-3-10.8-9.3-16.6-5.5-7.6 4.9-15.9 17.5-17.5 25.6s-.8 19.4-4 20.8c-3.2 1.3-11.9 5.1-14.6 4.6s-36.7-23.8-46.4-51-19.7-68.8-20.2-102.5 25.6-170.7 30.5-180.4 13.6-20 25.9-32.6c18.3-18.9 14.7-44.1 7.8-57-6.8-12.7-28.9-39.8-30-41.1z" fill="#fff" class="E F G"/><path d="M353.4 570.4l-.1 19.3-.2 18.9c.2 12.5 1.1 25 4 37.1 1.6 6.7 3.9 13.6 2.1 20.4-.5 1.9 2.4 2.7 2.9.8 1.6-6.1.3-12.4-1.2-18.4-1.5-6.1-2.7-12.1-3.5-18.3-1.5-12.5-1.4-25.2-1.2-37.8.2-7.4 0-14.8.2-22.2.1-1.7-2.9-1.7-3 .2h0z"/><path d="M353.7 585.5c-9.3 11.2-15.3 24.7-19.2 38.7-2 7.1-3.5 14.3-4.8 21.5l-4.5 23.1c-1.6 8.3-2.4 16.6-1 25 .3 1.9 3.2 1.1 2.9-.8-1.2-7.2-.6-14.5.7-21.7l4.4-22.5c2.4-13.9 5.5-27.9 11.2-40.9 3.2-7.3 7.3-14.1 12.4-20.3 1.2-1.5-.9-3.6-2.1-2.1h0zm306.5-82.7c-1.9 7.8-4.3 15.4-6.3 23.2-.5 1.9 2.4 2.7 2.9.8 1.9-7.8 4.3-15.4 6.3-23.2.4-1.8-2.5-2.6-2.9-.8h0zm88.7 14.4c-5.9 3.4-11.1 8.2-14 14.4-.3.7-.2 1.6.5 2.1.7.4 1.7.2 2.1-.5 2.7-5.8 7.4-10.2 12.9-13.3 1.6-1.1.1-3.7-1.5-2.7h0z"/><path d="M612 549.8c-18.6 8.4-89.2 56.3-85.7 135.1 3.5 79.6 44.9 76 59.5 76s54.6-9.3 101.9-82.9 51.4-94.2 53-105.6c1.6-11.3.8-25.9-6.5-27.1s-34 14.6-34 14.6-8.9-32.8-88.2-10.1z" fill="none" class="E F G"/><path d="M697.9 560.2c-7.4 4.2-14.3 9.1-20.4 14.9-7 6.7-13 14.3-19 21.9-1.2 1.5.9 3.6 2.1 2.1 5.9-7.5 11.8-15 18.7-21.6 6.1-5.8 12.8-10.6 20.1-14.8 1.7-.9.1-3.5-1.5-2.5h0zM491.7 123.8s6.2 15 13.3 9.3 1.8-22-2.7-24.9-17.5-.8-10.6 15.6z"/><path d="M465.2 119.8s-17.8-22.2-31.6-22.2-34.4 15.8-45.3 34.4-7.7 24.7-10.9 25.9-34.4 17.4-35.6 41.3 50.6 32 91 30.7 63.1-4 71.6-18.2 3.2-25.3-1.5-30.2-16.7-21.7-16.7-27.9c.1-6.3-21-33.8-21-33.8z" fill="#fb0" class="E F G"/><path d="M429.9 139.6c-2.7 2.9-3 6.8-3.1 10.5a1.54 1.54 0 0 0 1.5 1.5 1.54 1.54 0 0 0 1.5-1.5c0-1.7.1-3.3.4-4.8.3-1.4.8-2.6 1.7-3.6.5-.6.6-1.6 0-2.1-.4-.5-1.4-.6-2 0h0z"/></svg>