<svg xmlns="http://www.w3.org/2000/svg" viewBox="0 0 1000 1000"><circle cx="485" cy="510" r="325" fill="#fc8"/><circle cx="291.6" cy="523.8" r="42.5"/><circle cx="652.6" cy="539.1" r="42.5"/><path fill="#c83" d="M249.8 386.1s-.1-20.4 27-23.6c25.7-3 57.1 24.9 45.5 45.2s-74.1 24.6-72.5-21.6M690 410.2c-4.8-11.6-15.9-24.1-41.3-20.2-25.6 3.9-37.3 23.4-26.3 44 18.2 34.2 74.4.5 67.6-23.8M560.6 577c-8.3 6.9-27.9 26.3-85.6 24.3s-79.5-34.4-83.1-39c-3.6-4.7-5.7-8.5 3.6-8.5s173.9-11.7 174.3-2c.5 9.6-2.2 19.3-9.2 25.2"/><path fill="#f91" d="M443.3 506.2c-10.4 5.6-39.2 22.2-45.9 29.7s-16.6 17.3-7.7 23.1 177.7 10.1 180.2-3.5c2.6-13.6-19.3-23.1-25.1-26.3s-49.8-26.7-56.2-27.7c-6.5-1-31.5-2.7-45.3 4.7"/><path fill="#fa4" d="M445.7 470c12.3 4.3 30.9-20.2 17.8-29.5s-25.3 1.8-26.1 10.3-1.6 15.7 8.3 19.2m49.8-2.5c4.7 5.9 2 22.4-7.9 22.2s-21.8-10.9-11.7-22.2 19.6 0 19.6 0m-305 100.2c-23.1 81.7 65.6 192.4 150.3 204.8 2.7-11.9 4.1-24.2 4.1-36.9.1-88.2-66.8-160.4-154.4-167.9m587.1 8.4c-6.4-.7-12.8-1.1-19.4-1.1-94 0-170.2 75.9-170.2 169.5 0 15.5 2.1 30.5 6 44.7 100.8 11.5 190.8-106.7 183.6-213.1"/><g fill="#3ae"><circle cx="891.4" cy="257.7" r="47.5"/><circle cx="235.5" cy="933.6" r="57.5"/><path d="M487.7 85.7c-230.9 0-418 187.1-418 418s187.1 418 418 418 418-187.1 418-418-187.2-418-418-418M485 810c-165.7 0-300-134.3-300-300s134.3-300 300-300 300 134.3 300 300-134.3 300-300 300"/></g><path fill="#fc8" d="M404.3 121.4S358.3 57.7 337 68c-20.6 10-45.7 42.1 3.6 82.9s61.9 53 74.4 48.1 12.1-26.3 10.1-35.8c-1.6-8.1-7.3-22.6-20.8-41.8m106.8 35.2c2.7-12.5 14.6-50 35.6-75.9 21.2-26.1 72.3-45.8 96.5-44.8 24.3 1.1 46.4 17.7 38.8 49.8s-122.7 85.5-130 90.4-24.5 15.6-32.9 11.1c-9.4-5.1-11.1-16-8-30.6"/></svg>