<?xml version="1.0" encoding="utf-8"?>
<svg xmlns="http://www.w3.org/2000/svg" xmlns:xlink="http://www.w3.org/1999/xlink"
	 viewBox="0 0 3000 1500">
<style type="text/css">
	.st0{fill:#FFFFFF;}
	.st1{fill:#DD1C24;}
	.st2{fill-rule:evenodd;clip-rule:evenodd;fill:#FFFFFF;}
</style>
<rect class="st0" width="3000" height="1500"/>
<g>
	<rect x="600" class="st1" width="300" height="1500"/>
	<rect y="600" class="st1" width="3000" height="300"/>
</g>
<g transform="matrix(1.185,0,0,1.185,452.725,375)">
	<g>
		<path class="st0" d="M250.9,65.8c-38.2,0-70.3,4.1-101.3,8.1c-26.4,3.4-51.4,6.6-78.8,7.3c-4.4,0.1-8,3.6-8.2,8.1
			c-0.8,17.9-3.2,44.4-5.9,63c-0.6,4,1.7,7.8,5.5,9.1c14.2,5.1,22.7,21.2,22.7,43.1c0,22.6-8.8,38.6-23.6,43c-3.6,1.1-6,4.3-6.1,8.1
			c-0.2,51.5-2.2,95.1-2.6,103.3c0,0.5,0,1,0.1,1.6c1.3,9.4,3.2,18.7,5.6,27.7c2.4,8.9,5.3,17.7,8.8,26.2
			c3.3,8.1,7.2,16.1,11.5,23.7c4.1,7.3,8.7,14.5,13.6,21.4c15.4,21.5,38.7,43.1,69.2,64.2c10.6,7.3,22,14.2,33.8,20.5
			c9.4,5,19.2,9.6,28.9,13.7c11.6,4.9,20.2,7.8,24.4,9.1c0.8,0.3,1.7,0.4,2.5,0.4c0.9,0,1.7-0.1,2.5-0.4c4.1-1.3,12.8-4.2,24.4-9.1
			c9.7-4.1,19.5-8.7,28.9-13.7c11.8-6.3,23.2-13.2,33.8-20.5c30.5-21.1,53.8-42.7,69.2-64.2c5-6.9,9.5-14.1,13.6-21.4
			c4.3-7.7,8.1-15.7,11.5-23.7c3.5-8.5,6.4-17.3,8.8-26.2c2.4-9,4.3-18.3,5.6-27.7c0.1-0.5,0.1-1,0.1-1.6
			c-0.4-8.2-2.4-51.8-2.6-103.3c0-3.7-2.5-7-6.1-8.1c-14.8-4.3-23.6-20.4-23.6-43c0-21.9,8.5-38,22.7-43.1c3.8-1.3,6.1-5.2,5.5-9.1
			c-2.6-18.6-5.1-45.1-5.9-63c-0.2-4.4-3.8-8-8.2-8.1c-27.4-0.6-52.3-3.8-78.7-7.3C321.2,69.9,289.1,65.8,250.9,65.8z"/>
		<path class="st1" d="M292.4,517.1c10.8-5.7,21.1-12,30.8-18.7c27.6-19.1,48.4-38.2,61.8-56.9c4.3-6,8.3-12.2,11.8-18.5
			c3.7-6.6,7-13.5,9.9-20.4c3-7.3,5.5-14.9,7.6-22.5c1.9-7.1,3.4-14.5,4.5-22c-0.5-10.9-2-46.2-2.4-89
			c-16.2-10.9-29.8-31.7-29.8-64.7c0-27.4,9.7-49.7,26.6-62.8c-1.2-10-2.2-20.8-3-31c-21.1-1.4-41-3.9-61.8-6.6
			c-30.1-3.9-61.2-7.9-97.5-7.9c-36.3,0-67.4,4-97.5,7.9c-20.8,2.7-40.7,5.2-61.8,6.6c-0.8,10.1-1.8,21-3,31
			c16.9,13.1,26.6,35.4,26.6,62.8c0,33-13.6,53.8-29.8,64.7c-0.4,42.7-1.9,78-2.4,89c1.1,7.5,2.6,14.9,4.5,22
			c2,7.6,4.6,15.2,7.6,22.5c2.8,6.9,6.2,13.8,9.9,20.4c3.5,6.3,7.5,12.5,11.8,18.5c13.4,18.7,34.2,37.8,61.8,56.9
			c9.6,6.7,20,12.9,30.8,18.7c8.6,4.6,17.5,8.8,26.4,12.5c6.1,2.5,11.2,4.5,15.1,5.9c3.9-1.4,9.1-3.3,15.1-5.9
			C274.9,525.9,283.8,521.7,292.4,517.1z"/>
		<path class="st1" d="M250.9,84.4c37,0,68.5,4.1,99,8c23.9,3.1,46.6,6,71.3,7.1c0.9,14.9,2.6,33,4.5,48
			c-17.3,9.9-27.4,30.6-27.4,57c0,27.9,11,49,29.8,58c0.3,47.1,2.1,86.4,2.5,96.2c-1.2,8.3-2.9,16.6-5,24.5
			c-2.2,8.1-4.9,16.1-8,23.9c-3,7.4-6.5,14.7-10.5,21.7c-3.7,6.7-7.9,13.3-12.5,19.6c-14.2,19.8-36,39.9-64.7,59.7
			c-10,6.9-20.8,13.4-31.9,19.4c-9,4.8-18.2,9.1-27.4,13c-8.5,3.6-15.3,6-19.7,7.5c-4.4-1.5-11.2-3.9-19.7-7.5
			c-9.2-3.9-18.5-8.2-27.4-13c-11.2-5.9-21.9-12.4-31.9-19.4c-28.7-19.9-50.5-39.9-64.7-59.7c-4.6-6.4-8.8-13-12.5-19.6
			c-3.9-7-7.4-14.3-10.5-21.7c-3.2-7.7-5.9-15.8-8.1-23.9c-2.1-7.9-3.8-16.2-5-24.5c0.5-9.8,2.2-49.1,2.5-96.2
			c18.8-9.1,29.8-30.2,29.8-58c0-26.4-10.1-47.1-27.4-57c1.9-15,3.6-33.1,4.5-48c24.7-1.1,47.4-4,71.3-7.1
			C182.3,88.4,213.8,84.4,250.9,84.4 M250.9,74.2c-37.7,0-69.5,4.1-100.3,8.1C124,85.7,98.8,89,70.9,89.6c-0.8,18.1-3.3,44.9-6,63.8
			c15.1,5.4,28.3,21.8,28.3,51c0,30.1-13.7,46.4-29.7,51.1c-0.2,52.1-2.3,96.6-2.6,103.6c1.2,9.1,3,18,5.4,26.6
			c2.3,8.5,5.1,17,8.5,25.1c3.2,7.8,6.9,15.4,11,22.8c3.9,7,8.3,13.9,13.1,20.6c14.9,20.7,37.5,41.6,67.1,62.2
			c10.3,7.1,21.4,13.9,32.9,20c9.2,4.9,18.7,9.4,28.2,13.4c11.1,4.7,19.4,7.5,23.6,8.8c4.2-1.3,12.5-4.1,23.6-8.8
			c9.5-4,19-8.5,28.2-13.4c11.5-6.1,22.6-12.8,32.9-20c29.7-20.5,52.3-41.4,67.2-62.2c4.8-6.7,9.2-13.6,13.1-20.6
			c4.1-7.4,7.8-15,11-22.8c3.3-8.2,6.2-16.6,8.5-25.1c2.3-8.6,4.1-17.6,5.4-26.7c-0.3-7.1-2.4-51.6-2.6-103.6
			c-16-4.7-29.7-21-29.7-51.1c0-29.2,13.2-45.6,28.3-51c-2.7-18.9-5.2-45.7-6-63.8c-27.8-0.6-53.1-3.9-79.6-7.3
			C320.4,78.3,288.6,74.2,250.9,74.2L250.9,74.2z"/>
	</g>
	<g>
		<g>
			<path class="st0" d="M221,394.4l-17.4-18c-0.6-0.6-0.9-1.4-0.9-2.2c-0.1-1.6-0.8-3.2-2-4.5c-2.8-3-7.6-3.2-10.7-0.4
				c-3.2,2.9-3.3,7.8-0.3,10.9c1.3,1.3,2.9,2.1,4.5,2.3c0.8,0.1,1.6,0.4,2.1,1l17.4,18c0.6,0.7,0.6,1.7,0,2.4l-15.4,14.9
				c-0.3,0.3,0,0.8,0.4,0.7l12.6-2.3c0.7-0.1,1.3-0.4,1.7-0.9l3.5-3.4c0.7-0.6,1.7-0.6,2.4,0l77.2,79.9c0.5,0.5,1.2,0.9,1.9,1
				l13.3,2.3c0.6,0.1,1.1-0.4,1-0.9l-1.8-13.3c-0.1-0.7-0.4-1.4-0.9-1.9L232.2,400c-0.6-0.7-0.6-1.7,0-2.4l3.5-3.4
				c0.5-0.5,0.8-1.1,1-1.7l2.7-12.5c0.1-0.4-0.4-0.7-0.7-0.4l-15.4,14.9C222.7,395.1,221.6,395.1,221,394.4z"/>
			<path class="st0" d="M288,401.4l17.4-18c0.6-0.6,1.3-0.9,2.1-1c1.6-0.2,3.2-0.9,4.5-2.2c2.9-2.9,2.9-7.7,0-10.7
				c-3-3.1-7.9-3-10.9,0c-1.3,1.3-2,2.9-2.1,4.6c-0.1,0.8-0.4,1.6-0.9,2.2l-17.4,18c-0.6,0.7-1.7,0.7-2.4,0L263,379.6
				c-0.3-0.3-0.8,0-0.7,0.4l2.7,12.5c0.1,0.7,0.5,1.2,1,1.7l3.5,3.4c0.7,0.6,0.7,1.7,0,2.4l-77.2,79.9c-0.5,0.5-0.8,1.2-0.9,1.9
				l-1.8,13.3c-0.1,0.6,0.4,1,1,0.9l13.2-2.3c0.7-0.1,1.4-0.5,1.9-1l77.2-79.9c0.6-0.7,1.7-0.7,2.4,0l3.5,3.4
				c0.5,0.5,1.1,0.8,1.7,0.9l12.6,2.3c0.4,0.1,0.7-0.4,0.4-0.7l-15.4-14.9C287.4,403.2,287.4,402.1,288,401.4z"/>
		</g>
		<g id="Венок">
			<g id="_x31__1_">
				<path id="path1872_1_" class="st2" d="M298.7,444.4c11-6.5,17.7,2.1,23.6,11.5C312.3,457.4,302.1,457.1,298.7,444.4z"/>
				<path id="path2784_1_" class="st2" d="M302.2,437.7c3-14.4,13-16.4,23.1-17.1C319.7,431.3,312.8,441.2,302.2,437.7z"/>
				<path id="path2790_1_" class="st2" d="M316.9,440.9c10.6-7.6,17.9,0.2,24.5,9C331.5,452.4,321.2,453.1,316.9,440.9z"/>
				<path id="path2796_1_" class="st2" d="M326.5,435.5c-3.4-13.7,4.8-21.6,13.5-28.5C339.5,419.2,337.4,431.7,326.5,435.5z"/>
				<path id="path2802_1_" class="st2" d="M333.8,436.5c8.7-10.7,17.7-5.8,26,0.2C350.7,442.4,340.8,446.6,333.8,436.5z"/>
				<path id="path2808_1_" class="st2" d="M345,427.5c-6.8-11.3-1-21.9,5.7-31.7C353.4,407.4,354.7,419.7,345,427.5z"/>
				<path id="path2814_1_" class="st2" d="M349.8,427.1c7-12.4,16.7-9.8,26-5.9C367.5,428.9,358.3,435.3,349.8,427.1z"/>
				<path id="path2820_1_" class="st2" d="M359.9,415.7c-8.5-9.4-4.3-21,0.9-32C365.2,394.3,368.3,405.9,359.9,415.7z"/>
				<path id="path2826_1_" class="st2" d="M363.6,414.5c5.1-13.7,15.1-13.3,24.9-11.8C381.6,412.1,373.4,420.4,363.6,414.5z"/>
				<path id="path2832_1_" class="st2" d="M370.2,394.3c-9.4-8.1-6.3-20-2.1-31.6C373.5,372.4,377.8,383.5,370.2,394.3z"/>
				<path id="path2838_1_" class="st2" d="M371.3,398.6c3.7-14.2,13.8-15.3,23.8-15.2C389,393.6,381.6,403,371.3,398.6z"/>
				<path id="path2844_1_" class="st2" d="M378.8,371.5c-10.8-5.1-9.9-17.5-7.9-29.7C378.1,349.6,384.3,359.1,378.8,371.5z"/>
				<path id="path2850_1_" class="st2" d="M379.2,382.5c-0.8-14.5,8.4-20.2,18-24.8C394.5,369.7,390.4,381.6,379.2,382.5z"/>
				<path id="path2856_1_" class="st2" d="M379.1,343.4c-11.8-1.3-13.5-13.3-14.2-25.5C373.7,323,381.9,329.9,379.1,343.4z"/>
				<path id="path2862_1_" class="st2" d="M383.9,360.3c-5-12.8,2.3-22,10.2-30.3C395,342.1,394.4,354.7,383.9,360.3z"/>
				<path id="path2868_1_" class="st2" d="M377.7,322c-11.5-2.9-12.1-15.1-11.8-27.4C374.1,300.8,381.6,308.8,377.7,322z"/>
				<path id="path2874_1_" class="st2" d="M382.9,335.7c-7.1-11.1-1.4-21.8,5.1-31.8C390.9,315.4,392.4,327.7,382.9,335.7z"/>
			</g>
			<g id="_x31_">
				<path id="path1872" class="st2" d="M203.1,444.4c-11-6.5-17.7,2.1-23.6,11.5C189.4,457.4,199.7,457.1,203.1,444.4z"/>
				<path id="path2784" class="st2" d="M199.5,437.7c-3-14.4-13-16.4-23.1-17.1C182,431.3,188.9,441.2,199.5,437.7z"/>
				<path id="path2790" class="st2" d="M184.8,440.9c-10.6-7.6-17.9,0.2-24.5,9C170.2,452.4,180.5,453.1,184.8,440.9z"/>
				<path id="path2796" class="st2" d="M175.2,435.5c3.4-13.7-4.8-21.6-13.5-28.5C162.2,419.2,164.3,431.7,175.2,435.5z"/>
				<path id="path2802" class="st2" d="M167.9,436.5c-8.7-10.7-17.7-5.8-26,0.2C151,442.4,161,446.6,167.9,436.5z"/>
				<path id="path2808" class="st2" d="M156.7,427.5c6.8-11.3,1-21.9-5.7-31.7C148.3,407.4,147,419.7,156.7,427.5z"/>
				<path id="path2814" class="st2" d="M151.9,427.1c-7-12.4-16.7-9.8-26-5.9C134.2,428.9,143.4,435.3,151.9,427.1z"/>
				<path id="path2820" class="st2" d="M141.9,415.7c8.5-9.4,4.3-21-0.9-32C136.6,394.3,133.4,405.9,141.9,415.7z"/>
				<path id="path2826" class="st2" d="M138.1,414.5c-5.1-13.7-15.1-13.3-24.9-11.8C120.2,412.1,128.4,420.4,138.1,414.5z"/>
				<path id="path2832" class="st2" d="M131.5,394.3c9.4-8.1,6.3-20,2.1-31.6C128.2,372.4,124,383.5,131.5,394.3z"/>
				<path id="path2838" class="st2" d="M130.5,398.6c-3.7-14.2-13.8-15.3-23.8-15.2C112.7,393.6,120.1,403,130.5,398.6z"/>
				<path id="path2844" class="st2" d="M122.9,371.5c10.8-5.1,9.9-17.5,7.9-29.7C123.6,349.6,117.4,359.1,122.9,371.5z"/>
				<path id="path2850" class="st2" d="M122.6,382.5c0.8-14.5-8.4-20.2-18-24.8C107.2,369.7,111.4,381.6,122.6,382.5z"/>
				<path id="path2856" class="st2" d="M122.6,343.4c11.8-1.3,13.5-13.3,14.2-25.5C128,323,119.9,329.9,122.6,343.4z"/>
				<path id="path2862" class="st2" d="M117.8,360.3c5-12.8-2.3-22-10.2-30.3C106.7,342.1,107.3,354.7,117.8,360.3z"/>
				<path id="path2868" class="st2" d="M124,322c11.5-2.9,12.1-15.1,11.8-27.4C127.6,300.8,120.2,308.8,124,322z"/>
				<path id="path2874" class="st2" d="M118.8,335.7c7.1-11.1,1.4-21.8-5.1-31.8C110.8,315.4,109.3,327.7,118.8,335.7z"/>
			</g>
		</g>
		<g>
			<path class="st0" d="M374.3,244.2c-1.8-4-10.3-11.7-14.6-14.2c-4.3-2.6-48.8-20.3-51.4-20.4c-2.6-0.1-32.4,16.8-38.2,19.3
				c-5.8,2.5-4.6,2.7-5.9-1.4c-1.4-4.1,1.4-16.6,2.1-33.5c0.7-16.9-10.8-30.4-22-30.6c-11.2-0.2-18.7,8.9-21.5,11.2
				c-2.7,2.3-11.6,7.5-13.3,8.4c-1.6,0.9-1.7,3.6-1.6,5.6c0.2,2,5.8,0.4,24-1.6s14.1,17.3,12.2,25.6c-1.8,8.3-9.3,17.1-9.3,17.1
				c-1.1,1.4-1.8,0.4-3.4-0.5c-5.5-3.2-35.5-19.7-38-19.6c-2.6,0.1-47.1,17.8-51.4,20.4c-4.3,2.6-12.8,10.2-14.6,14.2
				c-1.8,4-11.4,23.1-9.1,24.9c2.3,1.8,13.4-22.1,14.6-21.4c1.2,0.7-8.9,20.7-9,27.5c-0.1,6.8,0.9,10.9,2.9,12.5
				c2.1,1.6,2.1,2.9,3-1.2c1-4.1,14.8-38.8,17.2-35.9c2.3,2.9-5.1,6.1-7.2,17.5c-2.1,11.4-1.9,18.7-1.9,20.3c0,1.6,0.4,5.4,1.6-0.9
				c1.2-6.2,10.9-36,13.6-34.4c2.7,1.6-8,19.3-5.4,26c2.7,6.7,8.5,8.6,8.6,6.7c0.1-1.9,4.3-19.8,6.1-23.7c1.8-3.9,5.5-12.8,6.7-11.4
				c1.2,1.3-3.2,10-4.1,16.1c-1,6.1-2.2,12.5-0.4,15c1.8,2.4,3.3-9.9,5.2-14.7c1.9-4.9,7.3-19.6,9.7-17.3c2.4,2.3-2.6,7.7-4.1,13.1
				c-1.6,5.5-1.1,12.5,0.6,14.1c1.7,1.6,1.8,1.5,2.3-2.3c0.5-3.8,1.6-13.5,3.4-17c1.8-3.5,4.4-7.5,5.7-6.6c1.3,1,0.5,2.8-0.9,5.1
				c-1.3,2.3-6.7,18.1-5.2,21.2c1.5,3,2.7,7.7,3,2.3c0.4-5.4,6.7-15.7,10-18.2c3.3-2.6,9.5-9.2,10.6-6.9c1.1,2.3-6.8,6.6-10,11.1
				c-3.2,4.5-7.1,14-6.2,18.2s0.4,1.7,4.5-4.1c4.1-5.8,18.9-23.1,20.3-19.8c1.5,3.3-17.5,26.3-18.6,27.3c-1.1,1-5.1,4.9,1,1.2
				c6.1-3.6,12.8-9.5,15.3-13.4c2.6-3.9,6.3-11.9,7.3-11.6c1,0.4-11,22.3-14.2,25.6c-3.2,3.4-6.3,6.5-4.4,6.9s8.7,3.1,17.8-9.2
				c9.1-12.3,7.8-16,9.7-15c1.8,1-7.3,16.3-8.1,18.2c-0.8,1.8-1.6,5.4,2.1,2.6c3.6-2.8,7.2-12.5,7.8-11.5c0.6,1-2.6,16.5-2.6,19.1
				c0,2.6,0.7,6.7,1.1,7.9c0.4,1.2,1.4,2.3,1.5,3.5c0,1.2-0.2,5.2-0.6,5.7c-0.4,0.4-6.2,9.5-8,13.2c-1.8,3.6-3.6,9.4-3.9,10.8
				c-0.3,1.4-1.2,3.9-0.3,4.2c1,0.4,2.8-2,6.3-0.2c3.6,1.8,3.3,3.7,3.4,4.6c0.1,0.9,1.3,2.4,2.5,0.2c1.1-2.1,1.6-3.3,3.8-3.3
				c2.2,0,3.7,3.8,5.2,3.6c1.5-0.1,1.2-2.6,1.4-4s0-14.2-1.6-19c-1.6-4.8-4.2-8.7-4.2-9.9c0.1-1.1,7.5-18,8.7-18.1
				c1.2,0,7.3,15.1,8.9,15.1c1.6,0,7.7-15.1,8.9-15.1s8.6,16.9,8.7,18.1c0.1,1.1-2.6,5-4.2,9.9c-1.6,4.8-1.7,17.6-1.6,19
				c0.1,1.3-0.1,3.8,1.4,4c1.5,0.1,3-3.6,5.2-3.6c2.2,0,2.6,1.1,3.8,3.3c1.1,2.1,2.3,0.6,2.5-0.2c0.1-0.9-0.1-2.8,3.4-4.6
				c3.6-1.8,5.4,0.6,6.3,0.2c1-0.4,0-2.9-0.3-4.2c-0.3-1.4-2.1-7.1-3.9-10.8c-1.8-3.6-7.6-12.8-8-13.2c-0.4-0.4-0.7-4.5-0.6-5.7
				s1.1-2.2,1.5-3.5c0.4-1.2,1.1-5.3,1.1-7.9c0-2.6-3.3-18.1-2.6-19.1c0.6-1,4.2,8.7,7.8,11.5c3.6,2.8,2.9-0.7,2.1-2.6
				c-0.8-1.8-9.9-17.2-8.1-18.2c1.8-1,0.5,2.6,9.7,15c9.1,12.3,15.9,9.7,17.8,9.2c1.9-0.5-1.2-3.6-4.4-6.9
				c-3.2-3.4-15.2-25.3-14.2-25.6c1-0.4,4.7,7.7,7.3,11.6c2.6,3.9,9.2,9.7,15.3,13.4c6.1,3.6,2.1-0.2,1-1.2
				c-1.1-1-20.1-24-18.6-27.3c1.5-3.3,16.2,14,20.3,19.8c4.1,5.8,3.6,8.4,4.5,4.1c0.9-4.3-3-13.7-6.2-18.2
				c-3.2-4.5-11.1-8.8-10-11.1s7.3,4.4,10.6,6.9c3.3,2.6,9.6,12.9,10,18.2c0.4,5.4,1.6,0.7,3-2.3c1.5-3-3.9-18.9-5.2-21.2
				c-1.3-2.3-2.2-4.1-0.9-5.1c1.3-1,3.9,3,5.7,6.6c1.8,3.5,2.9,13.3,3.4,17c0.5,3.8,0.6,3.9,2.3,2.3c1.7-1.6,2.2-8.6,0.6-14.1
				c-1.6-5.5-6.6-10.8-4.1-13.1c2.4-2.3,7.8,12.4,9.7,17.3c1.9,4.9,3.4,17.2,5.2,14.7c1.8-2.4,0.6-8.9-0.4-15
				c-1-6.1-5.4-14.7-4.1-16.1c1.2-1.3,4.9,7.5,6.7,11.4c1.8,3.9,6,21.8,6.1,23.7c0.1,1.9,6,0,8.6-6.7c2.7-6.7-8-24.5-5.4-26
				c2.7-1.6,12.4,28.2,13.6,34.4c1.2,6.2,1.6,2.4,1.6,0.9s0.1-8.9-1.9-20.3c-2.1-11.4-9.5-14.6-7.2-17.5
				c2.3-2.9,16.2,31.8,17.2,35.9c1,4.1,1,2.8,3,1.2c2.1-1.6,3-5.7,2.9-12.5c-0.1-6.8-10.2-26.8-9-27.5c1.2-0.7,12.3,23.2,14.6,21.4
				S376.1,248.2,374.3,244.2z"/>
		</g>
		<g>
			<path class="st0" d="M134.9,152.9L134.9,152.9l-6.5,2.6l0,0c-0.2,0.1-0.5,0.1-0.7,0l0,0l0,0c-0.2-0.1-0.4-0.3-0.5-0.5l0,0
				l-8.2-20.3l0,0c-0.1-0.2-0.1-0.5,0-0.7l0,0l0,0c0.1-0.2,0.3-0.4,0.5-0.5l0,0l17.1-6.9l0,0c0.2-0.1,0.5-0.1,0.7,0l0,0l0,0
				c0.2,0.1,0.4,0.3,0.5,0.5l0,0l2,5.1l0,0c0.1,0.2,0.1,0.5,0,0.7l0,0l0,0c-0.1,0.2-0.3,0.4-0.5,0.5l0,0l-9.8,3.9l5.8,14.4l0,0
				c0.1,0.2,0.1,0.5,0,0.7l0,0l0,0C135.3,152.7,135.1,152.8,134.9,152.9z M155.5,147.4L155.5,147.4l-5.9,1.6l0,0
				c-0.2,0.1-0.5,0-0.7-0.1l0,0l0,0c-0.2-0.1-0.4-0.3-0.4-0.6l0,0l-1.4-5.2l0,0c-0.1-0.2,0-0.5,0.1-0.7l0,0l0,0
				c0.1-0.2,0.3-0.4,0.6-0.4l0,0l4.6-1.2l0,0c1.2-0.3,1.9-0.6,2-0.8l0,0l-11-12.8l0,0c0-0.1-0.1-0.1-0.1-0.2l0,0l0,0
				c-0.1-0.5,0.2-0.9,0.6-1l0,0l7.2-1.9l0,0c0.5-0.1,0.9,0,1.3,0.5l0,0l6,7.6l0.9-9.5l0,0c0.1-0.6,0.4-0.9,0.9-1.1l0,0l6.8-1.8l0,0
				c0.2-0.1,0.4,0,0.6,0.1l0,0l0,0c0.2,0.1,0.3,0.2,0.4,0.4l0,0l0,0c0,0.2,0.1,0.3,0.1,0.3l0,0l-1.8,12.8l0,0
				c-0.3,2.5-0.6,4.3-0.9,5.4l0,0l0,0c-0.3,1.1-0.7,2.3-1.5,3.6l0,0l0,0c-0.7,1.3-1.7,2.3-3,3l0,0l0,0
				C159.4,146.2,157.7,146.9,155.5,147.4z M182.3,127.6L182.3,127.6l0.6,5.4l0,0c0.1,0.9,0.5,1.6,1.2,2l0,0l0,0
				c0.7,0.4,1.5,0.6,2.5,0.5l0,0l0,0c1-0.1,1.7-0.3,2.1-0.7l0,0l0,0c0.4-0.4,0.7-0.9,1-1.5l0,0l0,0c0.2-0.6,0.6-1,1.1-1l0,0l7.3-0.8
				l0,0c0.2,0,0.4,0,0.5,0.2l0,0l0,0c0.2,0.1,0.3,0.3,0.3,0.5l0,0l0,0c0.2,2.1-0.6,4.1-2.4,6.1l0,0l0,0c-0.9,1-2.1,1.8-3.7,2.5l0,0
				l0,0c-1.6,0.7-3.5,1.2-5.7,1.4l0,0l0,0c-2.2,0.2-4.3,0.1-6.2-0.4l0,0l0,0c-1.9-0.5-3.5-1.5-4.8-2.9l0,0l0,0
				c-1.3-1.4-2.1-3.3-2.3-5.6l0,0l-0.4-4l0,0c-0.2-2.3,0.1-4.3,1.1-6l0,0l0,0c1.8-3.2,5.3-5,10.4-5.6l0,0l0,0c2-0.2,3.9-0.2,5.6,0.2
				l0,0l0,0c1.7,0.4,3.1,0.9,4.2,1.7l0,0l0,0c2.2,1.5,3.4,3.3,3.6,5.4l0,0l0,0c0,0.2,0,0.4-0.2,0.5l0,0l0,0
				c-0.1,0.2-0.3,0.3-0.5,0.3l0,0l-7.3,0.8l0,0c-0.5,0.1-0.9-0.2-1.3-0.8l0,0l0,0c-0.4-0.6-0.8-1-1.3-1.3l0,0l0,0
				c-0.5-0.3-1.2-0.3-2.2-0.2l0,0l0,0c-1,0.1-1.8,0.4-2.4,1l0,0l0,0C182.4,126,182.2,126.7,182.3,127.6z M205.7,140.7L205.7,140.7
				L205.7,140.7c-0.2,0-0.5-0.1-0.7-0.2l0,0l0,0c-0.2-0.2-0.3-0.4-0.3-0.6l0,0l-0.2-5.4l0,0c0-0.2,0.1-0.5,0.2-0.7l0,0l0,0
				c0.2-0.2,0.4-0.3,0.6-0.3l0,0l0,0c0.9,0,1.6-0.3,1.9-0.7l0,0l0,0c0.3-0.4,0.5-1.1,0.5-2l0,0l-0.6-13.3l0,0c0-0.2,0.1-0.5,0.2-0.7
				l0,0l0,0c0.2-0.2,0.4-0.3,0.6-0.3l0,0l19.3-0.9l0,0c0.2,0,0.5,0.1,0.7,0.2l0,0l0,0c0.2,0.2,0.3,0.4,0.3,0.6l0,0l1,21.9l0,0
				c0,0.2-0.1,0.5-0.2,0.7l0,0l0,0c-0.2,0.2-0.4,0.3-0.6,0.3l0,0l-6.3,0.3l0,0c-0.2,0-0.5-0.1-0.7-0.2l0,0l0,0
				c-0.2-0.2-0.3-0.4-0.3-0.6l0,0l-0.7-15.5l-4.8,0.2l0.3,6.8l0,0c0.2,3.3-0.7,5.9-2.5,7.6l0,0l0,0
				C211.6,139.6,209,140.6,205.7,140.7z M235.7,123L235.7,123L235.7,123c0.1-2.5,1-4.5,2.9-5.9l0,0l0,0c1.8-1.4,4.3-2.1,7.4-2l0,0
				l13.2,0.3l0,0c0.2,0,0.5,0.1,0.6,0.3l0,0l0,0c0.2,0.2,0.3,0.4,0.3,0.7l0,0l-0.5,21.9l0,0c0,0.2-0.1,0.5-0.3,0.6l0,0l0,0
				c-0.2,0.2-0.4,0.3-0.7,0.3l0,0l-7.3-0.2l0,0c-0.2,0-0.5-0.1-0.6-0.3l0,0l0,0c-0.2-0.2-0.3-0.4-0.3-0.7l0,0l0.2-6.7l-2.9-0.1
				l-3.2,6.6l0,0c-0.3,0.6-0.8,0.8-1.4,0.8l0,0l-7.7-0.2l0,0c-0.2,0-0.4-0.1-0.5-0.2l0,0l0,0c-0.1-0.2-0.2-0.3-0.2-0.5l0,0l0,0
				c0-0.2,0-0.3,0.1-0.4l0,0l4.4-7.7l0,0C236.7,128.3,235.6,126.1,235.7,123z M246.4,125l4.2,0.1l0.1-3.6l-4.2-0.1l0,0
				c-0.5,0-0.9,0.2-1.2,0.5l0,0l0,0c-0.3,0.4-0.4,0.8-0.4,1.3l0,0l0,0c0,0.5,0.1,0.9,0.4,1.2l0,0l0,0
				C245.6,124.8,245.9,125,246.4,125L246.4,125z M283.2,116.8L283.2,116.8l7,0.5l0,0c0.2,0,0.5,0.1,0.6,0.3l0,0l0,0
				c0.2,0.2,0.2,0.4,0.2,0.7l0,0l-1.7,21.9l0,0c0,0.2-0.1,0.5-0.3,0.6l0,0l0,0c-0.2,0.2-0.4,0.2-0.7,0.2l0,0l-7-0.5l0,0
				c-0.2,0-0.5-0.1-0.6-0.3l0,0l0,0c-0.2-0.2-0.2-0.4-0.2-0.7l0,0l0.5-7.2l-6.8-0.5l-0.5,7.2l0,0c0,0.2-0.1,0.5-0.3,0.6l0,0l0,0
				c-0.2,0.2-0.4,0.2-0.7,0.2l0,0l-7-0.5l0,0c-0.2,0-0.5-0.1-0.6-0.3l0,0l0,0c-0.2-0.2-0.2-0.4-0.2-0.7l0,0l1.7-21.9l0,0
				c0-0.2,0.1-0.5,0.3-0.6l0,0l0,0c0.2-0.2,0.4-0.2,0.7-0.2l0,0l7,0.5l0,0c0.2,0,0.5,0.1,0.6,0.3l0,0l0,0c0.2,0.2,0.2,0.4,0.2,0.7
				l0,0l-0.5,6.9l6.8,0.5l0.5-6.9l0,0c0-0.2,0.1-0.5,0.3-0.6l0,0l0,0C282.7,116.9,283,116.8,283.2,116.8z M301.4,118L301.4,118
				l17.8,2.4l0,0c0.2,0,0.4,0.2,0.6,0.4l0,0l0,0c0.2,0.2,0.2,0.4,0.2,0.7l0,0l-2,15.4l1.7,0.2l0,0c0.2,0,0.4,0.2,0.6,0.4l0,0l0,0
				c0.2,0.2,0.2,0.4,0.2,0.7l0,0l-1.3,9.6l0,0c0,0.2-0.2,0.4-0.4,0.6l0,0l0,0c-0.2,0.2-0.4,0.2-0.7,0.2l0,0l-5.5-0.7l0,0
				c-0.2,0-0.4-0.2-0.6-0.4l0,0l0,0c-0.2-0.2-0.2-0.4-0.2-0.7l0,0l0.4-3.3l-11.5-1.5l-0.4,3.3l0,0c0,0.2-0.2,0.4-0.4,0.6l0,0l0,0
				c-0.2,0.2-0.4,0.2-0.7,0.2l0,0l-5.4-0.7l0,0c-0.2,0-0.4-0.1-0.6-0.3l0,0l0,0c-0.2-0.2-0.2,0.3-0.2,0l0,0l1.3-10.3l0,0
				c0-0.2,0.2-0.4,0.4-0.6l0,0l0,0c0.2-0.2,0.4-0.2,0.7-0.2l0,0l0.5,0.1l0,0c0.5,0.1,1.1-0.1,1.7-0.5l0,0l0,0c0.6-0.4,0.9-1,1-1.8
				l0,0l1.7-12.8l0,0c0-0.2,0.2-0.4,0.4-0.6l0,0l0,0C300.9,118,301.1,117.9,301.4,118z M309.8,135.7l1.3-9.4l-3.4-0.5l-0.9,6.9l0,0
				c-0.2,1.3-0.4,2.1-0.6,2.5l0,0L309.8,135.7z M330.8,123.3L330.8,123.3l6.1,1.5l0,0c0.2,0.1,0.4,0.2,0.6,0.4l0,0l0,0
				c0.1,0.2,0.2,0.4,0.1,0.7l0,0l-2.4,9.7l9.6-8.1l0,0c0.4-0.4,0.9-0.5,1.4-0.3l0,0l5.3,1.3l0,0c0.2,0.1,0.4,0.2,0.6,0.4l0,0l0,0
				c0.1,0.2,0.2,0.4,0.1,0.7l0,0l-5.3,21.3l0,0c-0.1,0.2-0.2,0.4-0.4,0.6l0,0l0,0c-0.2,0.1-0.4,0.2-0.7,0.1l0,0l-6.1-1.5l0,0
				c-0.2-0.1-0.4-0.2-0.6-0.4l0,0l0,0c-0.1-0.2-0.2-0.4-0.1-0.7l0,0l2.2-9l-9.5,7.4l0,0c-0.5,0.4-1,0.5-1.5,0.4l0,0l-5.3-1.3l0,0
				c-0.2-0.1-0.4-0.2-0.6-0.4l0,0l0,0c-0.1-0.2-0.2-0.4-0.1-0.7l0,0l5.3-21.3l0,0c0.1-0.2,0.2-0.4,0.4-0.6l0,0l0,0
				C330.4,123.3,330.6,123.3,330.8,123.3z M357.5,138.9L357.5,138.9L357.5,138.9c1-2.3,2.6-3.8,4.8-4.5l0,0l0,0
				c2.2-0.7,4.8-0.4,7.6,0.8l0,0l12.2,5.1l0,0c0.2,0.1,0.4,0.3,0.5,0.5l0,0l0,0c0.1,0.2,0.1,0.5,0,0.7l0,0l-8.4,20.2l0,0
				c-0.1,0.2-0.3,0.4-0.5,0.5l0,0l0,0c-0.2,0.1-0.5,0.1-0.7,0l0,0l-6.8-2.8l0,0c-0.2-0.1-0.4-0.3-0.5-0.5l0,0l0,0
				c-0.1-0.2-0.1-0.5,0-0.7l0,0l2.6-6.1l-2.6-1.1l-5.3,5.1l0,0c-0.5,0.4-1,0.5-1.6,0.2l0,0l-7.1-2.3l0,0c-0.2-0.1-0.3-0.2-0.4-0.4
				l0,0l0,0c-0.1-0.2-0.1-0.4,0-0.5l0,0l0,0c0.1-0.1,0.1-0.3,0.2-0.3l0,0l6.9-6.3l0,0C356.6,144.3,356.4,141.8,357.5,138.9z
				 M366.9,144.6l3.9,1.6l1.4-3.3l-3.9-1.6l0,0c-0.5-0.2-0.9-0.2-1.3,0.1l0,0l0,0c-0.4,0.2-0.7,0.6-0.9,1.1l0,0l0,0
				c-0.2,0.5-0.2,0.9-0.1,1.3l0,0l0,0C366.1,144.2,366.4,144.5,366.9,144.6L366.9,144.6z"/>
		</g>
	</g>
</g>
</svg>
