<svg xmlns="http://www.w3.org/2000/svg" xmlns:xlink="http://www.w3.org/1999/xlink" viewBox="0 0 2250 1500"><path fill="#dd2626" d="M0 0h2250v1500H0z"/><path fill="#fff" d="M750 0h1500v1500H750z"/><path d="M1500 0h750v1500h-750zM229.7 846.9V660H256l59.9 94.6c13.9 21.9 24.7 41.6 33.6 60.7l.6-.3c-2.2-25-2.8-47.7-2.8-76.8V660h22.8v187h-24.4l-59.4-94.9c-13-20.8-25.5-42.2-35-62.4l-.8.3c1.4 23.6 1.9 46 1.9 77.1V847h-22.7z"/><use xlink:href="#a"/><path d="m560.2 712.7 17.8 68.2c3.9 15 7.5 28.8 10 42.7h.8c3.1-13.6 7.5-28 11.9-42.4l21.9-68.5h20.5l20.8 67.1c5 16.1 8.9 30.2 11.9 43.8h.8c2.2-13.6 5.8-27.7 10.3-43.6l19.1-67.4h24.1L687 846.9h-22.2l-20.5-64.1c-4.7-15-8.6-28.3-11.9-44.1h-.6c-3.3 16.1-7.5 30-12.2 44.4L598 846.9h-22.2l-40.5-134.3h24.9z"/><path fill="#dd2626" d="M917.3 838.6c-10.8 3.9-32.2 10.3-57.4 10.3-28.3 0-51.6-7.2-69.9-24.7-16.1-15.5-26.1-40.5-26.1-69.6.3-55.8 38.6-96.5 101.3-96.5 21.6 0 38.6 4.7 46.6 8.6l-5.8 19.7c-10-4.4-22.5-8-41.4-8-45.5 0-75.2 28.3-75.2 75.2 0 47.4 28.6 75.5 72.2 75.5 15.8 0 26.6-2.2 32.2-5v-55.8h-38v-19.4h61.6v89.7zm159-59.9c0 49.7-34.4 71.3-66.9 71.3-36.4 0-64.4-26.6-64.4-69.1 0-44.9 29.4-71.3 66.6-71.3 38.6 0 64.7 28.1 64.7 69.1zm-106.6 1.4c0 29.4 16.9 51.6 40.8 51.6 23.3 0 40.8-21.9 40.8-52.1 0-22.7-11.4-51.6-40.2-51.6-28.9-.1-41.4 26.6-41.4 52.1zm259-1.4c0 49.7-34.4 71.3-66.9 71.3-36.4 0-64.4-26.6-64.4-69.1 0-44.9 29.4-71.3 66.6-71.3 38.6 0 64.7 28.1 64.7 69.1zm-106.6 1.4c0 29.4 16.9 51.6 40.8 51.6 23.3 0 40.8-21.9 40.8-52.1 0-22.7-11.4-51.6-40.2-51.6s-41.4 26.6-41.4 52.1zm134.1 41.9c7.2 4.7 20 9.7 32.2 9.7 17.8 0 26.1-8.9 26.1-20 0-11.7-6.9-18-25-24.7-24.1-8.6-35.5-21.9-35.5-38 0-21.6 17.5-39.4 46.3-39.4 13.6 0 25.5 3.9 33 8.3l-6.1 17.8c-5.3-3.3-15-7.8-27.5-7.8-14.4 0-22.5 8.3-22.5 18.3 0 11.1 8 16.1 25.5 22.7 23.3 8.9 35.2 20.5 35.2 40.5 0 23.6-18.3 40.2-50.2 40.2-14.7 0-28.3-3.6-37.7-9.2l6.2-18.4zm126.8-37.7c.6 33 21.6 46.6 46.1 46.6 17.5 0 28-3.1 37.2-6.9l4.2 17.5c-8.6 3.9-23.3 8.3-44.7 8.3-41.4 0-66.1-27.2-66.1-67.7s23.9-72.4 63-72.4c43.8 0 55.5 38.6 55.5 63.2 0 5-.6 8.9-.8 11.4H1383zm71.6-17.5c.3-15.5-6.4-39.7-33.9-39.7-24.7 0-35.5 22.7-37.5 39.7h71.4z"/><g fill="#fff"><path d="M1525.7 650h24.4v196.9h-24.4V650zm139.9 196.9-1.9-16.9h-.8c-7.5 10.5-21.9 20-41.1 20-27.2 0-41.1-19.1-41.1-38.6 0-32.5 28.9-50.2 80.8-49.9v-2.8c0-11.1-3.1-31.1-30.5-31.1-12.5 0-25.5 3.9-35 10l-5.6-16.1c11.1-7.2 27.2-11.9 44.1-11.9 41.1 0 51.1 28 51.1 54.9v50.2c0 11.7.6 23 2.2 32.2h-22.2zm-3.6-68.5c-26.6-.6-56.9 4.2-56.9 30.2 0 15.8 10.5 23.3 23 23.3 17.5 0 28.6-11.1 32.5-22.5.8-2.5 1.4-5.3 1.4-7.8v-23.2zm63-29.4c0-13.9-.3-25.2-1.1-36.3h21.6l1.4 22.2h.6c6.7-12.8 22.2-25.2 44.4-25.2 18.6 0 47.5 11.1 47.5 57.1V847H1815v-77.4c0-21.6-8-39.7-31.1-39.7-16.1 0-28.6 11.4-32.7 25-1.1 3.1-1.7 7.2-1.7 11.4V847H1725v-98zm270-99v162.3c0 11.9.3 25.5 1.1 34.7h-21.9l-1.1-23.3h-.6c-7.5 15-23.9 26.4-45.8 26.4-32.5 0-57.4-27.5-57.4-68.2-.3-44.7 27.5-72.1 60.2-72.1 20.5 0 34.4 9.7 40.5 20.5h.6V650h24.4zm-24.4 117.3c0-3.1-.3-7.2-1.1-10.3-3.6-15.5-16.9-28.3-35.2-28.3-25.3 0-40.2 22.2-40.2 51.9 0 27.2 13.3 49.7 39.7 49.7 16.4 0 31.4-10.8 35.8-29.1.8-3.3 1.1-6.7 1.1-10.5v-23.4z"/><use xlink:href="#a" x="1624"/></g><defs><path id="a" d="M425.1 784.3c.6 33 21.6 46.6 46.1 46.6 17.5 0 28-3.1 37.2-6.9l4.2 17.5c-8.6 3.9-23.3 8.3-44.7 8.3-41.4 0-66.1-27.2-66.1-67.7s23.9-72.4 63-72.4c43.8 0 55.5 38.6 55.5 63.2 0 5-.6 8.9-.8 11.4h-94.4zm71.6-17.5c.3-15.5-6.4-39.7-33.9-39.7-24.7 0-35.5 22.7-37.5 39.7h71.4z"/></defs></svg>