<?xml version="1.0" encoding="utf-8"?>
<svg version="1.1" xmlns="http://www.w3.org/2000/svg" xmlns:xlink="http://www.w3.org/1999/xlink" x="0px" y="0px"
	 viewBox="0 0 700 700" style="enable-background:new 0 0 700 700;" xml:space="preserve">
<style type="text/css">
	.st0{display:none;fill:#FFFFFF;}
	.st1{fill:#FFFFFF;}
	.st2{fill:#DD1C24;}
	.st3{fill-rule:evenodd;clip-rule:evenodd;fill:#FFFFFF;}
</style>
<g transform="matrix(1.185,0,0,1.185,452.725,375)">
	<g>
		<path class="st0" d="M-86.7-271.8c-38.2,0-70.3,4.1-101.3,8.1c-26.4,3.4-51.4,6.6-78.8,7.3c-4.4,0.1-8,3.6-8.2,8.1
			c-0.8,17.9-3.2,44.4-5.9,63c-0.6,4,1.7,7.8,5.5,9.1c14.2,5.1,22.7,21.2,22.7,43.1c0,22.6-8.8,38.6-23.6,43c-3.6,1.1-6,4.3-6.1,8.1
			c-0.2,51.5-2.2,95.1-2.6,103.3c0,0.5,0,1,0.1,1.6c1.3,9.4,3.2,18.7,5.6,27.7c2.4,8.9,5.3,17.7,8.8,26.2
			c3.3,8.1,7.2,16.1,11.5,23.7c4.1,7.3,8.7,14.5,13.6,21.4c15.4,21.5,38.7,43.1,69.2,64.2c10.6,7.3,22,14.2,33.8,20.5
			c9.4,5,19.2,9.6,28.9,13.7c11.6,4.9,20.2,7.8,24.4,9.1c0.8,0.3,1.7,0.4,2.5,0.4c0.9,0,1.7-0.1,2.5-0.4c4.1-1.3,12.8-4.2,24.4-9.1
			c9.7-4.1,19.5-8.7,28.9-13.7C-19,200.3-7.6,193.4,3,186.1c30.5-21.1,53.8-42.7,69.2-64.2c5-6.9,9.5-14.1,13.6-21.4
			c4.3-7.7,8.1-15.7,11.5-23.7c3.5-8.5,6.4-17.3,8.8-26.2c2.4-9,4.3-18.3,5.6-27.7c0.1-0.5,0.1-1,0.1-1.6
			c-0.4-8.2-2.4-51.8-2.6-103.3c0-3.7-2.5-7-6.1-8.1c-14.8-4.3-23.6-20.4-23.6-43c0-21.9,8.5-38,22.7-43.1c3.8-1.3,6.1-5.2,5.5-9.1
			c-2.6-18.6-5.1-45.1-5.9-63c-0.2-4.4-3.8-8-8.2-8.1c-27.4-0.6-52.3-3.8-78.7-7.3C-16.4-267.6-48.5-271.8-86.7-271.8z"/>
		<polygon class="st1" points="-266.4,-191.3 -243.2,-160.5 -239.8,-122.3 -253.1,-90.2 -269.8,-80.4 -269.8,40.9 -239.8,107 
			-185.6,162.4 -106.6,210.5 -86.7,215.6 -27.1,190.4 44.7,135.8 90,64.4 98.2,7.6 98.2,-74.5 73.6,-97 65.4,-143.5 81.2,-179 
			93,-186 86.6,-241.4 -85.8,-258.8 -259.6,-241.4 		"/>
		<path class="st2" d="M-45.1,179.6c10.8-5.7,21.1-12,30.8-18.7C13.2,141.8,34,122.7,47.4,104c4.3-6,8.3-12.2,11.8-18.5
			c3.7-6.6,7-13.5,9.9-20.4c3-7.3,5.5-14.9,7.6-22.5c1.9-7.1,3.4-14.5,4.5-22c-0.5-10.9-2-46.2-2.4-89C62.6-79.3,49-100.1,49-133.1
			c0-27.4,9.7-49.7,26.6-62.8c-1.2-10-2.2-20.8-3-31c-21.1-1.4-41-3.9-61.8-6.6c-30.1-3.9-61.2-7.9-97.5-7.9s-67.4,4-97.5,7.9
			c-20.8,2.7-40.7,5.2-61.8,6.6c-0.8,10.1-1.8,21-3,31c16.9,13.1,26.6,35.4,26.6,62.8c0,33-13.6,53.8-29.8,64.7
			c-0.4,42.7-1.9,78-2.4,89c1.1,7.5,2.6,14.9,4.5,22c2,7.6,4.6,15.2,7.6,22.5c2.8,6.9,6.2,13.8,9.9,20.4c3.5,6.3,7.5,12.5,11.8,18.5
			c13.4,18.7,34.2,37.8,61.8,56.9c9.6,6.7,20,12.9,30.8,18.7c8.6,4.6,17.5,8.8,26.4,12.5c6.1,2.5,11.2,4.5,15.1,5.9
			c3.9-1.4,9.1-3.3,15.1-5.9C-62.7,188.4-53.8,184.2-45.1,179.6z"/>
		<path class="st2" d="M-86.7-253.2c37,0,68.5,4.1,99,8c23.9,3.1,46.6,6,71.3,7.1c0.9,14.9,2.6,33,4.5,48
			c-17.3,9.9-27.4,30.6-27.4,57c0,27.9,11,49,29.8,58C90.8-28,92.6,11.4,93,21.2c-1.2,8.3-2.9,16.6-5,24.5c-2.2,8.1-4.9,16.1-8,23.9
			c-3,7.4-6.5,14.7-10.5,21.7c-3.7,6.7-7.9,13.3-12.5,19.6c-14.2,19.8-36,39.9-64.7,59.7c-10,6.9-20.8,13.4-31.9,19.4
			c-9,4.8-18.2,9.1-27.4,13c-8.5,3.6-15.3,6-19.7,7.5c-4.4-1.5-11.2-3.9-19.7-7.5c-9.2-3.9-18.5-8.2-27.4-13
			c-11.2-5.9-21.9-12.4-31.9-19.4c-28.7-19.9-50.5-39.9-64.7-59.7c-4.6-6.4-8.8-13-12.5-19.6c-3.9-7-7.4-14.3-10.5-21.7
			c-3.2-7.7-5.9-15.8-8.1-23.9c-2.1-7.9-3.8-16.2-5-24.5c0.5-9.8,2.2-49.1,2.5-96.2c18.8-9.1,29.8-30.2,29.8-58
			c0-26.4-10.1-47.1-27.4-57c1.9-15,3.6-33.1,4.5-48c24.7-1.1,47.4-4,71.3-7.1C-155.2-249.1-123.7-253.2-86.7-253.2 M-86.7-263.3
			c-37.7,0-69.5,4.1-100.3,8.1c-26.6,3.4-51.8,6.7-79.7,7.3c-0.8,18.1-3.3,44.9-6,63.8c15.1,5.4,28.3,21.8,28.3,51
			c0,30.1-13.7,46.4-29.7,51.1c-0.2,52.1-2.3,96.6-2.6,103.6c1.2,9.1,3,18,5.4,26.6c2.3,8.5,5.1,17,8.5,25.1
			c3.2,7.8,6.9,15.4,11,22.8c3.9,7,8.3,13.9,13.1,20.6c14.9,20.7,37.5,41.6,67.1,62.2c10.3,7.1,21.4,13.9,32.9,20
			c9.2,4.9,18.7,9.4,28.2,13.4c11.1,4.7,19.4,7.5,23.6,8.8c4.2-1.3,12.5-4.1,23.6-8.8c9.5-4,19-8.5,28.2-13.4
			c11.5-6.1,22.6-12.8,32.9-20c29.7-20.5,52.3-41.4,67.2-62.2c4.8-6.7,9.2-13.6,13.1-20.6c4.1-7.4,7.8-15,11-22.8
			c3.3-8.2,6.2-16.6,8.5-25.1c2.3-8.6,4.1-17.6,5.4-26.7c-0.3-7.1-2.4-51.6-2.6-103.6c-16-4.7-29.7-21-29.7-51.1
			c0-29.2,13.2-45.6,28.3-51c-2.7-18.9-5.2-45.7-6-63.8c-27.8-0.6-53.1-3.9-79.6-7.3C-17.2-259.2-49-263.3-86.7-263.3L-86.7-263.3z"
			/>
	</g>
	<g>
		<g>
			<path class="st1" d="M-145.3,30.8c-2.3,1.6-3.3,3.5-3.3,6.2c0,1.3,0.3,2.9,0.6,3.5c1,2.1,3.4,3.8,5.4,4.2
				c1.8,0.3,2.3,0.7,10.8,9.7c4.9,5.2,8.9,9.7,9,9.9c0.1,0.2-2.5,3.2-5.7,6.5c-8,8.4-11.1,11.9-10.9,12.2c0.1,0.1,3.4-0.9,7.2-2.3
				c6.6-2.3,7.2-2.6,9.7-4.9l2.6-2.4l30.7,31.9c16.9,17.5,34.9,36.2,39.9,41.5l9.2,9.6l6.3,1.1c7.1,1.2,8.9,1.3,8.9,0.6
				c0-0.3-0.5-3.9-1.2-8l-1.2-7.4L-67,101.6C-88.8,79-106.7,60.3-106.7,60s0.9-1.5,2.1-2.7c2-2.1,2.2-2.6,4.6-9.9
				c1.4-4.2,2.4-7.8,2.3-7.9c-0.1-0.1-4.2,3.8-9,8.7l-8.8,9l-4.9-4.9c-9.8-10.3-13.6-14.5-14-16.3c-1.1-4.2-3.4-6.2-7.2-6.2
				C-143.3,29.8-144.3,30-145.3,30.8L-145.3,30.8z"/>
			<path class="st1" d="M-28,30.8c2.3,1.6,3.3,3.5,3.3,6.2c0,1.3-0.3,2.9-0.6,3.5c-1,2.1-3.4,3.8-5.4,4.2c-1.8,0.3-2.3,0.7-10.8,9.7
				c-4.9,5.2-8.9,9.7-9,9.9c-0.1,0.2,2.5,3.2,5.7,6.5c8,8.4,11.1,11.9,10.9,12.2c-0.1,0.1-3.4-0.9-7.3-2.3c-6.6-2.3-7.2-2.6-9.7-4.9
				l-2.6-2.4l-30.7,31.9c-16.9,17.5-34.9,36.2-39.9,41.5l-9.2,9.6l-6.3,1.1c-7.1,1.2-8.9,1.3-8.9,0.6c0-0.3,0.5-3.9,1.2-8l1.2-7.4
				l39.7-41.1C-84.6,79-66.7,60.3-66.7,60s-0.9-1.5-2.1-2.7c-2-2.1-2.2-2.6-4.6-9.9c-1.4-4.2-2.4-7.8-2.3-7.9c0.1-0.1,4.2,3.8,9,8.7
				l8.8,9l4.9-4.9C-43.1,42-39.4,37.8-39,36c1.1-4.2,3.4-6.2,7.2-6.2C-30,29.8-29.1,30-28,30.8L-28,30.8z"/>
		</g>
		<g id="Венок">
			<g id="_x31__1_">
				<path id="path1872_1_" class="st3" d="M-38.9,106.8c11-6.5,17.7,2.1,23.6,11.5C-25.3,119.9-35.5,119.5-38.9,106.8z"/>
				<path id="path2784_1_" class="st3" d="M-35.3,100.2c3-14.4,13-16.4,23.1-17.1C-17.8,93.7-24.7,103.6-35.3,100.2z"/>
				<path id="path2790_1_" class="st3" d="M-20.6,103.3c10.6-7.6,17.9,0.2,24.5,9C-6.1,114.8-16.3,115.6-20.6,103.3z"/>
				<path id="path2796_1_" class="st3" d="M-11.1,97.9c-3.4-13.7,4.8-21.6,13.5-28.5C1.9,81.6-0.1,94.1-11.1,97.9z"/>
				<path id="path2802_1_" class="st3" d="M-3.7,98.9c8.7-10.7,17.7-5.8,26,0.2C13.1,104.8,3.2,109-3.7,98.9z"/>
				<path id="path2808_1_" class="st3" d="M7.5,90c-6.8-11.3-1-21.9,5.7-31.7C15.9,69.8,17.1,82.2,7.5,90z"/>
				<path id="path2814_1_" class="st3" d="M12.3,89.6c7-12.4,16.7-9.8,26-5.9C30,91.3,20.8,97.7,12.3,89.6z"/>
				<path id="path2820_1_" class="st3" d="M22.3,78.1c-8.5-9.4-4.3-21,0.9-32C27.6,56.7,30.8,68.4,22.3,78.1z"/>
				<path id="path2826_1_" class="st3" d="M26.1,77c5-13.7,15.1-13.4,24.9-11.8C44,74.5,35.8,82.8,26.1,77z"/>
				<path id="path2832_1_" class="st3" d="M32.7,56.7c-9.4-8.1-6.3-20-2.1-31.6C36,34.9,40.2,45.9,32.7,56.7z"/>
				<path id="path2838_1_" class="st3" d="M33.7,61.1c3.7-14.2,13.8-15.3,23.8-15.2C51.5,56.1,44,65.5,33.7,61.1z"/>
				<path id="path2844_1_" class="st3" d="M41.3,33.9c-10.8-5.1-9.9-17.5-7.9-29.7C40.5,12.1,46.8,21.5,41.3,33.9z"/>
				<path id="path2850_1_" class="st3" d="M41.6,44.9c-0.8-14.5,8.4-20.2,18-24.8C57,32.2,52.8,44,41.6,44.9z"/>
				<path id="path2856_1_" class="st3" d="M41.6,5.9C29.8,4.6,28.1-7.4,27.4-19.6C36.1-14.5,44.3-7.6,41.6,5.9z"/>
				<path id="path2862_1_" class="st3" d="M46.3,22.8c-5-12.8,2.3-22,10.2-30.3C57.5,4.6,56.9,17.1,46.3,22.8z"/>
				<path id="path2868_1_" class="st3" d="M40.1-15.6C28.7-18.5,28-30.7,28.4-43C36.6-36.8,44-28.8,40.1-15.6z"/>
				<path id="path2874_1_" class="st3" d="M45.4-1.8c-7.1-11.1-1.4-21.8,5.1-31.8C53.4-22.2,54.9-9.9,45.4-1.8z"/>
			</g>
			<g id="_x31_">
				<path id="path1872" class="st3" d="M-134.5,106.8c-11-6.5-17.7,2.1-23.6,11.5C-148.1,119.9-137.9,119.5-134.5,106.8z"/>
				<path id="path2784" class="st3" d="M-138,100.2c-3-14.4-13-16.4-23.1-17.1C-155.6,93.7-148.6,103.6-138,100.2z"/>
				<path id="path2790" class="st3" d="M-152.8,103.3c-10.6-7.6-17.9,0.2-24.5,9C-167.3,114.8-157,115.6-152.8,103.3z"/>
				<path id="path2796" class="st3" d="M-162.3,97.9c3.4-13.7-4.8-21.6-13.5-28.5C-175.3,81.6-173.3,94.1-162.3,97.9z"/>
				<path id="path2802" class="st3" d="M-169.6,98.9c-8.7-10.7-17.7-5.8-26,0.2C-186.5,104.8-176.6,109-169.6,98.9z"/>
				<path id="path2808" class="st3" d="M-180.9,90c6.8-11.3,1-21.9-5.7-31.7C-189.2,69.8-190.5,82.2-180.9,90z"/>
				<path id="path2814" class="st3" d="M-185.6,89.6c-7-12.4-16.7-9.8-26-5.9C-203.4,91.3-194.1,97.7-185.6,89.6z"/>
				<path id="path2820" class="st3" d="M-195.7,78.1c8.5-9.4,4.3-21-0.9-32C-201,56.7-204.1,68.4-195.7,78.1z"/>
				<path id="path2826" class="st3" d="M-199.5,77c-5.1-13.7-15.1-13.3-24.9-11.8C-217.4,74.5-209.2,82.8-199.5,77z"/>
				<path id="path2832" class="st3" d="M-206.1,56.7c9.4-8.1,6.3-20,2.1-31.6C-209.3,34.9-213.6,45.9-206.1,56.7z"/>
				<path id="path2838" class="st3" d="M-207.1,61.1c-3.7-14.2-13.8-15.3-23.8-15.2C-224.8,56.1-217.4,65.5-207.1,61.1z"/>
				<path id="path2844" class="st3" d="M-214.6,33.9c10.8-5.1,9.9-17.5,7.9-29.7C-213.9,12.1-220.1,21.5-214.6,33.9z"/>
				<path id="path2850" class="st3" d="M-215,44.9c0.8-14.5-8.4-20.2-18-24.8C-230.3,32.2-226.2,44-215,44.9z"/>
				<path id="path2856" class="st3" d="M-215,5.9c11.8-1.3,13.5-13.3,14.2-25.5C-209.5-14.5-217.7-7.6-215,5.9z"/>
				<path id="path2862" class="st3" d="M-219.7,22.8c5-12.8-2.3-22-10.2-30.3C-230.8,4.6-230.2,17.1-219.7,22.8z"/>
				<path id="path2868" class="st3" d="M-213.5-15.6c11.5-2.9,12.1-15.1,11.8-27.4C-209.9-36.8-217.4-28.8-213.5-15.6z"/>
				<path id="path2874" class="st3" d="M-218.7-1.8c7.1-11.1,1.4-21.8-5.1-31.8C-226.8-22.2-228.3-9.9-218.7-1.8z"/>
			</g>
		</g>
		<g>
			<path class="st1" d="M36.7-93.4c-1.8-4-10.3-11.7-14.6-14.2c-4.3-2.6-48.8-20.3-51.4-20.4c-2.6-0.1-32.4,16.8-38.2,19.3
				s-4.6,2.7-5.9-1.4s1.4-16.6,2.1-33.5c0.7-16.9-10.8-30.4-22-30.6c-11.2-0.2-18.7,8.9-21.5,11.2c-2.7,2.3-11.6,7.5-13.3,8.4
				c-1.6,0.9-1.7,3.6-1.6,5.6c0.2,2,5.8,0.4,24-1.6s14.1,17.3,12.2,25.6s-9.3,17.1-9.3,17.1c-1.1,1.4-1.8,0.4-3.4-0.5
				c-5.5-3.2-35.5-19.7-38-19.6c-2.6,0.1-47.1,17.8-51.4,20.4c-4.3,2.6-12.8,10.2-14.6,14.2s-11.4,23.1-9.1,24.9
				c2.3,1.8,13.4-22.1,14.6-21.4c1.2,0.7-8.9,20.7-9,27.5s0.9,10.9,2.9,12.5c2.1,1.6,2.1,2.9,3-1.2c1-4.1,14.8-38.8,17.2-35.9
				c2.3,2.9-5.1,6.1-7.2,17.5c-2.1,11.4-1.9,18.7-1.9,20.3s0.4,5.4,1.6-0.9c1.2-6.2,10.9-36,13.6-34.4c2.7,1.6-8,19.3-5.4,26
				c2.7,6.7,8.5,8.6,8.6,6.7c0.1-1.9,4.3-19.8,6.1-23.7c1.8-3.9,5.5-12.8,6.7-11.4c1.2,1.3-3.2,10-4.1,16.1c-1,6.1-2.2,12.5-0.4,15
				c1.8,2.4,3.3-9.9,5.2-14.7c1.9-4.9,7.3-19.6,9.7-17.3c2.4,2.3-2.6,7.7-4.1,13.1c-1.5,5.4-1.1,12.5,0.6,14.1s1.8,1.5,2.3-2.3
				c0.5-3.8,1.6-13.5,3.4-17c1.8-3.5,4.4-7.5,5.7-6.6c1.3,1,0.5,2.8-0.9,5.1c-1.3,2.3-6.7,18.1-5.2,21.2c1.5,3,2.7,7.7,3,2.3
				c0.4-5.4,6.7-15.7,10-18.2c3.3-2.6,9.5-9.2,10.6-6.9c1.1,2.3-6.8,6.6-10,11.1s-7.1,14-6.2,18.2c0.9,4.3,0.4,1.7,4.5-4.1
				s18.9-23.1,20.3-19.8c1.5,3.3-17.5,26.3-18.6,27.3s-5.1,4.9,1,1.2c6.1-3.6,12.8-9.5,15.3-13.4c2.6-3.9,6.3-11.9,7.3-11.6
				c1,0.4-11,22.3-14.2,25.6c-3.2,3.4-6.3,6.5-4.4,6.9c1.9,0.5,8.7,3.1,17.8-9.2s7.8-16,9.7-15c1.8,1-7.3,16.3-8.1,18.2
				c-0.8,1.8-1.6,5.4,2.1,2.6c3.6-2.8,7.2-12.5,7.8-11.5c0.6,1-2.6,16.5-2.6,19.1s0.7,6.7,1.1,7.9c0.4,1.2,1.4,2.3,1.5,3.5
				c0,1.2-0.2,5.2-0.6,5.7c-0.4,0.4-6.2,9.5-8,13.2c-1.8,3.6-3.6,9.4-3.9,10.8s-1.2,3.9-0.3,4.2c1,0.4,2.8-2,6.3-0.2
				c3.6,1.8,3.3,3.7,3.4,4.6c0.1,0.9,1.3,2.4,2.5,0.2s1.6-3.3,3.8-3.3c2.2,0,3.7,3.8,5.2,3.6c1.5-0.1,1.2-2.6,1.4-4
				c0.1-1.3,0-14.2-1.6-19s-4.2-8.7-4.2-9.9c0.1-1.1,7.5-18,8.7-18.1c1.2,0,7.3,15.1,8.9,15.1s7.7-15.1,8.9-15.1
				c1.2,0,8.6,16.9,8.7,18.1c0.1,1.1-2.6,5-4.2,9.9s-1.7,17.6-1.6,19c0.1,1.3-0.1,3.8,1.4,4c1.5,0.1,3-3.6,5.2-3.6s2.6,1.1,3.8,3.3
				c1.1,2.1,2.3,0.6,2.5-0.2c0.1-0.9-0.1-2.8,3.4-4.6c3.6-1.8,5.4,0.6,6.3,0.2c1-0.4,0-2.9-0.3-4.2c-0.3-1.4-2.1-7.1-3.9-10.8
				c-1.8-3.6-7.6-12.8-8-13.2s-0.7-4.5-0.6-5.7c0-1.2,1.1-2.2,1.5-3.5c0.4-1.2,1.1-5.3,1.1-7.9c0-2.6-3.3-18.1-2.6-19.1
				c0.6-1,4.2,8.7,7.8,11.5s2.9-0.7,2.1-2.6c-0.8-1.8-9.9-17.2-8.1-18.2s0.5,2.6,9.7,15c9.1,12.3,15.9,9.7,17.8,9.2
				c1.9-0.5-1.2-3.6-4.4-6.9c-3.2-3.4-15.2-25.3-14.2-25.6c1-0.4,4.7,7.7,7.3,11.6s9.2,9.7,15.3,13.4c6.1,3.6,2.1-0.2,1-1.2
				s-20.1-24-18.6-27.3c1.5-3.3,16.2,14,20.3,19.8s3.6,8.4,4.5,4.1s-3-13.7-6.2-18.2S-42-80.7-40.9-83s7.3,4.4,10.6,6.9
				c3.3,2.6,9.6,12.9,10,18.2c0.4,5.4,1.6,0.7,3-2.3c1.5-3-3.9-18.9-5.2-21.2c-1.3-2.3-2.2-4.1-0.9-5.1c1.3-1,3.9,3,5.7,6.6
				c1.8,3.5,2.9,13.3,3.4,17c0.5,3.8,0.6,3.9,2.3,2.3c1.7-1.6,2.2-8.6,0.6-14.1c-1.6-5.5-6.6-10.8-4.1-13.1
				c2.4-2.3,7.8,12.4,9.7,17.3c1.9,4.9,3.4,17.2,5.2,14.7c1.8-2.4,0.6-8.9-0.4-15c-1-6.1-5.4-14.7-4.1-16.1
				c1.2-1.3,4.9,7.5,6.7,11.4c1.8,3.9,6,21.8,6.1,23.7s6,0,8.6-6.7s-8-24.5-5.4-26C13.7-86,23.5-56.2,24.7-50s1.6,2.4,1.6,0.9
				c0-1.6,0.1-8.9-1.9-20.3c-2.1-11.4-9.5-14.6-7.2-17.5S33.4-55.1,34.4-51s1,2.8,3,1.2c2.1-1.6,3-5.7,2.9-12.5s-10.2-26.8-9-27.5
				c1.2-0.7,12.3,23.2,14.6,21.4C48.1-70.3,38.5-89.4,36.7-93.4z"/>
		</g>
		<g>
			<path class="st1" d="M-202.6-184.6L-202.6-184.6l-6.5,2.6l0,0c-0.2,0.1-0.5,0.1-0.7,0l0,0l0,0c-0.2-0.1-0.4-0.3-0.5-0.5l0,0
				l-8.2-20.3l0,0c-0.1-0.2-0.1-0.5,0-0.7l0,0l0,0c0.1-0.2,0.3-0.4,0.5-0.5l0,0l17.1-6.9l0,0c0.2-0.1,0.5-0.1,0.7,0l0,0l0,0
				c0.2,0.1,0.4,0.3,0.5,0.5l0,0l2,5.1l0,0c0.1,0.2,0.1,0.5,0,0.7l0,0l0,0c-0.1,0.2-0.3,0.4-0.5,0.5l0,0l-9.8,3.9l5.8,14.4l0,0
				c0.1,0.2,0.1,0.5,0,0.7l0,0l0,0C-202.3-184.9-202.4-184.7-202.6-184.6z M-182-190.1L-182-190.1l-5.9,1.6l0,0
				c-0.2,0.1-0.5,0-0.7-0.1l0,0l0,0c-0.2-0.1-0.4-0.3-0.4-0.6l0,0l-1.4-5.2l0,0c-0.1-0.2,0-0.5,0.1-0.7l0,0l0,0
				c0.1-0.2,0.3-0.4,0.6-0.4l0,0l4.6-1.2l0,0c1.2-0.3,1.9-0.6,2-0.8l0,0l-11-12.8l0,0c0-0.1-0.1-0.1-0.1-0.2l0,0l0,0
				c-0.1-0.5,0.2-0.9,0.6-1l0,0l7.2-1.9l0,0c0.5-0.1,0.9,0,1.3,0.5l0,0l6,7.6l0.9-9.5l0,0c0.1-0.6,0.4-0.9,0.9-1.1l0,0l6.8-1.8l0,0
				c0.2-0.1,0.4,0,0.6,0.1l0,0l0,0c0.2,0.1,0.3,0.2,0.4,0.4l0,0l0,0c0,0.2,0.1,0.3,0.1,0.3l0,0l-1.8,12.8l0,0
				c-0.3,2.5-0.6,4.3-0.9,5.4l0,0l0,0c-0.3,1.1-0.7,2.3-1.5,3.6l0,0l0,0c-0.7,1.3-1.7,2.3-3,3l0,0l0,0
				C-178.2-191.3-179.9-190.7-182-190.1z M-155.3-209.9L-155.3-209.9l0.6,5.4l0,0c0.1,0.9,0.5,1.6,1.2,2l0,0l0,0
				c0.7,0.4,1.5,0.6,2.5,0.5l0,0l0,0c1-0.1,1.7-0.3,2.1-0.7l0,0l0,0c0.4-0.4,0.7-0.9,1-1.5l0,0l0,0c0.2-0.6,0.6-1,1.1-1l0,0l7.3-0.8
				l0,0c0.2,0,0.4,0,0.5,0.2l0,0l0,0c0.2,0.1,0.3,0.3,0.3,0.5l0,0l0,0c0.2,2.1-0.6,4.1-2.4,6.1l0,0l0,0c-0.9,1-2.1,1.8-3.7,2.5l0,0
				l0,0c-1.6,0.7-3.5,1.2-5.7,1.4l0,0l0,0c-2.2,0.2-4.3,0.1-6.2-0.4l0,0l0,0c-1.9-0.5-3.5-1.5-4.8-2.9l0,0l0,0
				c-1.3-1.4-2.1-3.3-2.3-5.6l0,0l-0.4-4l0,0c-0.2-2.3,0.1-4.3,1.1-6l0,0l0,0c1.8-3.2,5.3-5,10.4-5.6l0,0l0,0c2-0.2,3.9-0.2,5.6,0.2
				l0,0l0,0c1.7,0.4,3.1,0.9,4.2,1.7l0,0l0,0c2.2,1.5,3.4,3.3,3.6,5.4l0,0l0,0c0,0.2,0,0.4-0.2,0.5l0,0l0,0
				c-0.1,0.2-0.3,0.3-0.5,0.3l0,0l-7.3,0.8l0,0c-0.5,0.1-0.9-0.2-1.3-0.8l0,0l0,0c-0.4-0.6-0.8-1-1.3-1.3l0,0l0,0
				c-0.5-0.3-1.2-0.3-2.2-0.2l0,0l0,0c-1,0.1-1.8,0.4-2.4,1l0,0l0,0C-155.2-211.6-155.4-210.8-155.3-209.9z M-131.9-196.8
				L-131.9-196.8L-131.9-196.8c-0.2,0-0.5-0.1-0.7-0.2l0,0l0,0c-0.2-0.2-0.3-0.4-0.3-0.6l0,0l-0.2-5.4l0,0c0-0.2,0.1-0.5,0.2-0.7
				l0,0l0,0c0.2-0.2,0.4-0.3,0.6-0.3l0,0l0,0c0.9,0,1.6-0.3,1.9-0.7l0,0l0,0c0.3-0.4,0.5-1.1,0.5-2l0,0l-0.6-13.3l0,0
				c0-0.2,0.1-0.5,0.2-0.7l0,0l0,0c0.2-0.2,0.4-0.3,0.6-0.3l0,0l19.3-0.9l0,0c0.2,0,0.5,0.1,0.7,0.2l0,0l0,0
				c0.2,0.2,0.3,0.4,0.3,0.6l0,0l1,21.9l0,0c0,0.2-0.1,0.5-0.2,0.7l0,0l0,0c-0.2,0.2-0.4,0.3-0.6,0.3l0,0l-6.3,0.3l0,0
				c-0.2,0-0.5-0.1-0.7-0.2l0,0l0,0c-0.2-0.2-0.3-0.4-0.3-0.6l0,0l-0.7-15.5l-4.8,0.2l0.3,6.8l0,0c0.2,3.3-0.7,5.9-2.5,7.6l0,0l0,0
				C-126-197.9-128.6-197-131.9-196.8z M-101.9-214.6L-101.9-214.6L-101.9-214.6c0.1-2.5,1-4.5,2.9-5.9l0,0l0,0
				c1.8-1.4,4.3-2.1,7.4-2l0,0l13.2,0.3l0,0c0.2,0,0.5,0.1,0.6,0.3l0,0l0,0c0.2,0.2,0.3,0.4,0.3,0.7l0,0l-0.5,21.9l0,0
				c0,0.2-0.1,0.5-0.3,0.6l0,0l0,0c-0.2,0.2-0.4,0.3-0.7,0.3l0,0l-7.3-0.2l0,0c-0.2,0-0.5-0.1-0.6-0.3l0,0l0,0
				c-0.2-0.2-0.3-0.4-0.3-0.7l0,0l0.2-6.7l-2.9-0.1l-3.2,6.6l0,0c-0.3,0.6-0.8,0.8-1.4,0.8l0,0l-7.7-0.2l0,0c-0.2,0-0.4-0.1-0.5-0.2
				l0,0l0,0c-0.1-0.2-0.2-0.3-0.2-0.5l0,0l0,0c0-0.2,0-0.3,0.1-0.4l0,0l4.4-7.7l0,0C-100.8-209.2-101.9-211.5-101.9-214.6z
				 M-91.1-212.6l4.2,0.1l0.1-3.6l-4.2-0.1l0,0c-0.5,0-0.9,0.2-1.2,0.5l0,0l0,0c-0.3,0.4-0.4,0.8-0.4,1.3l0,0l0,0
				c0,0.5,0.1,0.9,0.4,1.2l0,0l0,0C-92-212.8-91.6-212.6-91.1-212.6L-91.1-212.6z M-54.4-220.7L-54.4-220.7l7,0.5l0,0
				c0.2,0,0.5,0.1,0.6,0.3l0,0l0,0c0.2,0.2,0.2,0.4,0.2,0.7l0,0l-1.7,21.9l0,0c0,0.2-0.1,0.5-0.3,0.6l0,0l0,0
				c-0.2,0.2-0.4,0.2-0.7,0.2l0,0l-7-0.5l0,0c-0.2,0-0.5-0.1-0.6-0.3l0,0l0,0c-0.2-0.2-0.2-0.4-0.2-0.7l0,0l0.5-7.2l-6.8-0.5
				l-0.5,7.2l0,0c0,0.2-0.1,0.5-0.3,0.6l0,0l0,0c-0.2,0.2-0.4,0.2-0.7,0.2l0,0l-7-0.5l0,0c-0.2,0-0.5-0.1-0.6-0.3l0,0l0,0
				c-0.2-0.2-0.2-0.4-0.2-0.7l0,0l1.7-21.9l0,0c0-0.2,0.1-0.5,0.3-0.6l0,0l0,0c0.2-0.2,0.4-0.2,0.7-0.2l0,0l7,0.5l0,0
				c0.2,0,0.5,0.1,0.6,0.3l0,0l0,0c0.2,0.2,0.2,0.4,0.2,0.7l0,0l-0.5,6.9l6.8,0.5l0.5-6.9l0,0c0-0.2,0.1-0.5,0.3-0.6l0,0l0,0
				C-54.8-220.7-54.6-220.7-54.4-220.7z M-36.2-219.6L-36.2-219.6l17.8,2.4l0,0c0.2,0,0.4,0.2,0.6,0.4l0,0l0,0
				c0.2,0.2,0.2,0.4,0.2,0.7l0,0l-2,15.4l1.7,0.2l0,0c0.2,0,0.4,0.2,0.6,0.4l0,0l0,0c0.2,0.2,0.2,0.4,0.2,0.7l0,0l-1.3,9.6l0,0
				c0,0.2-0.2,0.4-0.4,0.6l0,0l0,0c-0.2,0.2-0.4,0.2-0.7,0.2l0,0l-5.5-0.7l0,0c-0.2,0-0.4-0.2-0.6-0.4l0,0l0,0
				c-0.2-0.2-0.2-0.4-0.2-0.7l0,0l0.4-3.3l-11.5-1.5l-0.4,3.3l0,0c0,0.2-0.2,0.4-0.4,0.6l0,0l0,0c-0.2,0.2-0.4,0.2-0.7,0.2l0,0
				l-5.4-0.7l0,0c-0.2,0-0.4-0.1-0.6-0.3l0,0l0,0c-0.2-0.2-0.2,0.3-0.2,0l0,0l1.3-10.3l0,0c0-0.2,0.2-0.4,0.4-0.6l0,0l0,0
				c0.2-0.2,0.4-0.2,0.7-0.2l0,0l0.5,0.1l0,0c0.5,0.1,1.1-0.1,1.7-0.5l0,0l0,0c0.6-0.4,0.9-1,1-1.8l0,0l1.7-12.8l0,0
				c0-0.2,0.2-0.4,0.4-0.6l0,0l0,0C-36.6-219.5-36.4-219.6-36.2-219.6z M-27.7-201.8l1.3-9.4l-3.4-0.5l-0.9,6.9l0,0
				c-0.2,1.3-0.4,2.1-0.6,2.5l0,0L-27.7-201.8z M-6.7-214.2L-6.7-214.2l6.1,1.5l0,0c0.2,0.1,0.4,0.2,0.6,0.4l0,0l0,0
				c0.1,0.2,0.2,0.4,0.1,0.7l0,0l-2.4,9.7l9.6-8.1l0,0c0.4-0.4,0.9-0.5,1.4-0.3l0,0L14-209l0,0c0.2,0.1,0.4,0.2,0.6,0.4l0,0l0,0
				c0.1,0.2,0.2,0.4,0.1,0.7l0,0l-5.3,21.3l0,0c-0.1,0.2-0.2,0.4-0.4,0.6l0,0l0,0c-0.2,0.1-0.4,0.2-0.7,0.1l0,0l-6.1-1.5l0,0
				c-0.2-0.1-0.4-0.2-0.6-0.4l0,0l0,0c-0.1-0.2-0.2-0.4-0.1-0.7l0,0l2.2-9l-9.5,7.4l0,0c-0.5,0.4-1,0.5-1.5,0.4l0,0l-5.3-1.3l0,0
				c-0.2-0.1-0.4-0.2-0.6-0.4l0,0l0,0c-0.1-0.2-0.2-0.4-0.1-0.7l0,0l5.3-21.3l0,0c0.1-0.2,0.2-0.4,0.4-0.6l0,0l0,0
				C-7.2-214.2-7-214.3-6.7-214.2z M20-198.6L20-198.6L20-198.6c1-2.3,2.6-3.8,4.8-4.5l0,0l0,0c2.2-0.7,4.8-0.4,7.6,0.8l0,0
				l12.2,5.1l0,0c0.2,0.1,0.4,0.3,0.5,0.5l0,0l0,0c0.1,0.2,0.1,0.5,0,0.7l0,0l-8.4,20.2l0,0c-0.1,0.2-0.3,0.4-0.5,0.5l0,0l0,0
				c-0.2,0.1-0.5,0.1-0.7,0l0,0l-6.8-2.8l0,0c-0.2-0.1-0.4-0.3-0.5-0.5l0,0l0,0c-0.1-0.2-0.1-0.5,0-0.7l0,0l2.6-6.1l-2.6-1.1
				l-5.3,5.1l0,0c-0.5,0.4-1,0.5-1.6,0.2l0,0l-7.1-2.3l0,0c-0.2-0.1-0.3-0.2-0.4-0.4l0,0l0,0c-0.1-0.2-0.1-0.4,0-0.5l0,0l0,0
				c0.1-0.1,0.1-0.3,0.2-0.3l0,0l6.9-6.3l0,0C19-193.3,18.8-195.8,20-198.6z M29.3-192.9l3.9,1.6l1.4-3.3l-3.9-1.6l0,0
				c-0.5-0.2-0.9-0.2-1.3,0.1l0,0l0,0c-0.4,0.2-0.7,0.6-0.9,1.1l0,0l0,0c-0.2,0.5-0.2,0.9-0.1,1.3l0,0l0,0
				C28.6-193.4,28.8-193.1,29.3-192.9L29.3-192.9z"/>
		</g>
	</g>
</g>
</svg>
