<?xml version="1.0" encoding="utf-8"?>
<svg version="1.1" xmlns="http://www.w3.org/2000/svg" xmlns:xlink="http://www.w3.org/1999/xlink" x="0px" y="0px"
	 viewBox="0 0 1000 1000" style="enable-background:new 0 0 1000 1000;" xml:space="preserve">
<style type="text/css">
	.st0{fill:#DD2222;}
	.st1{fill:#FFFFFF;}
</style>
<g>
	<path class="st0" d="M130,20l0,539.7C130.2,791.9,295.8,980,500,980V20H130z"/>
	<path class="st1" d="M500,980c204.2,0,369.8-188.1,370-420.3L870,20H500V980z"/>
</g>
<g>
	<path d="M365,950.1c41.8,18.7,87.4,28.9,135,28.9s93.2-10.2,135-28.9V19H365V950.1z"/>
	<path d="M130,344l0,215.7c0,19.1,1.2,37.9,3.4,56.3h733.3c2.2-18.4,3.3-37.2,3.4-56.3l0-215.7H130z"/>
</g>
<g>
	<path d="M865,25l0,535.3c-0.1,56.2-9.8,110.6-29,161.8c-18.5,49.4-44.9,93.8-78.5,131.9c-33.5,38-72.6,67.8-116,88.6
		C596.7,964.1,549.1,975,500,975s-96.7-10.9-141.5-32.4C315,921.8,276,892,242.5,854c-33.6-38.1-60-82.5-78.5-131.9
		c-19.2-51.2-28.9-105.7-29-161.8L135,25H865 M875,15H125l0,545.3C125.2,794.9,293,985,500,985s374.8-190.1,375-424.7L875,15L875,15
		z"/>
</g>
<g>
	<path class="st0" d="M660,487.5v-15h-17.7c-0.4-7.5-1.4-14.9-2.9-22.1l17.1-4.6l-3.9-14.5l-17.1,4.6c-2.3-7.1-5.2-14-8.5-20.6
		l15.3-8.8l-7.5-13l-15.3,8.8c-4.1-6.2-8.6-12.2-13.6-17.7l12.5-12.5l-10.6-10.6l-12.5,12.5c-5.5-5-11.4-9.5-17.7-13.6l8.8-15.3
		l-13-7.5l-8.8,15.3c-6.6-3.4-13.5-6.2-20.6-8.5l4.6-17.1l-14.5-3.9l-4.6,17.1c-7.2-1.5-14.6-2.5-22.1-2.9V320h-15v17.7
		c-7.5,0.4-14.9,1.4-22.1,2.9l-4.6-17.1l-14.5,3.9l4.6,17.1c-7.1,2.3-14,5.2-20.6,8.5l-8.8-15.3l-13,7.5l8.8,15.3
		c-6.2,4.1-12.2,8.6-17.7,13.6l-12.5-12.5l-10.6,10.6l12.5,12.5c-5,5.5-9.5,11.4-13.6,17.7l-15.3-8.8l-7.5,13l15.3,8.8
		c-3.4,6.6-6.2,13.5-8.5,20.6l-17.1-4.6l-3.9,14.5l17.1,4.6c-1.5,7.2-2.5,14.6-2.9,22.1H340v15h17.7c0.4,7.5,1.4,14.9,2.9,22.1
		l-17.1,4.6l3.9,14.5l17.1-4.6c2.3,7.1,5.2,14,8.5,20.6l-15.3,8.8l7.5,13l15.3-8.8c4.1,6.2,8.6,12.2,13.6,17.7l-12.5,12.5l10.6,10.6
		l12.5-12.5c5.5,5,11.4,9.5,17.7,13.6l-8.8,15.3l13,7.5l8.8-15.3c6.6,3.4,13.5,6.2,20.6,8.5l-4.6,17.1l14.5,3.9l4.6-17.1
		c7.2,1.5,14.6,2.5,22.1,2.9V640h15v-17.7c7.5-0.4,14.9-1.4,22.1-2.9l4.6,17.1l14.5-3.9l-4.6-17.1c7.1-2.3,14-5.2,20.6-8.5l8.8,15.3
		l13-7.5l-8.8-15.3c6.2-4.1,12.2-8.6,17.7-13.6l12.5,12.5l10.6-10.6l-12.5-12.5c5-5.5,9.5-11.4,13.6-17.7l15.3,8.8l7.5-13l-15.3-8.8
		c3.4-6.6,6.2-13.5,8.5-20.6l17.1,4.6l3.9-14.5l-17.1-4.6c1.5-7.2,2.5-14.6,2.9-22.1H660z"/>
	<circle cx="500" cy="480" r="125"/>
	<circle class="st0" cx="500" cy="480" r="105"/>
	<path d="M590,486.1v-12.7h-15.3c-0.8-9-3.2-17.6-6.9-25.5l13.3-7.7l-6.4-11l-13.4,7.7c-5.1-7.2-11.4-13.5-18.6-18.5l7.8-13.4
		l-11-6.4l-7.8,13.5c-7.8-3.7-16.4-6-25.4-6.8v-15.6h-12.7v15.6c-9,0.8-17.6,3.1-25.4,6.8l-7.8-13.5l-11,6.4l7.8,13.4
		c-7.3,5-13.6,11.3-18.6,18.5l-13.4-7.7l-6.4,11l13.3,7.7c-3.7,7.8-6.1,16.4-6.9,25.5H410v12.7h15.3c0.7,9.1,3.1,17.7,6.7,25.6
		l-13.1,7.6l6.4,11l13.1-7.6c5.1,7.3,11.4,13.7,18.7,18.8l-7.5,13l11,6.4l7.5-13c7.9,3.7,16.5,6.1,25.6,6.9v15h12.7v-15
		c9.1-0.8,17.8-3.1,25.6-6.9l7.5,13l11-6.4l-7.5-13c7.3-5.1,13.6-11.5,18.7-18.8l13.1,7.6l6.4-11l-13.1-7.6c3.7-7.9,6-16.5,6.7-25.6
		H590z"/>
</g>
</svg>
