<?xml version="1.0" encoding="utf-8"?>
<svg version="1.1" xmlns="http://www.w3.org/2000/svg" xmlns:xlink="http://www.w3.org/1999/xlink" x="0px" y="0px"
	 viewBox="0 0 1000 1000" style="enable-background:new 0 0 1000 1000;" xml:space="preserve">
<style type="text/css">
	.st0{fill:#FF7F00;stroke:#000000;stroke-width:4;stroke-miterlimit:10;}
	.st1{fill:#FFFFFF;stroke:#000000;stroke-width:4;stroke-miterlimit:10;}
	.st2{fill:none;stroke:#000000;stroke-width:4;stroke-miterlimit:10;}
	.st3{fill:#FFBB00;stroke:#000000;stroke-width:4;stroke-miterlimit:10;}
</style>
<g>
</g>
<g>
	<g>
		<g>
			<path class="st0" d="M463.6,822.8c0,0-3.8,16.7-15.6,24.3c-11.9,7.6-27.6,16.2-32.5,19.4c-4.9,3.2-63.7,20.4-68.2,23.1
				s-21.6,10.5-34.4,11.9c-12.7,1.4-24.5,5.7-25.3,10.9s58.2,0.2,50.2,16.6s-16.4,22.2-5.9,20s53.6-22.2,89.6-22.2
				s70.8-4.4,75.6-8.5s-12.2-6.3-12.2-12s17.3-41.6,20.7-48c3.4-6.5,6.5-28.1,6.5-28.1L463.6,822.8z"/>
			<path class="st0" d="M585.5,845.4c0,0,7,19.4,0,33.4s-38.8,42.3-55.6,51.8c-16.7,9.4-25.1,17.8-12.9,15.6
				c12.1-2.2,45.6-5.5,54.5,0.3c8.9,5.9,28.3,27.4,33.7,28.8c5.4,1.3,36.1-31.6,40.4-34c4.3-2.4,24.5-15.1,39.9-14.3
				c15.4,0.8,49.6,10,57.7,10.5c8.1,0.5,14.6,0.8,8.1-4.6c-6.5-5.4-103.3-49.9-107.6-55c-4.3-5.1-9.4-12.7-9.4-18.9
				c0-6.2-4.9-17.8-10.8-16.2C617.6,844.6,585.5,845.4,585.5,845.4z"/>
			<g>
				<g>
					<path d="M377.1,903.1c8.7,3.5,18.1,5.3,27.5,5.2c1.9,0,1.9-3,0-3c-9.2,0.1-18.2-1.6-26.7-5.1
						C376.1,899.5,375.3,902.4,377.1,903.1L377.1,903.1z"/>
				</g>
			</g>
			<g>
				<g>
					<path d="M602.7,914.7c8.5-1.2,17.1-2.4,25.6-3.7c7.7-1.1,16.1-1.5,23-5.6c1.7-1,0.2-3.6-1.5-2.6c-3.3,1.9-7,2.9-10.7,3.6
						c-4,0.7-8,1.2-12,1.8c-8.4,1.2-16.8,2.4-25.1,3.6C600,912,600.8,914.9,602.7,914.7L602.7,914.7z"/>
				</g>
			</g>
		</g>
		<g>
			<path class="st1" d="M573.7,86.4C573.6,86.4,573.6,86.3,573.7,86.4c-1.1-1.1-19.5-18.7-25.1-27c-5.3-7.7-24.5-23.5-58-22.7
				c-33.4,0.8-66.8,34.7-72.8,55.3c-2.4,8.2-3,26-3.1,28.6c0,0.2,0,0.4,0.2,0.6c3.4,5.9,56.9,99.6,54.7,106.2
				c-2.3,6.8-96.5,244.3-105.7,293.9c-6.9,37.3-8.8,46.3-9.3,48.4c-0.1,0.4-0.4,0.7-0.8,0.9c-3.7,1.2-22.7,7.9-33,22.5
				c-11.3,16.2-24.7,50.6-15.4,72.8c8.4,20.1,18.1,26.3,19.9,27.3c0.2,0.1,1.2,11.2,6.1,25c8.9,25.3,64.2,111.7,191.5,132.7
				C654,872.4,689,814.7,711.2,795.3c22.1-19.4,83.6-71.5,80.4-103.3c-3.2-31.8-11.1-31.3-11.3-49.1c-0.3-17.8-11.2-23.2-11.2-28
				s20.2-33.2,18.6-55.8c-1.6-22.7-11.5-33.4-16-37.5c-3.9-3.5-17.4-3.8-21.1-3.8c-0.6,0-1.1-0.4-1.2-1c-1.3-6.3-8.9-41.1-21.7-46.2
				c-14-5.7-26.4-23.5-46.7,2.7c-14.6,18.9-19,28.1-20.2,31.7c-0.3,0.8-1.3,1.1-2,0.5c-3.1-3-10.8-9.3-16.6-5.5
				c-7.6,4.9-15.9,17.5-17.5,25.6s-0.8,19.4-4,20.8c-3.2,1.3-11.9,5.1-14.6,4.6c-2.7-0.5-36.7-23.8-46.4-51s-19.7-68.8-20.2-102.5
				s25.6-170.7,30.5-180.4c4.9-9.7,13.6-20,25.9-32.6c18.3-18.9,14.7-44.1,7.8-57C596.9,114.8,574.8,87.7,573.7,86.4z"/>
			<g>
				<g>
					<path d="M353.4,570.4c-0.1,6.4,0,12.9-0.1,19.3c-0.1,6.3-0.3,12.6-0.2,18.9c0.2,12.5,1.1,25,4,37.1c1.6,6.7,3.9,13.6,2.1,20.4
						c-0.5,1.9,2.4,2.7,2.9,0.8c1.6-6.1,0.3-12.4-1.2-18.4c-1.5-6.1-2.7-12.1-3.5-18.3c-1.5-12.5-1.4-25.2-1.2-37.8
						c0.2-7.4,0-14.8,0.2-22.2C356.5,568.5,353.5,568.5,353.4,570.4L353.4,570.4z"/>
				</g>
			</g>
			<g>
				<g>
					<path d="M353.7,585.5c-9.3,11.2-15.3,24.7-19.2,38.7c-2,7.1-3.5,14.3-4.8,21.5c-1.4,7.7-3,15.4-4.5,23.1
						c-1.6,8.3-2.4,16.6-1,25c0.3,1.9,3.2,1.1,2.9-0.8c-1.2-7.2-0.6-14.5,0.7-21.7c1.4-7.5,3.1-15,4.4-22.5
						c2.4-13.9,5.5-27.9,11.2-40.9c3.2-7.3,7.3-14.1,12.4-20.3C357,586.1,354.9,584,353.7,585.5L353.7,585.5z"/>
				</g>
			</g>
			<g>
				<g>
					<path d="M660.2,502.8c-1.9,7.8-4.3,15.4-6.3,23.2c-0.5,1.9,2.4,2.7,2.9,0.8c1.9-7.8,4.3-15.4,6.3-23.2
						C663.5,501.8,660.6,501,660.2,502.8L660.2,502.8z"/>
				</g>
			</g>
			<g>
				<g>
					<path d="M748.9,517.2c-5.9,3.4-11.1,8.2-14,14.4c-0.3,0.7-0.2,1.6,0.5,2.1c0.7,0.4,1.7,0.2,2.1-0.5c2.7-5.8,7.4-10.2,12.9-13.3
						C752,518.8,750.5,516.2,748.9,517.2L748.9,517.2z"/>
				</g>
			</g>
			<path class="st2" d="M612,549.8c-18.6,8.4-89.2,56.3-85.7,135.1c3.5,79.6,44.9,76,59.5,76c14.6,0,54.6-9.3,101.9-82.9
				c47.3-73.6,51.4-94.2,53-105.6c1.6-11.3,0.8-25.9-6.5-27.1c-7.3-1.2-34,14.6-34,14.6S691.3,527.1,612,549.8z"/>
			<g>
				<g>
					<path d="M697.9,560.2c-7.4,4.2-14.3,9.1-20.4,14.9c-7,6.7-13,14.3-19,21.9c-1.2,1.5,0.9,3.6,2.1,2.1c5.9-7.5,11.8-15,18.7-21.6
						c6.1-5.8,12.8-10.6,20.1-14.8C701.1,561.8,699.5,559.2,697.9,560.2L697.9,560.2z"/>
				</g>
			</g>
			<path d="M491.7,123.8c0,0,6.2,15,13.3,9.3c7.1-5.7,1.8-22-2.7-24.9S484.8,107.4,491.7,123.8z"/>
		</g>
		<g>
			<path class="st3" d="M465.2,119.8c0,0-17.8-22.2-31.6-22.2s-34.4,15.8-45.3,34.4s-7.7,24.7-10.9,25.9s-34.4,17.4-35.6,41.3
				c-1.2,23.9,50.6,32,91,30.7s63.1-4,71.6-18.2c8.5-14.2,3.2-25.3-1.5-30.2c-4.7-4.9-16.7-21.7-16.7-27.9
				C486.3,147.3,465.2,119.8,465.2,119.8z"/>
			<g>
				<g>
					<path d="M429.9,139.6c-2.7,2.9-3,6.8-3.1,10.5c0,0.8,0.7,1.5,1.5,1.5c0.8,0,1.5-0.7,1.5-1.5c0-1.7,0.1-3.3,0.4-4.8
						c0.3-1.4,0.8-2.6,1.7-3.6c0.5-0.6,0.6-1.6,0-2.1C431.5,139.1,430.5,139,429.9,139.6L429.9,139.6z"/>
				</g>
			</g>
		</g>
	</g>
</g>
</svg>
