<?xml version="1.0" encoding="utf-8"?>
<!-- Generator: Adobe Illustrator 25.2.3, SVG Export Plug-In . SVG Version: 6.00 Build 0)  -->
<svg version="1.1" xmlns="http://www.w3.org/2000/svg" xmlns:xlink="http://www.w3.org/1999/xlink" x="0px" y="0px"
	 viewBox="0 0 600 600" style="enable-background:new 0 0 600 600;" xml:space="preserve">
<style type="text/css">
	.st0{display:none;fill:#FFFFFF;}
	.st1{fill:#FFFFFF;}
	.st2{fill:#DD1C24;}
	.st3{fill-rule:evenodd;clip-rule:evenodd;fill:#FFFFFF;}
</style>
<g transform="matrix(1.185,0,0,1.185,452.725,375)">
	<g>
		<path class="st0" d="M-128.9-314c-38.2,0-70.3,4.1-101.3,8.1c-26.4,3.4-51.4,6.6-78.8,7.3c-4.4,0.1-8,3.6-8.2,8.1
			c-0.8,17.9-3.2,44.4-5.9,63c-0.6,4,1.7,7.8,5.5,9.1c14.2,5.1,22.7,21.2,22.7,43.1c0,22.6-8.8,38.6-23.6,43c-3.6,1.1-6,4.3-6.1,8.1
			c-0.2,51.5-2.2,95.1-2.6,103.3c0,0.5,0,1,0.1,1.6c1.3,9.4,3.2,18.7,5.6,27.7c2.4,8.9,5.3,17.7,8.8,26.2
			c3.3,8.1,7.2,16.1,11.5,23.7c4.1,7.3,8.7,14.5,13.6,21.4c15.4,21.5,38.7,43.1,69.2,64.2c10.6,7.3,22,14.2,33.8,20.5
			c9.4,5,19.2,9.6,28.9,13.7c11.6,4.9,20.2,7.8,24.4,9.1c0.8,0.3,1.7,0.4,2.5,0.4c0.9,0,1.7-0.1,2.5-0.4c4.1-1.3,12.8-4.2,24.4-9.1
			c9.7-4.1,19.5-8.7,28.9-13.7c11.8-6.3,23.2-13.2,33.8-20.5c30.5-21.1,53.8-42.7,69.2-64.2c5-6.9,9.5-14.1,13.6-21.4
			c4.3-7.7,8.1-15.7,11.5-23.7c3.5-8.5,6.4-17.3,8.8-26.2c2.4-9,4.3-18.3,5.6-27.7c0.1-0.5,0.1-1,0.1-1.6
			C69-29.2,67-72.8,66.8-124.2c0-3.7-2.5-7-6.1-8.1c-14.8-4.3-23.6-20.4-23.6-43c0-21.9,8.5-38,22.7-43.1c3.8-1.3,6.1-5.2,5.5-9.1
			c-2.6-18.6-5.1-45.1-5.9-63c-0.2-4.4-3.8-8-8.2-8.1c-27.4-0.6-52.3-3.8-78.7-7.3C-58.6-309.8-90.6-314-128.9-314z"/>
		<polygon class="st1" points="-308.6,-233.5 -285.4,-202.7 -282,-164.5 -295.3,-132.4 -312,-122.6 -312,-1.3 -282,64.8 
			-227.8,120.2 -148.8,168.3 -128.9,173.5 -69.3,148.2 2.5,93.6 47.8,22.3 56,-34.6 56,-116.7 31.4,-139.2 23.2,-185.6 39,-221.1 
			50.8,-228.1 44.4,-283.6 -128,-301 -301.8,-283.6 		"/>
		<path class="st2" d="M-87.3,137.4c10.8-5.7,21.1-12,30.8-18.7C-29,99.6-8.2,80.5,5.2,61.8c4.3-6,8.3-12.2,11.8-18.5
			c3.7-6.6,7-13.5,9.9-20.4c3-7.3,5.5-14.9,7.6-22.5c1.9-7.1,3.4-14.5,4.5-22c-0.5-10.9-2-46.2-2.4-89
			c-16.2-10.9-29.8-31.7-29.8-64.7c0-27.4,9.7-49.7,26.6-62.8c-1.2-10-2.2-20.8-3-31c-21.1-1.4-41-3.9-61.8-6.6
			c-30.1-3.9-61.2-7.9-97.5-7.9c-36.3,0-67.4,4-97.5,7.9c-20.8,2.7-40.7,5.2-61.8,6.6c-0.8,10.1-1.8,21-3,31
			c16.9,13.1,26.6,35.4,26.6,62.8c0,33-13.6,53.8-29.8,64.7c-0.4,42.7-1.9,78-2.4,89c1.1,7.5,2.6,14.9,4.5,22
			c2,7.6,4.6,15.2,7.6,22.5c2.8,6.9,6.2,13.8,9.9,20.4c3.5,6.3,7.5,12.5,11.8,18.5c13.4,18.7,34.2,37.8,61.8,56.9
			c9.6,6.7,20,12.9,30.8,18.7c8.6,4.6,17.5,8.8,26.4,12.5c6.1,2.5,11.2,4.5,15.1,5.9c3.9-1.4,9.1-3.3,15.1-5.9
			C-104.9,146.2-96,142-87.3,137.4z"/>
		<path class="st2" d="M-128.9-295.4c37,0,68.5,4.1,99,8c23.9,3.1,46.6,6,71.3,7.1c0.9,14.9,2.6,33,4.5,48
			c-17.3,9.9-27.4,30.6-27.4,57c0,27.9,11,49,29.8,58c0.3,47.1,2.1,86.4,2.5,96.2c-1.2,8.3-2.9,16.6-5,24.5
			c-2.2,8.1-4.9,16.1-8,23.9c-3,7.4-6.5,14.7-10.5,21.7c-3.7,6.7-7.9,13.3-12.5,19.6c-14.2,19.8-36,39.9-64.7,59.7
			c-10,6.9-20.8,13.4-31.9,19.4c-9,4.8-18.2,9.1-27.4,13c-8.5,3.6-15.3,6-19.7,7.5c-4.4-1.5-11.2-3.9-19.7-7.5
			c-9.2-3.9-18.5-8.2-27.4-13c-11.2-5.9-21.9-12.4-31.9-19.4c-28.7-19.9-50.5-39.9-64.7-59.7c-4.6-6.4-8.8-13-12.5-19.6
			c-3.9-7-7.4-14.3-10.5-21.7c-3.2-7.7-5.9-15.8-8.1-23.9c-2.1-7.9-3.8-16.2-5-24.5c0.5-9.8,2.2-49.1,2.5-96.2
			c18.8-9.1,29.8-30.2,29.8-58c0-26.4-10.1-47.1-27.4-57c1.9-15,3.6-33.1,4.5-48c24.7-1.1,47.4-4,71.3-7.1
			C-197.4-291.3-165.9-295.4-128.9-295.4 M-128.9-305.5c-37.7,0-69.5,4.1-100.3,8.1c-26.6,3.4-51.8,6.7-79.7,7.3
			c-0.8,18.1-3.3,44.9-6,63.8c15.1,5.4,28.3,21.8,28.3,51c0,30.1-13.7,46.4-29.7,51.1c-0.2,52.1-2.3,96.6-2.6,103.6
			c1.2,9.1,3,18,5.4,26.6c2.3,8.5,5.1,17,8.5,25.1c3.2,7.8,6.9,15.4,11,22.8c3.9,7,8.3,13.9,13.1,20.6
			c14.9,20.7,37.5,41.6,67.1,62.2c10.3,7.1,21.4,13.9,32.9,20c9.2,4.9,18.7,9.4,28.2,13.4c11.1,4.7,19.4,7.5,23.6,8.8
			c4.2-1.3,12.5-4.1,23.6-8.8c9.5-4,19-8.5,28.2-13.4c11.5-6.1,22.6-12.8,32.9-20c29.7-20.5,52.3-41.4,67.2-62.2
			C27.8,68,32.2,61,36.2,54c4.1-7.4,7.8-15,11-22.8c3.3-8.2,6.2-16.6,8.5-25.1c2.3-8.6,4.1-17.6,5.4-26.7
			c-0.3-7.1-2.4-51.6-2.6-103.6c-16-4.7-29.7-21-29.7-51.1c0-29.2,13.2-45.6,28.3-51c-2.7-18.9-5.2-45.7-6-63.8
			c-27.8-0.6-53.1-3.9-79.6-7.3C-59.4-301.4-91.2-305.5-128.9-305.5L-128.9-305.5z"/>
	</g>
	<g>
		<g>
			<path class="st1" d="M-158.8,12.4l-17.4-18c-0.6-0.6-0.9-1.4-0.9-2.2c-0.1-1.6-0.8-3.2-2-4.5c-2.8-3-7.6-3.2-10.7-0.4
				c-3.2,2.9-3.3,7.8-0.3,10.9c1.3,1.3,2.9,2.1,4.5,2.3c0.8,0.1,1.6,0.4,2.1,1l17.4,18c0.6,0.7,0.6,1.7,0,2.4l-15.4,14.9
				c-0.3,0.3,0,0.8,0.4,0.7l12.6-2.3c0.7-0.1,1.3-0.4,1.7-0.9l3.5-3.4c0.7-0.6,1.7-0.6,2.4,0l77.2,79.9c0.5,0.5,1.2,0.9,1.9,1
				l13.3,2.3c0.6,0.1,1.1-0.4,1-0.9l-1.8-13.3c-0.1-0.7-0.4-1.4-0.9-1.9L-147.5,18c-0.6-0.7-0.6-1.7,0-2.4l3.5-3.4
				c0.5-0.5,0.8-1.1,1-1.7l2.7-12.5c0.1-0.4-0.4-0.7-0.7-0.4l-15.4,14.9C-157,13.1-158.1,13.1-158.8,12.4z"/>
			<path class="st1" d="M-91.7,19.5l17.4-18c0.6-0.6,1.3-0.9,2.1-1c1.6-0.2,3.2-0.9,4.5-2.2c2.9-2.9,2.9-7.7,0-10.7
				c-3-3.1-7.9-3-10.9,0c-1.3,1.3-2,2.9-2.1,4.6C-80.7-7-81-6.2-81.6-5.6l-17.4,18c-0.6,0.7-1.7,0.7-2.4,0l-15.4-14.9
				c-0.3-0.3-0.8,0-0.7,0.4l2.7,12.5c0.1,0.7,0.5,1.2,1,1.7l3.5,3.4c0.7,0.6,0.7,1.7,0,2.4l-77.2,79.9c-0.5,0.5-0.8,1.2-0.9,1.9
				l-1.8,13.3c-0.1,0.6,0.4,1,1,0.9l13.2-2.3c0.7-0.1,1.4-0.5,1.9-1l77.2-79.9c0.6-0.7,1.7-0.7,2.4,0l3.5,3.4
				c0.5,0.5,1.1,0.8,1.7,0.9l12.6,2.3c0.4,0.1,0.7-0.4,0.4-0.7l-15.4-14.9C-92.3,21.2-92.4,20.1-91.7,19.5z"/>
		</g>
		<g id="Венок">
			<g id="_x31__1_">
				<path id="path1872_1_" class="st3" d="M-81.1,64.6c11-6.5,17.7,2.1,23.6,11.5C-67.5,77.7-77.7,77.3-81.1,64.6z"/>
				<path id="path2784_1_" class="st3" d="M-77.5,58c3-14.4,13-16.4,23.1-17.1C-60,51.5-66.9,61.5-77.5,58z"/>
				<path id="path2790_1_" class="st3" d="M-62.8,61.1c10.6-7.6,17.9,0.2,24.5,9C-48.3,72.6-58.5,73.4-62.8,61.1z"/>
				<path id="path2796_1_" class="st3" d="M-53.3,55.7c-3.4-13.7,4.8-21.6,13.5-28.5C-40.3,39.4-42.3,51.9-53.3,55.7z"/>
				<path id="path2802_1_" class="st3" d="M-45.9,56.7c8.7-10.7,17.7-5.8,26,0.2C-29,62.6-39,66.8-45.9,56.7z"/>
				<path id="path2808_1_" class="st3" d="M-34.7,47.8c-6.8-11.3-1-21.9,5.7-31.7C-26.3,27.6-25.1,40-34.7,47.8z"/>
				<path id="path2814_1_" class="st3" d="M-29.9,47.4c7-12.4,16.7-9.8,26-5.9C-12.2,49.1-21.4,55.5-29.9,47.4z"/>
				<path id="path2820_1_" class="st3" d="M-19.9,35.9c-8.5-9.4-4.3-21,0.9-32C-14.6,14.5-11.4,26.2-19.9,35.9z"/>
				<path id="path2826_1_" class="st3" d="M-16.1,34.8C-11,21.1-1,21.4,8.8,23C1.8,32.4-6.4,40.7-16.1,34.8z"/>
				<path id="path2832_1_" class="st3" d="M-9.5,14.5c-9.4-8.1-6.3-20-2.1-31.6C-6.2-7.3-2,3.7-9.5,14.5z"/>
				<path id="path2838_1_" class="st3" d="M-8.5,18.9C-4.7,4.7,5.4,3.6,15.4,3.7C9.3,13.9,1.8,23.3-8.5,18.9z"/>
				<path id="path2844_1_" class="st3" d="M-0.9-8.3c-10.8-5.1-9.9-17.5-7.9-29.7C-1.7-30.1,4.6-20.7-0.9-8.3z"/>
				<path id="path2850_1_" class="st3" d="M-0.6,2.7c-0.8-14.5,8.4-20.2,18-24.8C14.8-10,10.6,1.8-0.6,2.7z"/>
				<path id="path2856_1_" class="st3" d="M-0.6-36.3c-11.8-1.3-13.5-13.3-14.2-25.5C-6-56.7,2.1-49.8-0.6-36.3z"/>
				<path id="path2862_1_" class="st3" d="M4.1-19.4c-5-12.8,2.3-22,10.2-30.3C15.3-37.6,14.7-25,4.1-19.4z"/>
				<path id="path2868_1_" class="st3" d="M-2.1-57.8c-11.5-2.9-12.1-15.1-11.8-27.4C-5.6-79,1.8-71-2.1-57.8z"/>
				<path id="path2874_1_" class="st3" d="M3.2-44c-7.1-11.1-1.4-21.8,5.1-31.8C11.2-64.3,12.7-52.1,3.2-44z"/>
			</g>
			<g id="_x31_">
				<path id="path1872" class="st3" d="M-176.7,64.6c-11-6.5-17.7,2.1-23.6,11.5C-190.3,77.7-180.1,77.3-176.7,64.6z"/>
				<path id="path2784" class="st3" d="M-180.2,58c-3-14.4-13-16.4-23.1-17.1C-197.7,51.5-190.8,61.5-180.2,58z"/>
				<path id="path2790" class="st3" d="M-194.9,61.1c-10.6-7.6-17.9,0.2-24.5,9C-209.5,72.6-199.2,73.4-194.9,61.1z"/>
				<path id="path2796" class="st3" d="M-204.5,55.7c3.4-13.7-4.8-21.6-13.5-28.5C-217.5,39.4-215.5,51.9-204.5,55.7z"/>
				<path id="path2802" class="st3" d="M-211.8,56.7c-8.7-10.7-17.7-5.8-26,0.2C-228.7,62.6-218.8,66.8-211.8,56.7z"/>
				<path id="path2808" class="st3" d="M-223.1,47.8c6.8-11.3,1-21.9-5.7-31.7C-231.4,27.6-232.7,40-223.1,47.8z"/>
				<path id="path2814" class="st3" d="M-227.8,47.4c-7-12.4-16.7-9.8-26-5.9C-245.6,49.1-236.3,55.5-227.8,47.4z"/>
				<path id="path2820" class="st3" d="M-237.9,35.9c8.5-9.4,4.3-21-0.9-32C-243.2,14.5-246.3,26.2-237.9,35.9z"/>
				<path id="path2826" class="st3" d="M-241.7,34.8c-5.1-13.7-15.1-13.3-24.9-11.8C-259.6,32.4-251.4,40.7-241.7,34.8z"/>
				<path id="path2832" class="st3" d="M-248.2,14.5c9.4-8.1,6.3-20,2.1-31.6C-251.5-7.3-255.8,3.7-248.2,14.5z"/>
				<path id="path2838" class="st3" d="M-249.3,18.9C-253,4.7-263.1,3.6-273.1,3.7C-267,13.9-259.6,23.3-249.3,18.9z"/>
				<path id="path2844" class="st3" d="M-256.8-8.3c10.8-5.1,9.9-17.5,7.9-29.7C-256.1-30.1-262.3-20.7-256.8-8.3z"/>
				<path id="path2850" class="st3" d="M-257.2,2.7c0.8-14.5-8.4-20.2-18-24.8C-272.5-10-268.4,1.8-257.2,2.7z"/>
				<path id="path2856" class="st3" d="M-257.2-36.3c11.8-1.3,13.5-13.3,14.2-25.5C-251.7-56.7-259.9-49.8-257.2-36.3z"/>
				<path id="path2862" class="st3" d="M-261.9-19.4c5-12.8-2.3-22-10.2-30.3C-273-37.6-272.4-25-261.9-19.4z"/>
				<path id="path2868" class="st3" d="M-255.7-57.8c11.5-2.9,12.1-15.1,11.8-27.4C-252.1-79-259.6-71-255.7-57.8z"/>
				<path id="path2874" class="st3" d="M-260.9-44c7.1-11.1,1.4-21.8-5.1-31.8C-269-64.3-270.4-52.1-260.9-44z"/>
			</g>
		</g>
		<g>
			<path class="st1" d="M-5.5-135.6c-1.8-4-10.3-11.7-14.6-14.2c-4.3-2.6-48.8-20.3-51.4-20.4c-2.6-0.1-32.4,16.8-38.2,19.3
				c-5.8,2.5-4.6,2.7-5.9-1.4c-1.4-4.1,1.4-16.6,2.1-33.5s-10.8-30.4-22-30.6c-11.2-0.2-18.7,8.9-21.5,11.2
				c-2.7,2.3-11.6,7.5-13.3,8.4c-1.6,0.9-1.7,3.6-1.6,5.6c0.2,2,5.8,0.4,24-1.6s14.1,17.3,12.2,25.6c-1.8,8.3-9.3,17.1-9.3,17.1
				c-1.1,1.4-1.8,0.4-3.4-0.5c-5.5-3.2-35.5-19.7-38-19.6c-2.6,0.1-47.1,17.8-51.4,20.4c-4.3,2.6-12.8,10.2-14.6,14.2
				c-1.8,4-11.4,23.1-9.1,24.9s13.4-22.1,14.6-21.4c1.2,0.7-8.9,20.7-9,27.5c-0.1,6.8,0.9,10.9,2.9,12.5s2.1,2.9,3-1.2
				c1-4.1,14.8-38.8,17.2-35.9c2.3,2.9-5.1,6.1-7.2,17.5s-1.9,18.7-1.9,20.3c0,1.6,0.4,5.4,1.6-0.9c1.2-6.2,10.9-36,13.6-34.4
				c2.7,1.6-8,19.3-5.4,26c2.7,6.7,8.5,8.6,8.6,6.7c0.1-1.9,4.3-19.8,6.1-23.7c1.8-3.9,5.5-12.8,6.7-11.4c1.2,1.3-3.2,10-4.1,16.1
				c-1,6.1-2.2,12.5-0.4,15c1.8,2.4,3.3-9.9,5.2-14.7c1.9-4.9,7.3-19.6,9.7-17.3c2.4,2.3-2.6,7.7-4.1,13.1s-1.1,12.5,0.6,14.1
				s1.8,1.5,2.3-2.3c0.5-3.8,1.6-13.5,3.4-17c1.8-3.5,4.4-7.5,5.7-6.6c1.3,1,0.5,2.8-0.9,5.1c-1.3,2.3-6.7,18.1-5.2,21.2
				c1.5,3,2.7,7.7,3,2.3c0.4-5.4,6.7-15.7,10-18.2c3.3-2.6,9.5-9.2,10.6-6.9c1.1,2.3-6.8,6.6-10,11.1c-3.2,4.5-7.1,14-6.2,18.2
				c0.9,4.3,0.4,1.7,4.5-4.1c4.1-5.8,18.9-23.1,20.3-19.8c1.5,3.3-17.5,26.3-18.6,27.3c-1.1,1-5.1,4.9,1,1.2
				c6.1-3.6,12.8-9.5,15.3-13.4c2.6-3.9,6.3-11.9,7.3-11.6c1,0.4-11,22.3-14.2,25.6c-3.2,3.4-6.3,6.5-4.4,6.9
				c1.9,0.5,8.7,3.1,17.8-9.2s7.8-16,9.7-15c1.8,1-7.3,16.3-8.1,18.2c-0.8,1.8-1.6,5.4,2.1,2.6c3.6-2.8,7.2-12.5,7.8-11.5
				c0.6,1-2.6,16.5-2.6,19.1c0,2.6,0.7,6.7,1.1,7.9c0.4,1.2,1.4,2.3,1.5,3.5c0,1.2-0.2,5.2-0.6,5.7s-6.2,9.5-8,13.2
				c-1.8,3.6-3.6,9.4-3.9,10.8c-0.3,1.4-1.2,3.9-0.3,4.2c1,0.4,2.8-2,6.3-0.2c3.6,1.8,3.3,3.7,3.4,4.6c0.1,0.9,1.3,2.4,2.5,0.2
				s1.6-3.3,3.8-3.3c2.2,0,3.7,3.8,5.2,3.6c1.5-0.1,1.2-2.6,1.4-4c0.1-1.3,0-14.2-1.6-19c-1.6-4.8-4.2-8.7-4.2-9.9
				c0.1-1.1,7.5-18,8.7-18.1c1.2,0,7.3,15.1,8.9,15.1s7.7-15.1,8.9-15.1c1.2,0,8.6,16.9,8.7,18.1c0.1,1.1-2.6,5-4.2,9.9
				s-1.7,17.6-1.6,19c0.1,1.3-0.1,3.8,1.4,4s3-3.6,5.2-3.6c2.2,0,2.6,1.1,3.8,3.3c1.1,2.1,2.3,0.6,2.5-0.2c0.1-0.9-0.1-2.8,3.4-4.6
				c3.6-1.8,5.4,0.6,6.3,0.2c1-0.4,0-2.9-0.3-4.2c-0.3-1.4-2.1-7.1-3.9-10.8c-1.8-3.6-7.6-12.8-8-13.2c-0.4-0.4-0.7-4.5-0.6-5.7
				c0-1.2,1.1-2.2,1.5-3.5c0.4-1.2,1.1-5.3,1.1-7.9s-3.3-18.1-2.6-19.1c0.6-1,4.2,8.7,7.8,11.5c3.6,2.8,2.9-0.7,2.1-2.6
				c-0.8-1.8-9.9-17.2-8.1-18.2c1.8-1,0.5,2.6,9.7,15c9.1,12.3,15.9,9.7,17.8,9.2s-1.2-3.6-4.4-6.9c-3.2-3.4-15.2-25.3-14.2-25.6
				c1-0.4,4.7,7.7,7.3,11.6c2.6,3.9,9.2,9.7,15.3,13.4c6.1,3.6,2.1-0.2,1-1.2c-1.1-1-20.1-24-18.6-27.3s16.2,14,20.3,19.8
				c4.1,5.8,3.6,8.4,4.5,4.1c0.9-4.3-3-13.7-6.2-18.2s-11.1-8.8-10-11.1c1.1-2.3,7.3,4.4,10.6,6.9c3.3,2.6,9.6,12.9,10,18.2
				c0.4,5.4,1.6,0.7,3-2.3c1.5-3-3.9-18.9-5.2-21.2c-1.3-2.3-2.2-4.1-0.9-5.1c1.3-1,3.9,3,5.7,6.6c1.8,3.5,2.9,13.3,3.4,17
				c0.5,3.8,0.6,3.9,2.3,2.3c1.7-1.6,2.2-8.6,0.6-14.1c-1.6-5.5-6.6-10.8-4.1-13.1c2.4-2.3,7.8,12.4,9.7,17.3
				c1.9,4.9,3.4,17.2,5.2,14.7c1.8-2.4,0.6-8.9-0.4-15c-1-6.1-5.4-14.7-4.1-16.1c1.2-1.3,4.9,7.5,6.7,11.4c1.8,3.9,6,21.8,6.1,23.7
				c0.1,1.9,6,0,8.6-6.7c2.7-6.7-8-24.5-5.4-26c2.7-1.6,12.4,28.2,13.6,34.4c1.2,6.2,1.6,2.4,1.6,0.9c0-1.6,0.1-8.9-1.9-20.3
				c-2.1-11.4-9.5-14.6-7.2-17.5c2.3-2.9,16.2,31.8,17.2,35.9c1,4.1,1,2.8,3,1.2s3-5.7,2.9-12.5s-10.2-26.8-9-27.5
				c1.2-0.7,12.3,23.2,14.6,21.4C6-112.5-3.7-131.6-5.5-135.6z"/>
		</g>
		<g>
			<path class="st1" d="M-244.8-226.8L-244.8-226.8l-6.5,2.6l0,0c-0.2,0.1-0.5,0.1-0.7,0l0,0l0,0c-0.2-0.1-0.4-0.3-0.5-0.5l0,0
				l-8.2-20.3l0,0c-0.1-0.2-0.1-0.5,0-0.7l0,0l0,0c0.1-0.2,0.3-0.4,0.5-0.5l0,0l17.1-6.9l0,0c0.2-0.1,0.5-0.1,0.7,0l0,0l0,0
				c0.2,0.1,0.4,0.3,0.5,0.5l0,0l2,5.1l0,0c0.1,0.2,0.1,0.5,0,0.7l0,0l0,0c-0.1,0.2-0.3,0.4-0.5,0.5l0,0l-9.8,3.9l5.8,14.4l0,0
				c0.1,0.2,0.1,0.5,0,0.7l0,0l0,0C-244.4-227.1-244.6-226.9-244.8-226.8z M-224.2-232.3L-224.2-232.3l-5.9,1.6l0,0
				c-0.2,0.1-0.5,0-0.7-0.1l0,0l0,0c-0.2-0.1-0.4-0.3-0.4-0.6l0,0l-1.4-5.2l0,0c-0.1-0.2,0-0.5,0.1-0.7l0,0l0,0
				c0.1-0.2,0.3-0.4,0.6-0.4l0,0l4.6-1.2l0,0c1.2-0.3,1.9-0.6,2-0.8l0,0l-11-12.8l0,0c0-0.1-0.1-0.1-0.1-0.2l0,0l0,0
				c-0.1-0.5,0.2-0.9,0.6-1l0,0l7.2-1.9l0,0c0.5-0.1,0.9,0,1.3,0.5l0,0l6,7.6l0.9-9.5l0,0c0.1-0.6,0.4-0.9,0.9-1.1l0,0l6.8-1.8l0,0
				c0.2-0.1,0.4,0,0.6,0.1l0,0l0,0c0.2,0.1,0.3,0.2,0.4,0.4l0,0l0,0c0,0.2,0.1,0.3,0.1,0.3l0,0l-1.8,12.8l0,0
				c-0.3,2.5-0.6,4.3-0.9,5.4l0,0l0,0c-0.3,1.1-0.7,2.3-1.5,3.6l0,0l0,0c-0.7,1.3-1.7,2.3-3,3l0,0l0,0
				C-220.4-233.5-222.1-232.9-224.2-232.3z M-197.5-252.1L-197.5-252.1l0.6,5.4l0,0c0.1,0.9,0.5,1.6,1.2,2l0,0l0,0
				c0.7,0.4,1.5,0.6,2.5,0.5l0,0l0,0c1-0.1,1.7-0.3,2.1-0.7l0,0l0,0c0.4-0.4,0.7-0.9,1-1.5l0,0l0,0c0.2-0.6,0.6-1,1.1-1l0,0l7.3-0.8
				l0,0c0.2,0,0.4,0,0.5,0.2l0,0l0,0c0.2,0.1,0.3,0.3,0.3,0.5l0,0l0,0c0.2,2.1-0.6,4.1-2.4,6.1l0,0l0,0c-0.9,1-2.1,1.8-3.7,2.5l0,0
				l0,0c-1.6,0.7-3.5,1.2-5.7,1.4l0,0l0,0c-2.2,0.2-4.3,0.1-6.2-0.4l0,0l0,0c-1.9-0.5-3.5-1.5-4.8-2.9l0,0l0,0
				c-1.3-1.4-2.1-3.3-2.3-5.6l0,0l-0.4-4l0,0c-0.2-2.3,0.1-4.3,1.1-6l0,0l0,0c1.8-3.2,5.3-5,10.4-5.6l0,0l0,0c2-0.2,3.9-0.2,5.6,0.2
				l0,0l0,0c1.7,0.4,3.1,0.9,4.2,1.7l0,0l0,0c2.2,1.5,3.4,3.3,3.6,5.4l0,0l0,0c0,0.2,0,0.4-0.2,0.5l0,0l0,0
				c-0.1,0.2-0.3,0.3-0.5,0.3l0,0l-7.3,0.8l0,0c-0.5,0.1-0.9-0.2-1.3-0.8l0,0l0,0c-0.4-0.6-0.8-1-1.3-1.3l0,0l0,0
				c-0.5-0.3-1.2-0.3-2.2-0.2l0,0l0,0c-1,0.1-1.8,0.4-2.4,1l0,0l0,0C-197.3-253.8-197.6-253-197.5-252.1z M-174.1-239L-174.1-239
				L-174.1-239c-0.2,0-0.5-0.1-0.7-0.2l0,0l0,0c-0.2-0.2-0.3-0.4-0.3-0.6l0,0l-0.2-5.4l0,0c0-0.2,0.1-0.5,0.2-0.7l0,0l0,0
				c0.2-0.2,0.4-0.3,0.6-0.3l0,0l0,0c0.9,0,1.6-0.3,1.9-0.7l0,0l0,0c0.3-0.4,0.5-1.1,0.5-2l0,0l-0.6-13.3l0,0c0-0.2,0.1-0.5,0.2-0.7
				l0,0l0,0c0.2-0.2,0.4-0.3,0.6-0.3l0,0l19.3-0.9l0,0c0.2,0,0.5,0.1,0.7,0.2l0,0l0,0c0.2,0.2,0.3,0.4,0.3,0.6l0,0l1,21.9l0,0
				c0,0.2-0.1,0.5-0.2,0.7l0,0l0,0c-0.2,0.2-0.4,0.3-0.6,0.3l0,0l-6.3,0.3l0,0c-0.2,0-0.5-0.1-0.7-0.2l0,0l0,0
				c-0.2-0.2-0.3-0.4-0.3-0.6l0,0l-0.7-15.5l-4.8,0.2l0.3,6.8l0,0c0.2,3.3-0.7,5.9-2.5,7.6l0,0l0,0
				C-168.2-240.1-170.7-239.2-174.1-239z M-144.1-256.7L-144.1-256.7L-144.1-256.7c0.1-2.5,1-4.5,2.9-5.9l0,0l0,0
				c1.8-1.4,4.3-2.1,7.4-2l0,0l13.2,0.3l0,0c0.2,0,0.5,0.1,0.6,0.3l0,0l0,0c0.2,0.2,0.3,0.4,0.3,0.7l0,0l-0.5,21.9l0,0
				c0,0.2-0.1,0.5-0.3,0.6l0,0l0,0c-0.2,0.2-0.4,0.3-0.7,0.3l0,0l-7.3-0.2l0,0c-0.2,0-0.5-0.1-0.6-0.3l0,0l0,0
				c-0.2-0.2-0.3-0.4-0.3-0.7l0,0l0.2-6.7l-2.9-0.1l-3.2,6.6l0,0c-0.3,0.6-0.8,0.8-1.4,0.8l0,0l-7.7-0.2l0,0c-0.2,0-0.4-0.1-0.5-0.2
				l0,0l0,0c-0.1-0.2-0.2-0.3-0.2-0.5l0,0l0,0c0-0.2,0-0.3,0.1-0.4l0,0l4.4-7.7l0,0C-143-251.4-144.1-253.7-144.1-256.7z
				 M-133.3-254.8l4.2,0.1l0.1-3.6l-4.2-0.1l0,0c-0.5,0-0.9,0.2-1.2,0.5l0,0l0,0c-0.3,0.4-0.4,0.8-0.4,1.3l0,0l0,0
				c0,0.5,0.1,0.9,0.4,1.2l0,0l0,0C-134.2-255-133.8-254.8-133.3-254.8L-133.3-254.8z M-96.5-262.9L-96.5-262.9l7,0.5l0,0
				c0.2,0,0.5,0.1,0.6,0.3l0,0l0,0c0.2,0.2,0.2,0.4,0.2,0.7l0,0l-1.7,21.9l0,0c0,0.2-0.1,0.5-0.3,0.6l0,0l0,0
				c-0.2,0.2-0.4,0.2-0.7,0.2l0,0l-7-0.5l0,0c-0.2,0-0.5-0.1-0.6-0.3l0,0l0,0c-0.2-0.2-0.2-0.4-0.2-0.7l0,0l0.5-7.2l-6.8-0.5
				l-0.5,7.2l0,0c0,0.2-0.1,0.5-0.3,0.6l0,0l0,0c-0.2,0.2-0.4,0.2-0.7,0.2l0,0l-7-0.5l0,0c-0.2,0-0.5-0.1-0.6-0.3l0,0l0,0
				c-0.2-0.2-0.2-0.4-0.2-0.7l0,0l1.7-21.9l0,0c0-0.2,0.1-0.5,0.3-0.6l0,0l0,0c0.2-0.2,0.4-0.2,0.7-0.2l0,0l7,0.5l0,0
				c0.2,0,0.5,0.1,0.6,0.3l0,0l0,0c0.2,0.2,0.2,0.4,0.2,0.7l0,0l-0.5,6.9l6.8,0.5l0.5-6.9l0,0c0-0.2,0.1-0.5,0.3-0.6l0,0l0,0
				C-97-262.9-96.8-262.9-96.5-262.9z M-78.4-261.8L-78.4-261.8l17.8,2.4l0,0c0.2,0,0.4,0.2,0.6,0.4l0,0l0,0
				c0.2,0.2,0.2,0.4,0.2,0.7l0,0l-2,15.4l1.7,0.2l0,0c0.2,0,0.4,0.2,0.6,0.4l0,0l0,0c0.2,0.2,0.2,0.4,0.2,0.7l0,0l-1.3,9.6l0,0
				c0,0.2-0.2,0.4-0.4,0.6l0,0l0,0c-0.2,0.2-0.4,0.2-0.7,0.2l0,0l-5.5-0.7l0,0c-0.2,0-0.4-0.2-0.6-0.4l0,0l0,0
				c-0.2-0.2-0.2-0.4-0.2-0.7l0,0l0.4-3.3l-11.5-1.5l-0.4,3.3l0,0c0,0.2-0.2,0.4-0.4,0.6l0,0l0,0c-0.2,0.2-0.4,0.2-0.7,0.2l0,0
				l-5.4-0.7l0,0c-0.2,0-0.4-0.1-0.6-0.3l0,0l0,0c-0.2-0.2-0.2,0.3-0.2,0l0,0l1.3-10.3l0,0c0-0.2,0.2-0.4,0.4-0.6l0,0l0,0
				c0.2-0.2,0.4-0.2,0.7-0.2l0,0l0.5,0.1l0,0c0.5,0.1,1.1-0.1,1.7-0.5l0,0l0,0c0.6-0.4,0.9-1,1-1.8l0,0l1.7-12.8l0,0
				c0-0.2,0.2-0.4,0.4-0.6l0,0l0,0C-78.8-261.7-78.6-261.8-78.4-261.8z M-69.9-244l1.3-9.4l-3.4-0.5L-73-247l0,0
				c-0.2,1.3-0.4,2.1-0.6,2.5l0,0L-69.9-244z M-48.9-256.4L-48.9-256.4l6.1,1.5l0,0c0.2,0.1,0.4,0.2,0.6,0.4l0,0l0,0
				c0.1,0.2,0.2,0.4,0.1,0.7l0,0l-2.4,9.7l9.6-8.1l0,0c0.4-0.4,0.9-0.5,1.4-0.3l0,0l5.3,1.3l0,0c0.2,0.1,0.4,0.2,0.6,0.4l0,0l0,0
				c0.1,0.2,0.2,0.4,0.1,0.7l0,0l-5.3,21.3l0,0c-0.1,0.2-0.2,0.4-0.4,0.6l0,0l0,0c-0.2,0.1-0.4,0.2-0.7,0.1l0,0l-6.1-1.5l0,0
				c-0.2-0.1-0.4-0.2-0.6-0.4l0,0l0,0c-0.1-0.2-0.2-0.4-0.1-0.7l0,0l2.2-9l-9.5,7.4l0,0c-0.5,0.4-1,0.5-1.5,0.4l0,0l-5.3-1.3l0,0
				c-0.2-0.1-0.4-0.2-0.6-0.4l0,0l0,0c-0.1-0.2-0.2-0.4-0.1-0.7l0,0l5.3-21.3l0,0c0.1-0.2,0.2-0.4,0.4-0.6l0,0l0,0
				C-49.4-256.4-49.1-256.5-48.9-256.4z M-22.2-240.8L-22.2-240.8L-22.2-240.8c1-2.3,2.6-3.8,4.8-4.5l0,0l0,0
				c2.2-0.7,4.8-0.4,7.6,0.8l0,0l12.2,5.1l0,0c0.2,0.1,0.4,0.3,0.5,0.5l0,0l0,0c0.1,0.2,0.1,0.5,0,0.7l0,0L-5.5-218l0,0
				c-0.1,0.2-0.3,0.4-0.5,0.5l0,0l0,0c-0.2,0.1-0.5,0.1-0.7,0l0,0l-6.8-2.8l0,0c-0.2-0.1-0.4-0.3-0.5-0.5l0,0l0,0
				c-0.1-0.2-0.1-0.5,0-0.7l0,0l2.6-6.1l-2.6-1.1l-5.3,5.1l0,0c-0.5,0.4-1,0.5-1.6,0.2l0,0l-7.1-2.3l0,0c-0.2-0.1-0.3-0.2-0.4-0.4
				l0,0l0,0c-0.1-0.2-0.1-0.4,0-0.5l0,0l0,0c0.1-0.1,0.1-0.3,0.2-0.3l0,0l6.9-6.3l0,0C-23.1-235.5-23.4-238-22.2-240.8z
				 M-12.9-235.1l3.9,1.6l1.4-3.3l-3.9-1.6l0,0c-0.5-0.2-0.9-0.2-1.3,0.1l0,0l0,0c-0.4,0.2-0.7,0.6-0.9,1.1l0,0l0,0
				c-0.2,0.5-0.2,0.9-0.1,1.3l0,0l0,0C-13.6-235.6-13.3-235.3-12.9-235.1L-12.9-235.1z"/>
		</g>
	</g>
</g>
</svg>
